<?xml version="1.0" standalone="no"?>
<!DOCTYPE svg PUBLIC "-//W3C//DTD SVG 1.1//EN" "http://www.w3.org/Graphics/SVG/1.1/DTD/svg11.dtd" >
<svg>
<metadata>
Created by FontForge 20110222 at Sun Sep  7 17:57:06 2014
 By deploy user
Copyright (c) 2014 by Kyivstar JSC. All rights reserved.
</metadata>
<defs>
<font id="KobzarKS" horiz-adv-x="468" >
  <font-face 
    font-family="Kobzar KS"
    font-weight="400"
    font-stretch="normal"
    units-per-em="1000"
    panose-1="3 2 5 0 4 4 0 0 0 0"
    ascent="750"
    descent="-250"
    x-height="364"
    cap-height="744"
    bbox="-1093.1 -2451.71 7703.3 971"
    underline-thickness="50"
    underline-position="-50"
    unicode-range="U+000D-FB06"
  />
<missing-glyph horiz-adv-x="540" 
d="M512 660q8 -8 8 -31q0 -7 -6 -55q-11 -75 -51.5 -234t-50.5 -264q-6 -76 -14 -84q-12 -12 -96 -12q-132 0 -176 -2q-5 0 -19.5 -2t-22 -2.5t-16.5 2t-14 8.5q-9 12 2 92q14 99 52 262q6 24 20.5 77t22 93t11.5 90q1 10 1 27.5t1 26t4 19t11 15.5t21 6q10 1 30 1
q37 0 105 -10.5t101 -12.5q7 -1 21.5 -1t23.5 -0.5t18 -2.5t13 -6zM472 620q-2 3 -6 4.5t-10.5 2.5t-12 1.5t-14 1t-13.5 0.5q-17 1 -74 9.5t-83 8.5q-19 0 -27 -2l-10.5 -3t-5.5 -5t-2.5 -6t-1 -9.5t-0.5 -12.5q-2 -32 -5.5 -60t-10 -60.5l-9.5 -47.5t-13 -57t-12 -53
q-8 -35 -25.5 -129.5t-30.5 -142.5q-10 -33 -4 -40q5 -6 60 0q36 2 66 2q5 0 41 -2t59.5 -0.5t31.5 8.5q4 4 6.5 16t3.5 33t2 27q11 94 46.5 239t45.5 199q11 62 11 63q0 9 -3 15z" />
    <glyph glyph-name="ff" unicode="ff" horiz-adv-x="839" 
d="M658 51q-24 -9 -77 -72q-36 -46 -140 -138t-142 -92q-12 0 -12 19q0 37 31 103q21 47 58 112t66.5 112t78.5 123t65 102q17 25 17 39q0 3 -2 3q-6 0 -24 -21q-94 -100 -190 -171q-40 -30 -101 -71q-10 -4 -30 -26.5t-45 -55.5t-29 -38q-38 -48 -157 -171.5t-141 -123.5
q-19 0 -19 25q0 34 36 111q67 153 286 500q15 24 15 31q0 1 -3 1q-4 0 -25 -25q-95 -115 -157 -172q-10 -9 -21 -5.5t-12.5 13.5t8.5 23q205 214 442 497q20 24 37 24q14 0 14 -15t-13 -32q-179 -239 -259 -376q-7 -12 -7 -18t6 -5l16 5q15 5 29.5 8.5t26.5 3.5
q22 0 35.5 -13t13.5 -36q0 -35 -22 -72q94 65 212 180t183 188.5t78 92.5q18 24 37 24q14 0 14 -16q0 -14 -13 -31q-128 -171 -210 -311q-7 -12 -7 -18q0 -5 4 -5q12 0 36 8.5t38 8.5q22 0 35.5 -13t13.5 -36q0 -35 -22 -72q-21 -38 -21 -41q0 -4 8 -4q22 0 50 14
q11 4 24 12t21.5 14.5t19 16t11.5 10.5q18 14 29 1t-1 -27t-55 -41.5t-64 -34.5q-44 -13 -74 -26zM159 177q-37 -48 -111 -176t-102 -193q-20 -43 -20 -48q0 -3 3 -3t30 25q65 62 144.5 158.5t97.5 149.5q2 4 -4 7t-15.5 8t-14.5 12q-9 13 -9 34q0 9 2 21v6zM599 79
q2 4 -1.5 7.5t-11 8.5t-12.5 12q-10 15 -13 64q-1 7 -3 6q-39 -50 -102.5 -153t-92.5 -165q-7 -15 -7 -24q0 -6 6 -6q8 0 34 16q19 12 79 72.5t91 100.5q26 35 33 61zM663 229q-23 0 -39 -21.5t-16 -48.5q0 -12 8 -23t18 -11q4 0 6 1q6 3 23 34.5t17 50.5q0 18 -17 18z
M281 214q0 15 -17 15q-24 0 -43 -21.5t-19 -47.5q0 -19 24 -19q8 0 15 3t23.5 28.5t16.5 41.5z" />
    <glyph glyph-name="fi" unicode="fi" horiz-adv-x="638" 
d="M286 99q-20 -7 -105 -128q-43 -61 -154 -174t-143 -113q-19 0 -19 27q0 12 5 30t10.5 31.5t12.5 29.5t8 18q56 134 286 500q17 28 17 31q0 1 -3 1q-5 0 -27 -25q-3 -3 -35 -39.5t-67 -75t-55 -57.5q-10 -9 -21 -5.5t-12.5 13.5t8.5 23q205 214 442 497q20 24 37 24
q14 0 14 -15t-13 -32q-7 -9 -59 -77.5t-74 -99t-60.5 -89.5t-65.5 -110q-12 -24 -1 -23l16 5q15 5 29.5 8.5t26.5 3.5q22 0 35.5 -13t13.5 -36q0 -35 -22 -72q42 29 146 120q12 10 35 31t35.5 31.5t28 19.5t26.5 9q19 0 19 -18q0 -20 -24 -62l-87 -156q-28 -52 -28 -69
q0 -9 7 -9q15 0 44 28q8 7 51.5 45t59.5 54q9 9 20 5.5t13 -14t-8 -21.5q-82 -76 -134 -117q-41 -32 -75 -32q-31 0 -31 34q0 13 4 28q10 43 98 198q0 12 -4 12t-14 -10q-55 -54 -94 -84.5t-113 -80.5zM201 90q2 4 -4 7t-15.5 8t-14.5 12q-13 18 -8 60q-37 -48 -111 -176
t-102 -193q-18 -40 -18 -50q0 -4 2 -4q4 0 31 25q66 62 145 160t95 151zM623 577q12 0 18.5 -8t6.5 -20q0 -19 -22 -50.5t-39 -31.5q-12 0 -12 9q0 3 7.5 25.5t7.5 41.5q0 14 10 24t23 10zM264 229q-24 0 -43.5 -21.5t-18.5 -47.5q0 -13 14 -17.5t25 1.5q9 5 28 36
q28 48 -5 49z" />
    <glyph glyph-name="fl" unicode="fl" horiz-adv-x="801" 
d="M308 53q-30 -13 -75 -74q-33 -45 -138 -137.5t-144 -93.5q-13 0 -13 20q0 39 28 103q31 73 82 164.5t123 206.5t87 141q13 19 13 31q0 4 -2 4q-5 0 -26 -24q-140 -167 -227 -239q-9 -10 -20.5 -6.5t-14 13.5t4.5 18q84 79 211 215t200.5 219t93.5 106q19 25 37 25
q13 0 13 -16q0 -15 -12 -31q-2 -3 -43 -61.5t-51 -73t-44.5 -65t-51.5 -77t-41 -66t-42 -71.5q-6 -10 -6 -18q0 -5 6 -5q2 0 30 10t44 10q22 0 35.5 -15t13.5 -38q0 -35 -21 -68q-32 -47 -12 -43q28 5 101 82q297 312 393 432q22 28 37 28q12 0 12 -16q0 -21 -24 -53
q-109 -137 -197 -281.5t-88 -223.5q0 -35 26 -35q46 0 178 127q11 10 22.5 7.5t13 -13t-7.5 -21.5q-157 -151 -220 -151q-32 0 -48 21.5t-16 58.5q0 39 28 110.5t85 161.5q6 11 6 14q0 2 -2 2q-5 0 -12 -10q-101 -127 -178 -203t-147 -101zM202 188q-43 -61 -108.5 -172
t-89.5 -167q-12 -28 -1 -27q8 1 37 21q19 12 82 75.5t92 103.5q21 29 24 50q1 8 -8.5 20t-17.5 32.5t-5 47.5q2 18 -3 18q-1 0 -2 -2zM309 231q-23 -1 -41 -28t-18 -55q0 -12 8.5 -22.5t18.5 -10.5q14 0 31.5 39.5t17.5 57.5q0 19 -17 19z" />
    <glyph glyph-name="ffi" unicode="ffi" horiz-adv-x="1038" 
d="M686 99q-18 -7 -98 -120q-32 -45 -134 -141t-141 -97q-13 0 -13 20q0 32 28 103q24 61 65 136.5t110.5 188t80.5 131.5q16 26 16 38q0 4 -2 4q-5 0 -23 -22q-52 -60 -113 -112.5t-176 -128.5q-10 -4 -30 -26.5t-45 -55.5t-29 -38q-47 -59 -158.5 -177t-139.5 -118
q-19 0 -19 27q0 12 5 30t10.5 31.5t12.5 29.5t8 18q53 129 286 500q16 26 16 29t-2 3q-5 0 -27 -25q-3 -3 -35 -39.5t-67 -75t-55 -57.5q-10 -9 -21 -5.5t-12.5 13.5t8.5 23q113 118 234.5 254.5t182.5 208.5q20 24 37 24q14 0 14 -16q0 -14 -13 -31q-155 -207 -234 -342
q-14 -23 -3 -23h2l16 5q15 5 29.5 8.5t26.5 3.5q22 0 35.5 -13t13.5 -36q0 -35 -22 -72q96 66 219.5 193t202.5 223.5t113 146.5q17 25 37 25q13 0 13 -16q0 -13 -12 -31q-14 -20 -64 -92t-77.5 -112t-66.5 -101.5t-65 -108.5q-12 -23 -1 -23h2l16 5q15 5 29.5 8.5t26.5 3.5
q22 0 35.5 -13t13.5 -36q0 -35 -22 -72q22 16 44.5 34t54 45t47.5 41q10 8 28.5 25t28.5 26t24 19.5t24.5 15.5t19.5 5q19 0 19 -18q0 -20 -24 -62l-87 -156q-28 -49 -28 -68q0 -9 7 -9q11 0 44 27q81 69 111 99q9 9 20 5.5t13 -14t-8 -21.5q-82 -76 -134 -117
q-41 -32 -75 -32q-31 0 -31 34q0 25 12 58t23.5 54t36 62.5t30.5 51.5q4 8 -1 11t-17 -9q-57 -55 -97 -86.5t-110 -78.5zM201 90q2 4 -4 7t-15.5 8t-14.5 12q-13 18 -8 60q-37 -48 -111 -176t-102 -193q-20 -43 -20 -50q0 -2 2 -2q3 0 31 26q69 65 147.5 160t94.5 148z
M281 214q0 15 -17 15q-24 0 -43.5 -21.5t-18.5 -47.5q0 -13 14 -17.5t25 1.5q7 3 23.5 28.5t16.5 41.5zM601 90q2 4 -4 7t-15.5 8t-14.5 12q-13 18 -8 60q-38 -51 -98.5 -156.5t-86.5 -167.5q-7 -15 -7 -23q0 -7 6 -7q13 0 34 17q62 50 119.5 122t74.5 128zM1023 577
q10 0 17.5 -7.5t7.5 -18.5q0 -10 -4 -19q-10 -23 -26.5 -44t-30.5 -21q-12 0 -12 9q0 3 7.5 25.5t7.5 41.5q0 14 10 24t23 10zM664 229q-24 0 -43.5 -21.5t-18.5 -47.5q0 -13 14 -17.5t25 1.5q9 5 28 36q28 48 -5 49z" />
    <glyph glyph-name="ffl" unicode="ffl" horiz-adv-x="1156" 
d="M663 53q-20 -9 -75 -74q-35 -47 -136 -142t-139 -96q-13 0 -13 20q0 39 28 103q20 47 55 113t64 114.5t75 125t62 103.5q16 26 16 38q0 4 -2 4q-5 0 -23 -22q-52 -60 -113 -112.5t-176 -128.5q-10 -4 -30 -26.5t-45 -55.5t-29 -38q-48 -61 -158.5 -178.5t-139.5 -116.5
q-19 0 -19 27q0 12 5 30t10.5 31.5t12.5 29.5t8 18q55 138 286 500q17 28 17 30t-3 2q-5 0 -27 -25q-3 -3 -35 -39.5t-67 -75t-55 -57.5q-10 -9 -21 -5.5t-12.5 13.5t8.5 23q113 118 234.5 254.5t182.5 208.5q20 24 37 24q14 0 14 -15t-13 -32q-155 -207 -234 -342
q-7 -12 -7 -18q0 -5 4 -5q12 0 36 8.5t38 8.5q22 0 35.5 -13t13.5 -36q0 -35 -22 -72q87 60 214.5 193t193.5 213t119 147q23 36 45 36q13 0 13 -16t-12 -32q-213 -305 -273 -414q-12 -24 0 -23q2 1 12.5 5t19 7t21 5.5t21.5 2.5q22 0 35 -14.5t13 -37.5q0 -37 -20 -69
q-24 -38 -9 -34q23 6 95 80q265 273 407 450q22 28 37 28q12 0 12 -16q0 -23 -24 -53q-107 -133 -201.5 -292t-94.5 -238q0 -35 26 -35q46 0 178 127q11 10 22.5 7.5t13 -13t-7.5 -21.5q-157 -151 -220 -151q-32 0 -48 21.5t-16 58.5q0 39 28 110.5t85 161.5q6 11 6 14
q0 2 -2 2q-5 0 -12 -10q-101 -127 -178 -203t-147 -101zM201 90q2 4 -4 7t-15.5 8t-14.5 12q-13 18 -8 60q-37 -48 -111 -176t-102 -193q-20 -43 -20 -50q0 -2 2 -2q3 0 31 26q69 65 147.5 160t94.5 148zM598 63q-12 7 -20.5 21.5t-11.5 29.5t-4.5 29.5t-1.5 23.5v9
q-38 -51 -99 -156t-87 -167q-7 -15 -7 -23q0 -7 6 -7q9 0 34 17q18 12 76.5 73.5t88.5 103.5q23 33 26 46zM664 231q-23 -1 -42 -28.5t-17 -54.5q0 -15 11 -26t22 -6q9 4 29 48q31 67 -3 67zM264 229q-24 0 -43.5 -21.5t-18.5 -47.5q0 -13 14 -17.5t25 1.5q9 5 28 36
q28 48 -5 49z" />
    <glyph glyph-name="s_t" unicode="st" horiz-adv-x="736" 
d="M697 527q0 -41 -66 -134l-5 -5q-5 -6 -9 -11.5t-7.5 -11.5t-3.5 -10q0 -6 12 -5q16 3 33 5t24 3t20 4.5t32 9.5q22 7 28 -0.5t-2 -25.5q-8 -19 -44 -27.5t-82.5 -12.5t-61.5 -9q-17 -6 -79 -102q-52 -75 -52 -128q0 -14 12.5 -23.5t28.5 -9.5q37 0 86.5 26t81.5 51t72 60
q7 6 10 9q10 9 20.5 5t12 -14t-8.5 -21q-41 -37 -65.5 -57.5t-65.5 -49.5t-79 -42.5t-75 -13.5q-38 0 -61 21t-23 62q0 50 77 163q1 1 15 20.5t24 34.5q0 2 0.5 3t-2 1.5t-4.5 1t-6 0.5h-6.5h-6.5h-6q-5 0 -16.5 -1t-17.5 -1q-28 0 -28 19q0 14 25 19.5t58.5 6t40.5 2.5
t16 12t23.5 31t19.5 28q61 81 61 99q0 9 -9 9q-12 0 -63 -33q-82 -55 -178 -136q-147 -123 -170 -144q-5 -5 -15 -14t-15 -14t-11 -12t-8.5 -13t-1.5 -12q10 -78 10 -96q0 -88 -49 -152.5t-123 -64.5q-36 0 -58 19.5t-22 60.5q0 42 29.5 87t64.5 76t64 62t28 48
q-4 61 -14 61q-3 0 -6 -4q-53 -56 -85 -83q-10 -8 -20 -4t-12 13.5t5 17.5q90 80 125 135q1 2 7 30t25 55.5t56 43.5q22 9 43 9q35 0 35 -29q0 -10 -6.5 -22t-12.5 -19t-19.5 -20t-15.5 -15q-1 -1 -26 -24.5t-36 -38.5t-11 -29q0 -17 4.5 -30.5t12.5 -13.5q14 0 58 40
q195 168 270 224q8 6 29.5 22.5t34.5 25.5t31 20.5t33.5 17t29.5 5.5q42 0 42 -41zM211 399q-21 0 -43 -33q-11 -16 -11 -23q0 -6 5 -6q9 0 32 20.5t23 35.5q0 6 -6 6zM121 99l-4 -2q-17 -11 -74 -72q-25 -27 -36 -40t-22 -35t-11 -43q0 -38 37 -38q51 0 88.5 54t37.5 133
q0 43 -16 43z" />
    <glyph glyph-name="a066_a066.liga" unicode="&#x431;&#x431;" horiz-adv-x="670" 
d="M1033 914q22 0 22 -42q0 -215 -337 -297q-40 -11 -46 -18q-5 -6 -7 -19.5t-3 -34t-1 -24.5q-14 -141 -57.5 -258t-109.5 -178q-20 -19 -49.5 -35.5t-52.5 -16.5q-34 0 -58.5 20t-24.5 66q0 47 18 89.5t46.5 72t57 49.5t55.5 30q30 10 39 10q15 0 15 -15
q0 -10 -12.5 -19.5t-30 -18t-20.5 -10.5q-114 -73 -114 -174q0 -50 31 -50q25 0 62 31.5t65 72.5q79 117 95 366q0 4 1 24.5t3.5 36t6.5 21.5q5 8 26.5 13.5t49.5 10t35 6.5q52 16 90.5 33t79 44t65 66t30.5 89q0 2 0.5 12.5t2 16.5t4 14t8.5 12t15 4zM759 802
q0 -7 -4.5 -12.5t-14 -10t-18.5 -8t-23 -6.5t-23 -5t-23.5 -4t-18.5 -3q-54 -10 -92.5 -21t-81.5 -31.5t-69.5 -47t-44.5 -69t-18 -96.5q0 -19 0.5 -56t0.5 -55q0 -95 -52.5 -182.5t-130.5 -145.5q-71 -53 -119 -53q-61 0 -61 77q0 47 19 99t46 84q25 31 63.5 57.5
t77.5 26.5q25 0 25 -17q0 -4 -1 -8t-3.5 -7.5t-5 -6t-7 -5t-7.5 -4.5t-9 -4.5t-9.5 -3.5t-10.5 -3.5t-10 -3.5q-40 -14 -79 -76t-40 -124q0 -27 19 -27q46 0 86 33t82 88q80 105 81 212q0 17 -1 51t-1 50q0 146 97 225q51 41 154 74q136 43 199 45q16 0 22 -6t6 -20z" />
    <glyph glyph-name="a067_a069.liga" unicode="&#x432;&#x434;" horiz-adv-x="785" 
d="M636 951q56 0 97.5 -23t64.5 -63.5t34 -89.5t11 -108q0 -227 -148 -479q-47 -81 -111 -140.5t-131 -59.5q-23 0 -40 17.5t-17 52.5q0 34 11.5 66.5t23.5 50.5t33 45q0 9 -39 10q-12 0 -31.5 0.5t-28.5 0.5q-4 0 -12 0.5t-10 0.5t-7 -2t-3.5 -7t1.5 -14v-31
q0 -44 -42.5 -96t-88.5 -80q-33 -20 -65 -20q-37 0 -61 26.5t-24 73.5q0 55 22 115q5 16 -59 -44l-1 -1q-12 -11 -22 -6t-11.5 16.5t4.5 18.5q12 10 28 23.5t23 19.5q9 7 25.5 19.5t27.5 22t17 18.5q5 7 12 23t8 19q62 129 172 228.5t250 155.5q32 12 55 12q40 0 40 -33
q0 -14 -7 -29.5t-21 -32t-24 -27.5t-26 -26t-17 -16q-108 -108 -270 -210q-62 -41 -72 -48q-5 -4 -22 -15.5t-28 -20.5t-16 -18q-16 -25 -26.5 -74.5t-10.5 -85.5q0 -58 35 -58q24 0 66 34q27 24 54.5 61t27.5 66q0 17 -11 25.5t-24 9.5t-24 7.5t-11 20.5q0 24 45 24
q17 0 50 -4t41 -4q11 0 32 -0.5t31 -0.5q66 0 101 11q11 3 43.5 27.5t62.5 25.5q11 0 18 -7.5t7 -18.5q0 -22 -15.5 -34.5t-47.5 -20.5t-36 -10q-35 -15 -68 -74t-33 -105q0 -26 23 -26q28 0 74 39q82 66 133 166.5t91 245.5q25 88 25 184q0 49 -8 90.5t-25.5 75.5
t-49.5 53.5t-75 19.5q-112 0 -225 -101q-43 -39 -91 -133q0 -1 -3 -7l-4.5 -9t-5.5 -8.5t-7 -8.5t-7.5 -5.5t-9.5 -2.5q-19 0 -19 21q0 40 32.5 93t72.5 90q109 100 240 112q9 1 27 1zM233 370q196 113 314 242q31 31 31 44q0 8 -11 8q-14 0 -31.5 -6.5t-28 -12.5t-30 -19
t-24.5 -16q-131 -81 -218 -196q-31 -43 -31 -51q0 -5 4 -5q13 0 25 12z" />
    <glyph glyph-name="a069_a069.liga" unicode="&#x434;&#x434;" horiz-adv-x="735" 
d="M482 791q113 0 175.5 -90.5t62.5 -216.5q0 -149 -83 -304q-47 -85 -88 -122q-25 -23 -66.5 -45.5t-75.5 -22.5q-26 0 -44.5 16t-18.5 48q0 75 51 137q3 3 12.5 13.5t15.5 17.5t6 11q0 5 -8.5 9.5t-24 8.5t-17.5 5t-25 10.5t-33 9.5t-18 -14t-18 -41t-16 -39
q-37 -72 -75 -115t-99 -67q-22 -8 -38 -8q-27 0 -43 18.5t-16 52.5q0 13 7 36t7 33t-14.5 17t-14.5 20q0 5 3 11t9 12t10.5 10t12 10t9.5 8q65 56 108 88q35 23 50 23q16 0 16 -15q0 -5 -3.5 -11.5t-10.5 -13.5l-12 -12t-14 -12t-10 -8q-34 -30 -54.5 -57t-34.5 -68
q-15 -42 -15 -69q0 -26 22 -26q21 0 49 19q40 24 67.5 64t57.5 102q24 50 24 66q0 10 -7 19t-21 19.5l-18 13.5q-49 44 -91 115t-42 132q0 42 22 68.5t59 26.5q58 0 104 -54q63 -73 63 -194q0 -16 -5 -49.5t-5 -48.5q0 -25 62.5 -43t112.5 -18q6 0 29.5 7.5t36.5 7.5
t19.5 -4t7.5 -9t1 -14q0 -7 -17.5 -14t-42 -14.5t-34.5 -13.5q-37 -22 -72.5 -72t-35.5 -94q0 -24 23 -24q26 0 73 35q84 63 131.5 180.5t47.5 238.5q0 51 -10 96t-30.5 83.5t-57 60.5t-85.5 22q-77 0 -120 -34t-66 -34q-7 0 -13 5.5t-6 13.5q0 7 5 14.5t14.5 14t17.5 11.5
t19 11t13 7q58 33 133 33zM177 638q-37 0 -37 -45q0 -11 1 -17q8 -63 60 -139t75 -76q20 0 20 74q0 72 -34.5 137.5t-84.5 65.5z" />
    <glyph glyph-name="a073_a073.liga" unicode="&#x437;&#x437;" horiz-adv-x="738" 
d="M88 78q-10 24 5.5 61.5t39 69t44.5 61t21 39.5q0 7 -7 7q-15 0 -50 -35q-99 -104 -123 -125q-12 -10 -24 -6.5t-13 14t10 21.5q11 10 67.5 67.5t105 96.5t78.5 39q25 0 25 -28q0 -32 -55.5 -105.5t-66.5 -95.5q-10 -20 -10 -30q0 -8 7 -8q13 0 76 47q186 128 284 181
q72 40 110 40q28 0 28 -27q0 -21 -26 -57q-72 -103 -86 -126q-28 -44 -28 -59q0 -16 17 -16q20 0 59.5 19.5t64.5 19.5q43 0 43 -58q0 -27 -12 -59t-24 -52t-34 -53q-98 -147 -210 -202q-98 -49 -157 -49q-69 0 -69 71q0 31 41.5 79.5t80.5 76.5q105 74 149 74q27 0 27 -21
q0 -14 -11.5 -22t-35.5 -14t-27 -7q-106 -42 -170 -130q-16 -27 -16 -36q0 -23 31 -23q123 0 271 159q39 43 80 104t41 96q0 17 -15 17q-17 0 -59.5 -18t-70.5 -18q-19 0 -32 11t-13 28q0 25 12 54t22 45t36 51.5t30 40.5q11 13 14 26q1 7 -5 7q-16 0 -36 -7t-44 -20.5
t-41.5 -24.5t-43 -28t-33.5 -22q-31 -20 -138 -96q-1 -1 -9 -6t-11.5 -8t-10 -8t-9 -9.5t-2.5 -8.5q0 -8 19 -16t37.5 -23t18.5 -39q0 -39 -35 -100q-56 -95 -152 -162q-72 -49 -125 -49q-44 0 -73.5 22t-29.5 63q0 34 21 72t37 55t52 53q4 4 68 60q15 13 30 24.5t23 18.5
t17 16zM136 43q-17 -3 -36 -14q-81 -53 -149 -124t-68 -121q0 -39 52 -39q74 0 141 60t102 140q22 49 22 55q0 16 -24.5 29.5t-39.5 13.5z" />
    <glyph glyph-name="a075_a069.liga" unicode="&#x439;&#x434;" horiz-adv-x="948" 
d="M389 230q-11 -5 -23 -16t-27 -29t-20 -23q-71 -76 -120 -114q-5 -4 -19 -16t-22 -17.5t-22 -11.5t-28 -6q-24 0 -37.5 17.5t-13.5 45.5q0 29 8.5 57.5t31 75.5t27.5 58q8 19 -36 -24q-27 -26 -58 -60q-3 -4 -9 -9t-16.5 -9.5t-16.5 4.5q-5 5 -6 11t0.5 10.5t5.5 9.5
t7 7.5t7.5 6t5.5 4.5q70 65 141 149q1 1 10.5 13t15.5 19t16 14t18 7q22 0 22 -29q0 -25 -18 -65q-10 -22 -37.5 -75t-42.5 -87q-26 -58 -23 -87q2 -23 36 -1t67 52q69 63 166 176q2 2 10.5 12.5t15 17.5t15.5 15.5t18.5 13t18.5 4.5q25 0 25 -28q0 -19 -13 -47
q-80 -165 -89 -216q-5 -28 60 14q14 8 21 14q30 24 56 43.5t43 33t41 35.5q13 11 28 30.5t24 27.5q20 18 66 44q37 20 58 20t21 -19q0 -14 -14 -27t-38 -26l-25 -14q-3 -2 -21 -14.5t-25.5 -18.5t-18.5 -16t-17 -19q-33 -48 -35 -106q0 -24 25 -24q33 0 72 32
q76 65 127.5 177.5t51.5 226.5q0 65 -17 119.5t-59.5 92.5t-105.5 38q-64 0 -106 -22q-6 -3 -19.5 -12t-24 -14t-17.5 -5q-21 0 -21 22q0 24 36 42.5t76.5 26.5t70.5 8q112 0 175 -83t63 -195q0 -129 -64.5 -267.5t-163.5 -198.5q-55 -34 -92 -34q-19 0 -36 13t-17 39
q0 4 0.5 15t0.5 16q0 26 -12 26q-5 0 -12.5 -4t-19 -12.5t-21 -16t-25.5 -20t-26 -20.5q-48 -38 -68 -38q-47 0 -47 52q0 36 21 86q4 11 14 32t17 38.5t9 31.5zM418 528q0 -55 -28 -55q-5 0 -8 1t-5.5 2t-4 3.5t-2 5t-1 8t-1 10t-1 13t-0.5 14.5q-5 70 -45 115t-106 45
q-43 0 -85 -20q-4 -2 -14.5 -10t-21 -13.5t-18.5 -5.5q-6 0 -11.5 5t-5.5 13q0 27 43.5 45.5t79.5 23.5q22 2 32 2q92 0 147.5 -56.5t55.5 -145.5z" />
    <glyph glyph-name="a083_a084.liga" unicode="&#x441;&#x442;" horiz-adv-x="1109" 
d="M1020 517q0 -4 -3.5 -8.5t-9.5 -8.5t-12.5 -7.5t-16 -7.5t-15.5 -6.5t-15 -5.5t-11 -4q-181 -69 -315 -69q-112 0 -112 40q0 25 25 25q12 0 42 -7.5t44 -7.5q51 0 111.5 10.5t88 17.5t96.5 27q9 3 27 9.5t32 10.5t25 4q19 0 19 -12zM231 360q55 0 55 -62
q0 -24 -11.5 -39.5t-34.5 -15.5q-25 0 -25 19q0 8 8 20t8 18q0 17 -22 17q-52 0 -117.5 -59.5t-65.5 -139.5q0 -69 62 -69q57 0 115 36q79 50 164 148q3 4 19.5 26.5t29.5 33.5t29 11q37 0 37 -49q0 -22 -6.5 -46.5t-16.5 -52.5t-13 -38q-2 -8 5 -8q10 0 33.5 24t54 60
t38.5 45q6 6 24 25t25.5 26t23 21.5t25 20.5t23.5 14t27 11t27 3q40 0 40 -45q0 -36 -15 -68q-20 -46 -20 -49q0 -4 4 -4q3 0 7.5 4t12 11.5t12.5 11.5q15 12 57.5 54t77.5 62.5t77 20.5q52 0 52 -44q0 -19 -9 -39.5t-19.5 -34.5t-30.5 -38t-29 -37q-2 -3 -12 -16t-17 -23.5
l-16 -24t-14 -24.5t-5 -18q0 -9 10 -9q45 0 182 131q17 16 26.5 0t-3.5 -30q-57 -59 -125.5 -109.5t-111.5 -50.5q-16 0 -29.5 12.5t-13.5 34.5q0 11 4.5 25t9 24.5t14.5 26t14.5 22t16.5 22.5l12 15q5 7 32 40.5t42 55.5t15 32q0 9 -14 9q-12 0 -25.5 -4.5t-28.5 -14.5
t-27.5 -19t-29 -25t-26 -25t-26 -26t-22.5 -23q-50 -50 -120 -138q-2 -2 -7 -9t-8 -10.5t-8 -8.5t-11 -7.5t-12 -2.5q-21 0 -21 25q0 20 15 53q15 34 52 92.5t52 93.5q8 19 8 33q0 11 -11 11q-24 0 -55 -25q-12 -9 -24 -21t-28 -29t-24 -25q-31 -31 -92 -97t-98 -103
q-2 -2 -8 -8.5t-9.5 -10t-9.5 -7t-11 -3.5q-19 0 -19 19q0 4 13 40q60 145 60 171q0 9 -5 9q-9 0 -19 -13q-108 -124 -228 -179q-59 -27 -103 -27q-43 0 -70.5 32.5t-27.5 82.5q0 101 84 175t175 74z" />
    <glyph glyph-name="a084_a084.liga" unicode="&#x442;&#x442;" horiz-adv-x="1589" 
d="M452 189q8 0 17.5 6t16 12t16 15.5l12.5 12.5q8 7 28.5 27t36.5 33.5t35 25.5q33 18 53 18q15 0 24.5 -11t9.5 -29q0 -36 -35 -108q-43 -94 -43 -130q0 -14 10 -14q5 0 12.5 3t18 10t19.5 13.5t24.5 19.5t25 21t29 25t28.5 25q30 26 59.5 62.5t47 57t31.5 20.5
q37 0 37 -49q0 -22 -6.5 -46.5t-16.5 -52.5t-13 -38q-2 -8 5 -8q10 0 33.5 24t54 60t38.5 45q6 6 24 25t25.5 26t23 21.5t25 20.5t23.5 14t27 11t27 3q40 0 40 -45q0 -36 -15 -68q-20 -46 -20 -49q0 -4 4 -4q3 0 7.5 4t12 11.5t12.5 11.5q15 12 57.5 54t77.5 62.5t77 20.5
q52 0 52 -44q0 -19 -9 -39.5t-19.5 -34.5t-30.5 -38t-29 -37q-2 -3 -12 -16t-17 -23.5l-16 -24t-14 -24.5t-5 -18q0 -9 10 -9q45 0 182 131q17 16 26.5 0t-3.5 -30q-57 -59 -125.5 -109.5t-111.5 -50.5q-16 0 -29.5 12.5t-13.5 34.5q0 11 4.5 25t9 24.5t14.5 26t14.5 22
t16.5 22.5l12 15q5 7 32 40.5t42 55.5t15 32q0 9 -14 9q-12 0 -25.5 -4.5t-28.5 -14.5t-27.5 -19t-29 -25t-26 -25t-26 -26t-22.5 -23q-50 -50 -120 -138q-1 -1 -8.5 -11.5t-11 -14t-11 -8t-15.5 -4.5q-21 0 -21 25q0 20 15 53q15 34 52 92.5t52 93.5q8 19 8 33q0 11 -11 11
q-24 0 -55 -25q-12 -9 -24 -21t-28 -29t-24 -25q-31 -31 -92 -97t-98 -103q-2 -2 -8 -8.5t-9.5 -10t-9.5 -7t-11 -3.5q-19 0 -19 19q0 4 13 40q60 145 60 171q0 9 -5 9q-9 0 -19 -13q-131 -131 -214 -185q-40 -27 -63 -27q-19 0 -31.5 14.5t-12.5 35.5q0 14 4.5 33t9 31
t13.5 33t10 24q4 10 17 36.5t19 44.5t6 37q-17 -1 -35.5 -11.5t-26 -17t-27.5 -24.5q-41 -38 -137 -147q-1 -1 -15.5 -23t-27.5 -34t-25 -12q-19 0 -19 21q0 18 12 42q1 3 18.5 36t23.5 46t18 40t16.5 46t4.5 34q0 32 -21 32q-31 0 -80 -43q-110 -97 -154 -214
q-15 -39 -34 -39q-24 0 -24 24q0 11 13 45q12 27 41 75.5t43 87.5q11 35 11 61q0 29 -15 29t-41.5 -26t-69.5 -74t-74 -77q-10 -9 -20 -5t-11.5 13.5t6.5 19.5q7 7 60 67.5t94 94t74 33.5q47 0 47 -77q0 -21 -5 -46q5 4 37 35.5t64 51t64 19.5q51 0 51 -56q0 -37 -26 -117z
M1503 517q0 -4 -3.5 -8.5t-9.5 -8.5t-12.5 -7.5t-16 -7.5t-15.5 -6.5t-15 -5.5t-11 -4q-189 -70 -312 -70q-11 0 -24.5 1t-37 4.5t-38.5 12.5t-15 23q0 25 25 25q12 0 42 -7.5t44 -7.5q164 0 296 55q59 24 84 24q19 0 19 -12zM771 454q0 -20 -36 -20q-24 0 -79.5 7.5
t-92.5 7.5q-83 0 -195 -15q-17 -2 -33 -5t-23.5 -4.5t-14 -2t-9 0.5t-4.5 4q-10 18 30 31q10 3 47 11q120 25 271 25q25 0 75 -2q18 -1 29 -2.5t23 -10.5t12 -25z" />
    <glyph glyph-name="a089_a089.liga" unicode="&#x447;&#x447;" horiz-adv-x="745" 
d="M759 152q-13 -11 -81 -74.5t-112 -93.5t-76 -30q-68 0 -68 51q0 67 100 160q26 23 26 33q0 7 -6 14.5t-14.5 15t-11.5 11.5q-4 5 -11.5 25t-16 34.5t-17.5 14.5q-6 0 -9 -9.5t-5 -26t-4 -24.5q-21 -70 -76.5 -128.5t-122.5 -97.5q-53 -31 -97 -31q-53 0 -53 62
q0 28 20 64t43.5 63t44 49.5t20.5 26.5q1 10 -12.5 17t-19.5 15q-7 10 -18 38t-19.5 49t-14.5 21q-11 0 -19.5 -25t-16 -60t-32 -80.5t-60.5 -77.5q-22 -19 -34 0q-11 16 2 25q18 12 49.5 64.5t41.5 115.5q8 58 23.5 84.5t49.5 26.5q22 0 37 -27.5t22 -60t22.5 -60
t37.5 -27.5q6 0 28.5 9.5t32.5 9.5q18 0 16 -18q0 -11 -12 -21.5t-31 -22t-22 -13.5q-47 -35 -86.5 -87t-39.5 -92q0 -20 22 -20q28 0 55 15q59 30 123 104t64 124q0 11 -1.5 33.5t-1.5 31.5q0 17 10 26t24 9q17 0 35.5 -10.5t26.5 -21.5q6 -7 17.5 -39t25 -56.5t28.5 -24.5
q4 0 23 7.5t28 7.5q16 0 16 -21q0 -8 -6.5 -16t-12.5 -11.5t-18.5 -10t-13.5 -6.5q-34 -18 -81.5 -77t-47.5 -91q0 -23 28 -23q22 0 62 31t101 90.5t67 64.5q11 10 22.5 6t13.5 -14t-7 -20z" />
    <glyph glyph-name="a097_a069.liga" unicode="&#x44f;&#x434;" horiz-adv-x="916" 
d="M282 406q35 0 52.5 -24.5t11.5 -52.5q-12 -56 -51 -56q-6 0 -10.5 4t-4.5 13.5t8 22.5q13 18 10 36.5t-28 18.5q-29 0 -82 -42.5t-53 -91.5q0 -22 13 -30.5t29 -7t34.5 0t26.5 -10.5q16 -18 -13 -65t-85.5 -90t-107.5 -47q-43 -4 -65.5 23t-22.5 71q0 6 4.5 25t18.5 44.5
t34 32.5q11 4 19.5 -5t4.5 -22q-2 -8 -16.5 -31.5t-16.5 -45.5q-3 -26 9.5 -39.5t31.5 -9.5q41 8 86 42t61 87q2 6 -13 6.5t-35 0.5t-36.5 14t-16.5 44q0 59 71 122t132 63zM676 713q-124 4 -224 -126q-29 -42 -51 -31q-12 8 -11.5 21t12.5 31.5t21.5 30.5t15.5 18
q49 47 103.5 75t129.5 26q116 -3 174 -80.5t58 -194.5q0 -102 -43.5 -215.5t-120 -194.5t-157.5 -81q-27 0 -40.5 17t-14 42t5.5 50.5t16 45.5q4 7 -3 7q-5 -1 -10 -5q-173 -156 -231 -156q-49 0 -49 53q0 30 24.5 89t63.5 116q44 64 72 57q14 -4 14 -24q0 -22 -35 -59
q-26 -28 -55.5 -82.5t-29.5 -83.5q0 -14 14 -14q37 0 115 70q82 75 161 137q37 28 79 57q2 1 9.5 5.5t13 7.5t14 7.5t15 6t13 2.5t11.5 -1.5t7 -8.5q5 -12 0 -24t-18.5 -21.5t-25 -15.5t-28.5 -13t-20 -9q-26 -13 -62 -89q-43 -89 -25 -113q4 -6 13 -6q37 0 81 38.5t70.5 78
t42.5 71.5q62 124 62 255q0 86 -33 149q-19 37 -57 59.5t-87 24.5z" />
    <glyph glyph-name="a103_a069.liga" unicode="&#x456;&#x434;" horiz-adv-x="663" 
d="M294 155q-46 -52 -134 -122q-2 -1 -10.5 -8t-13.5 -10.5t-13 -8t-16 -7t-16 -2.5q-35 0 -35 37q0 14 3 28q6 27 44.5 101.5t47.5 98.5q4 8 -1 11t-17 -9q-19 -15 -63.5 -58.5t-58.5 -54.5q-17 -8 -26.5 6.5t4.5 25.5q28 23 63 58t37 36q6 6 24.5 23.5t30.5 28t30.5 20.5
t35.5 10q22 0 22 -23q0 -26 -26 -71q-38 -68 -70 -132q-1 -3 -6.5 -13t-8 -16t-6.5 -16.5t-3 -14.5t3 -10q9 -9 41 17q4 3 6 5q32 26 81 76t96 93t94 69q31 17 54 17q25 0 25 -24q0 -12 -12 -24t-24 -18.5t-31.5 -15.5t-22.5 -11q-33 -17 -62 -74.5t-29 -98.5q0 -33 22 -33
q29 0 59 20.5t55 53.5t41.5 59t28.5 51q62 126 62 254q0 88 -33 150q-20 38 -57.5 61t-86.5 23q-132 0 -219 -117q-30 -42 -49 -42q-7 0 -12.5 6t-5.5 14q0 18 18 44t31 39q43 42 104.5 70.5t128.5 28.5q115 0 174 -78t59 -195q0 -101 -43.5 -214.5t-118.5 -193.5t-154 -80
q-56 0 -56 67q0 47 22 89q3 5 1 5.5t-8 -1.5zM285 552q22 0 22 -26q0 -19 -19 -52.5t-36 -33.5q-12 0 -12 10q0 4 4.5 22t4.5 33v10q0 18 11 27.5t25 9.5z" />
    <glyph glyph-name="a103_a104.liga" unicode="&#x456;&#x457;" horiz-adv-x="548" 
d="M254 564q23 0 23 -28q0 -18 -18.5 -51.5t-34.5 -33.5q-12 0 -12 9q0 3 4 20.5t4 31.5q0 2 -0.5 8t-0.5 10q0 14 11 24t24 10zM589 574q14 0 18.5 -6t4.5 -22t-17 -42t-31 -26q-15 0 -15 38q0 58 40 58zM454 553q18 0 18 -23q0 -19 -13.5 -46t-31.5 -27q-5 0 -9 4.5
t-4 9.5q0 2 1 7t1.5 14.5t0.5 22.5q0 16 10.5 27t26.5 11zM11 151q-17 -8 -26.5 6.5t4.5 25.5q28 23 63 58t37 36q10 9 32 29t30.5 27t23 15t27.5 10q2 0 4.5 0.5t3.5 0.5q22 0 22 -23q0 -26 -26 -71q-38 -68 -70 -132q-1 -3 -8 -17t-11.5 -25t-4.5 -19q0 -11 9 -11
q13 0 41 24q44 34 108 102t111 108.5t83 40.5q33 0 33 -29q0 -31 -35 -85q-18 -28 -53 -89q-19 -35 -19 -48q0 -11 10 -11q13 0 38 20q81 69 99 87q9 9 19 4.5t12 -15t-6 -19.5q-99 -88 -133 -115q-33 -26 -63 -26q-35 0 -35 38q0 41 37 107q9 18 50 85q8 12 8 21q0 7 -6 7
q-9 0 -20 -10q-24 -19 -69 -67t-82.5 -88.5t-82 -73t-74.5 -32.5q-16 0 -26 9.5t-10 27.5q0 32 29 94q8 16 22.5 44t25.5 50.5t18 39.5q4 12 -3 12q-5 0 -15 -10q-9 -8 -56.5 -53t-65.5 -60z" />
    <glyph glyph-name="a104_a069.liga" unicode="&#x457;&#x434;" horiz-adv-x="663" 
d="M294 155q-46 -52 -134 -122q-2 -1 -10.5 -8t-13.5 -10.5t-13 -8t-16 -7t-16 -2.5q-35 0 -35 42q0 8 1 16.5t4 17.5t5.5 15.5t7.5 17.5t7.5 16t9 17.5t8.5 16.5q45 87 52 106q4 12 -3 12q-5 0 -15 -10q-9 -8 -56.5 -53t-65.5 -60q-17 -8 -26.5 6.5t4.5 25.5q28 23 63 58
t37 36q6 6 24.5 23.5t30.5 28t30.5 20.5t35.5 10q22 0 22 -23q0 -26 -26 -71q-38 -68 -70 -132q-1 -3 -8 -17t-11.5 -25t-4.5 -19q0 -12 11 -12q8 0 39 25q32 26 81 76t96 93t94 69q31 17 54 17q25 0 25 -24q0 -12 -12 -24t-24 -18.5t-31.5 -15.5t-22.5 -11
q-33 -17 -62 -74.5t-29 -98.5q0 -33 22 -33q29 0 59 20.5t55 53.5t41.5 59t28.5 51q62 126 62 254q0 88 -33 150q-20 38 -57.5 61t-86.5 23q-76 0 -143.5 -33.5t-102.5 -83.5q-23 -32 -39 -32q-9 0 -15.5 6.5t-6.5 15.5q0 31 43 71q41 39 116 69t144 30q115 0 174 -78
t59 -195q0 -101 -43.5 -214.5t-118.5 -193.5t-154 -80q-56 0 -56 67q0 47 22 89q3 5 1 5.5t-8 -1.5zM325 533q31 0 31 -33q0 -17 -16.5 -44t-34.5 -27q-20 0 -20 67q0 16 12 26.5t28 10.5zM206 514q31 0 31 -36q0 -16 -16 -33t-32 -17q-21 0 -21 51q0 15 11 25t27 10z" />
    <glyph glyph-name="a104_a104.liga" unicode="&#x457;&#x457;" horiz-adv-x="548" 
d="M11 151q-17 -8 -26.5 6.5t4.5 25.5q28 23 63 58t37 36q6 6 24.5 23.5t30.5 28t30.5 20.5t35.5 10q23 0 23 -22q0 -25 -27 -72q-38 -68 -70 -132q-1 -3 -8 -17t-11.5 -25t-4.5 -19q0 -11 9 -11q13 0 41 24q44 34 108 102t111 108.5t83 40.5q33 0 33 -29q0 -31 -35 -85
q-18 -28 -53 -89q-19 -35 -19 -48q0 -11 10 -11q13 0 38 20q81 69 99 87q9 9 19 4.5t12 -15t-6 -19.5q-99 -88 -133 -115q-33 -26 -63 -26q-34 0 -34 40q0 38 35 104q11 21 51 86q8 12 8 21q0 7 -6 7q-9 0 -20 -10q-24 -19 -69 -67t-82.5 -88.5t-82 -73t-74.5 -32.5
q-16 0 -26 9.5t-10 27.5q0 14 3 28q6 27 44.5 101.5t47.5 98.5q4 12 -3 12q-5 0 -15 -10q-9 -8 -56.5 -53t-65.5 -60zM172 557q23 0 23 -28q0 -16 -18.5 -50.5t-35.5 -34.5q-12 0 -12 12q0 4 4 25.5t4 38.5t11 27t24 10zM459 551q14 0 18.5 -6t4.5 -22t-17 -42t-31 -26
q-4 0 -7 2t-4.5 6t-2.5 8.5t-1 11v11v11v9.5q0 15 12.5 26t27.5 11zM321 562q23 0 23 -42q0 -16 -18 -40t-31 -24q-5 0 -9.5 4t-4.5 10l1 18q2 18 2 36q0 16 11 27t26 11zM578 552q14 0 18.5 -6t4.5 -22t-14.5 -40t-28.5 -24q-20 0 -20 55q0 15 12.5 26t27.5 11z" />
    <glyph glyph-name="l_d" unicode="ld" horiz-adv-x="718" 
d="M119 48q26 0 104.5 62t130.5 112q41 51 85 86.5t68 35.5q18 0 18 -19q0 -34 -99 -102q-21 -14 -47.5 -68t-26.5 -89q0 -29 21 -29q54 0 112.5 66.5t81.5 121.5q69 162 69 295q0 108 -50 175t-156 67q-74 0 -144 -40t-111 -93l-7 -9q-6 -8 -8.5 -11t-8.5 -9t-11 -8t-10 -2
q-8 0 -13 6t-5 13q0 18 18 44.5t31 39.5q116 111 263 111q132 0 194.5 -77t62.5 -205q0 -116 -44.5 -239t-120.5 -207t-157 -84q-55 0 -55 69q0 13 4.5 33.5t4.5 25.5t-4 5q-8 0 -18 -10q-50 -50 -102.5 -84t-81.5 -34q-31 0 -47 21t-16 54q0 29 22 113q2 9 -5 9
q-6 0 -13 -8q-9 -10 -19.5 -19.5t-14.5 -13.5q-9 -9 -19.5 -5t-12 14.5t6.5 20.5q35 31 99 101q56 61 105 130t86 115q3 4 15 19t20 25.5t21.5 26.5t24.5 27.5t22 22.5t20 17t15 6q26 0 26 -25q0 -5 -2 -11t-4.5 -10.5t-8.5 -11.5t-9.5 -10t-11.5 -11l-10 -10
q-83 -83 -127.5 -138.5t-92.5 -145.5q-86 -158 -86 -215q0 -34 28 -37z" />
    <glyph glyph-name="quoteright_a104" unicode="&#x2019;&#x457;" horiz-adv-x="304" 
d="M-11 413q62 54 77 74t32 73q-6 8 -6 21q-1 20 15.5 34.5t34.5 15.5q22 0 22 -30q0 -40 -53 -108.5t-109 -109.5q-6 -5 -16 -4t-10 11q-2 12 13 23zM381 592q14 0 18.5 -6t4.5 -22t-17 -42t-31 -26q-4 0 -7 2t-4.5 6t-2.5 8.5t-1 11v11v11v9.5q0 15 12.5 26t27.5 11z
M271 614q19 0 19 -23q0 -20 -14 -47t-33 -27q-5 0 -9.5 5t-4.5 10q0 1 1.5 16.5t1.5 27.5q0 16 11.5 27t27.5 11zM12 150q-17 -8 -26.5 5t6.5 29q189 175 245 175q21 0 21 -22q0 -27 -26 -72q-38 -68 -70 -132q-1 -3 -8 -17t-11.5 -25t-4.5 -19q0 -11 9 -11q13 0 41 24
q28 22 102 96q9 9 20 5.5t13 -14t-8 -21.5q-11 -10 -39.5 -37t-50.5 -47t-39 -34q-2 -1 -10.5 -8t-13.5 -10.5t-13 -8t-16 -7t-16 -2.5q-35 0 -35 37q0 14 3 28q6 27 44 98t47 96q2 4 2 10.5t-6 6.5q-10 0 -32 -14q-17 -11 -41 -31.5t-50.5 -45t-36.5 -32.5z" />
    <glyph glyph-name="t_h" unicode="th" horiz-adv-x="999" 
d="M766 596q0 -28 -45 -103q-28 -48 -90.5 -139t-86.5 -129q-31 -52 -29 -59q1 -3 7 0q11 5 52.5 43.5t53.5 47.5q105 82 163 82q22 0 37.5 -11t15.5 -32q0 -44 -39.5 -116.5t-46.5 -98.5q-4 -14 3 -25t20 -11q60 0 206 136q8 8 18 4.5t12.5 -13t-5.5 -19.5
q-54 -54 -128 -107t-121 -53q-29 0 -46 19.5t-17 54.5q0 16 7.5 38.5t15 37.5t23 43.5t20.5 37.5q24 38 24 55q0 12 -13 12t-49 -18q-42 -24 -85 -59t-70.5 -61t-72.5 -72q-2 -2 -22.5 -25.5t-36 -36.5t-26.5 -13q-16 0 -16 18q0 8 7 26t15.5 34.5t19 37.5l12.5 25
q21 49 50.5 101t49 82.5t63.5 95t60 88.5q15 20 15 31q0 6 -6 6t-17.5 -6.5t-21 -14.5t-19.5 -15.5t-11 -8.5q-54 -41 -99.5 -89t-106 -124.5t-81.5 -101.5q-22 -26 -62 -70t-52 -58q-52 -58 -108 -58q-66 0 -66 88q0 30 9 73q3 14 -13 6q-13 -7 -19 -14q-18 -19 -31 -4
q-12 14 -2 27q2 2 4 3q11 7 31 30q3 3 12 11.5t15 15t13.5 14.5t11.5 14.5t4 11.5q0 11 -19 11q-5 0 -18 -1t-19 -1q-28 0 -28 20q0 15 23.5 19t58.5 6t52 10q7 3 13.5 9t10 10.5t10.5 15.5t11 16q65 94 101 133l4 4q3 4 6.5 7.5t8.5 8t10 8t10.5 6t10.5 2.5q7 0 12.5 -5.5
t5.5 -14.5q0 -20 -67 -88.5t-67 -87.5q0 -10 18 -10q28 0 62 11t49 11q21 0 21 -17q0 -18 -38 -29.5t-87.5 -19t-62.5 -14.5q-29 -16 -60 -106q-20 -60 -20 -102q0 -31 23 -31q13 0 27 5t29 15.5t26.5 20.5t28 27.5t25.5 27.5t26 30t23 27q16 18 103 126t143 160
q44 42 100 83.5t83 41.5q41 0 41 -30z" />
    <glyph glyph-name="T_h" unicode="Th" horiz-adv-x="922" 
d="M396 595q66 -2 119 3q77 7 102 20q8 4 14.5 11t15 18.5t12.5 16.5q9 10 44 42q75 62 128 62q17 0 29 -13t12 -33q0 -39 -33.5 -65.5t-87.5 -48.5q-11 -5 -44 -15t-46 -19q-9 -6 -16.5 -18t-15.5 -30.5t-10 -21.5q-61 -125 -95 -205q-22 -55 -22 -56q0 -3 2 -3q4 0 12 8
q117 111 212 111q30 0 54 -15.5t24 -46.5q0 -13 -3 -25.5t-10.5 -26.5t-12.5 -22.5t-15 -23.5t-12 -19q-29 -47 -34 -56l-7.5 -15t-11.5 -25.5t-5 -20.5t7.5 -13.5t16.5 -5.5q22 0 59 25q63 43 128 110q7 7 16 7q8 0 14 -5t6 -12q0 -8 -7 -15q-69 -69 -96 -90
q-41 -32 -71.5 -47t-64.5 -15q-47 0 -58 30q-4 11 -4 24q0 18 6.5 36t24 47t19.5 33t20 32t30 51.5t12 37.5q0 17 -28 17q-21 0 -49.5 -7.5t-40.5 -14.5q-51 -30 -86 -64q-93 -93 -136 -166q-1 -2 -11.5 -27.5t-22 -39.5t-28.5 -14q-11 0 -19.5 7.5t-8.5 19.5q0 13 9 27
t23 29t18 22q25 39 54 114q23 59 73 166.5t57 123.5q25 55 22 62q-4 10 -39 10q-7 0 -67 -4q-5 0 -25 -0.5t-32 -1t-27 -2.5t-22 -6q-10 -6 -24 -40q-1 -2 -5.5 -10.5t-6.5 -13t-4.5 -12.5t0.5 -10q2 -3 23 -6.5t23 -11.5q1 -3 1 -7q0 -8 -5.5 -14t-11 -9.5t-12.5 -6.5
t-8 -3q-38 -25 -44 -31q-6 -7 -10.5 -17.5t-9 -24t-6.5 -18.5q-3 -8 -16.5 -43t-18 -45.5t-17 -40t-20 -44t-19.5 -37t-24.5 -40.5t-26.5 -36q-18 -24 -46 -39q-19 -13 -39.5 -10t-20.5 24q0 10 6 16t20 12.5t20 11.5q17 11 31.5 28t28.5 42.5t22.5 44t23 52.5t20.5 48
q29 62 29 86q0 11 -15 11q-10 0 -29.5 -3.5t-30.5 -3.5q-53 0 -90.5 23.5t-37.5 66.5q0 119 238 151q7 1 22.5 1.5t27 2.5t20.5 6q6 3 13 10t16 19t13 17q21 24 37 24q6 0 11.5 -5.5t5.5 -13.5t-12 -24t-13 -26zM816 711q0 7 -9 7t-17 -3t-12.5 -6t-13.5 -10.5t-13 -10.5
q-45 -34 -45 -48q0 -5 3 -5q12 0 42 17q14 6 39.5 27t25.5 32zM299 530q0 14 -20 14q-135 0 -194 -68q-16 -19 -16 -37q0 -24 29 -38t69 -14q60 0 82 25q12 13 31 57.5t19 60.5z" />
    <glyph glyph-name="c_t" unicode="ct" horiz-adv-x="708" 
d="M383 338l80 16q22 5 47.5 23t40.5 34q24 25 39.5 43.5t27.5 30.5q10 10 21 10q18 0 18 -16q0 -7 -6 -15q-64 -76 -64 -94q0 -6 14 -6q9 0 51 8.5t54 8.5q22 0 22 -15q0 -11 -11.5 -19t-30.5 -12.5t-36.5 -7t-37 -4.5t-24.5 -3q-29 -6 -39 -20q-39 -51 -78 -125t-39 -110
q0 -20 9 -27.5t27 -7.5q69 0 225 150q10 9 20.5 5.5t13 -13t-4.5 -18.5q-30 -30 -39.5 -39t-47.5 -41.5t-62 -47.5t-59 -30t-64 -15q-30 0 -47 23t-17 58q0 29 13.5 65.5t28 62.5t43.5 73q1 2 4.5 6.5t5.5 8.5t2 8t-4 4q-10 0 -19 -10q-47 -53 -109.5 -112t-143.5 -113.5
t-131 -54.5q-49 0 -75.5 31.5t-26.5 83.5q0 82 78.5 167t164.5 85q27 0 45.5 -12.5t18.5 -36.5q0 -34 -29.5 -68t-64.5 -34q-18 0 -18 15q0 14 31.5 36t31.5 40q0 9 -6.5 13t-11.5 4q-67 0 -128 -69t-61 -140q0 -28 16 -45.5t45 -17.5q92 0 333 239q5 5 5 9q0 5 -9 5
q-6 0 -18.5 -3t-19.5 -3q-13 0 -13 15q0 21 19 24z" />
    <glyph glyph-name="f_f_j" unicode="ffj" horiz-adv-x="1056" 
d="M286 99q-10 -4 -30 -26.5t-45 -55.5t-29 -38q-45 -57 -158.5 -176.5t-139.5 -118.5q-19 0 -19 25q0 34 36 111q67 153 286 500q18 29 18 31q0 1 -4 1q-5 0 -27 -25q-3 -3 -35 -39.5t-67 -75t-55 -57.5q-10 -9 -21 -5.5t-12.5 13.5t8.5 23q234 244 414 459q20 24 37 24
q14 0 14 -16q0 -14 -13 -31q-152 -203 -231 -338q-7 -14 -7 -17q0 -6 6 -6l16 5q15 5 29.5 8.5t26.5 3.5q22 0 35.5 -13t13.5 -36q0 -35 -22 -72q73 50 165 138.5t156 161t124 143.5t61 72q21 24 37 24q14 0 14 -16q0 -14 -13 -31q-134 -180 -243 -365q-14 -23 -3 -23h2
l15 5q16 5 30.5 8.5t26.5 3.5q43 0 43 -46q0 -32 -16 -62q-11 -22 -5 -22q3 0 10 4q63 35 144.5 105t144.5 142q8 9 17 9q19 0 19 -27q0 -8 -1.5 -16t-6 -17.5t-7 -15t-9 -17.5t-8.5 -15q-127 -242 -210 -360q-68 -97 -169.5 -187t-192.5 -117q-4 -1 -13 -4.5t-15 -5.5
t-13.5 -3.5t-12 0t-6.5 6.5q0 4 -0.5 6.5t2.5 6t5 5t7 3.5t7 3t6.5 3t5.5 2q76 30 145 83.5t129.5 129.5t101.5 138t93 150q53 90 53 108q0 3 -2 3q-3 0 -19 -14q-52 -48 -119.5 -98.5t-120.5 -73.5q-12 -6 -27.5 -20.5t-25 -27t-24.5 -33.5t-18 -24q-21 -27 -69 -77
t-111 -101.5t-93 -51.5q-13 0 -13 21q0 39 29 101q21 47 58 112t66.5 112t78.5 123t65 102q17 25 17 39q0 3 -2 3q-6 0 -24 -21q-42 -44 -71 -72.5t-86.5 -74t-133.5 -95.5zM159 177q-37 -48 -111 -176t-102 -193q-20 -43 -20 -50q0 -2 2 -2q3 0 31 26q65 62 144.5 158.5
t97.5 149.5q2 4 -4 7t-15.5 8t-14.5 12q-13 18 -8 60zM599 79q2 4 -1.5 7.5t-11 8.5t-12.5 12q-10 15 -13 64q-1 7 -3 6q-39 -50 -102.5 -153t-92.5 -165q-7 -15 -7 -24q0 -6 6 -6q8 0 34 16q17 11 74.5 72t89.5 103q2 3 10 13t12.5 16t9.5 14.5t7 15.5zM281 214
q0 15 -17 15q-24 0 -43.5 -21.5t-18.5 -47.5q0 -13 14 -17.5t25 1.5q7 3 23.5 28.5t16.5 41.5zM657 229q-24 0 -43.5 -21.5t-18.5 -47.5q0 -13 14 -17.5t25 1.5q9 5 28 36q28 48 -5 49zM1061 597q25 0 25 -28q0 -24 -17.5 -51t-33.5 -27q-12 0 -12 27q0 26 11.5 52.5
t26.5 26.5z" />
    <glyph glyph-name="f_j" unicode="fj" horiz-adv-x="663" 
d="M471 707q14 0 14 -15t-13 -32q-7 -9 -59 -77.5t-74 -99t-60.5 -89.5t-65.5 -110q-7 -12 -7 -19t6 -4q37 17 72 17q22 0 34 -14.5t12 -38.5q0 -31 -13 -55q-7 -14 -7 -19q0 -3 3 -3q4 0 9 4q63 35 144.5 105t144.5 142q7 9 17 9q19 0 19 -27q0 -8 -1.5 -16t-6 -17.5
t-7 -15t-9 -17.5t-8.5 -15q-127 -242 -210 -360q-68 -97 -169.5 -187t-192.5 -117q-45 -14 -48 -14q-13 0 -13 11q0 4 2.5 7.5t7 6.5t8.5 4.5t9.5 3.5t6.5 3q76 30 145.5 83.5t128.5 126.5t102.5 138.5t92.5 152.5q53 93 53 108q0 3 -2 3q-3 0 -19 -14q-52 -48 -119.5 -98.5
t-120.5 -73.5q-12 -6 -27.5 -20.5t-25 -27t-24.5 -33.5t-18 -24q-50 -63 -142 -149t-121 -86q-19 0 -19 25q0 34 36 111q61 138 251 440q16 26 16 30q0 2 -2 2q-5 0 -27 -25q-3 -3 -35 -39.5t-67 -75t-55 -57.5q-10 -9 -21 -5.5t-12.5 13.5t8.5 23q205 214 442 497
q20 24 37 24zM209 88q2 4 -6 7.5t-19.5 9t-16.5 12.5q-9 13 -9 34q0 9 2 21v6l-1 -1q-37 -48 -93 -145.5t-85 -163.5q-19 -43 -19 -50q0 -3 2 -3q5 0 39 29q55 50 115.5 119.5t90.5 124.5zM668 597q25 0 25 -28q0 -24 -17.5 -50.5t-33.5 -27.5q-12 0 -12 27q0 26 11.5 52.5
t26.5 26.5zM281 214q0 15 -17 15q-24 0 -43 -20.5t-19 -48.5q0 -19 24 -19q8 0 15 3t23.5 28.5t16.5 41.5z" />
    <glyph glyph-name="s_p" unicode="cp" horiz-adv-x="912" 
d="M877 374q0 -30 -28 -75q-19 -30 -111 -166q-6 -8 -17.5 -24t-18.5 -25.5t-13 -22t-6 -21.5q0 -11 9 -16.5t9 -9.5q0 -12 -10.5 -19t-23.5 -7q-17 0 -26.5 10t-9.5 27q0 18 3 31.5t15 34t21 33t36 49.5t45 62q3 3 17 22t24 32t19 29.5t9 25.5q0 8 -10 8q-15 0 -52 -20
q-118 -73 -205 -149.5t-145 -174.5q-11 -19 -47.5 -79t-54 -90t-44.5 -80t-47 -94q-16 -34 -24 -70q-1 -2 -2.5 -10.5t-3 -13t-4.5 -11.5t-6 -11t-9 -7t-13 -3q-27 0 -27 26q0 14 22 80q28 76 95 193q38 67 187 303q6 10 21 32.5l25 37.5t23 37t22 41q1 3 7 11.5t10.5 17
t4.5 15.5q0 10 -11 10q-7 0 -17.5 -4.5t-17.5 -8.5t-8 -5q-86 -50 -224 -148q-6 -4 -23.5 -16.5t-24.5 -18t-18 -15.5t-15 -18.5t-4 -17.5q0 -5 1 -14.5t1 -13.5q0 -118 -53 -200q-17 -26 -52 -51t-71 -25q-33 0 -54 22t-21 61q0 89 146 215q33 29 45 41q3 3 3 14t-15 92
q0 3 -3 3q-4 0 -16.5 -10.5t-40.5 -37t-34 -31.5q-13 -12 -22.5 -8t-9.5 15t7 21q7 7 42 42.5t55.5 58t24.5 33.5q11 28 21.5 49t27.5 44.5t39.5 36.5t49.5 13q33 0 33 -37q0 -26 -13.5 -45.5t-47.5 -47t-42 -34.5q-2 -2 -8 -7l-9 -7.5t-6 -8t-3 -10.5q0 -22 10 -60.5
t15 -37.5t15 7.5t21.5 16t15.5 11.5q174 126 241 166q63 37 91 37q35 0 35 -37q0 -24 -13.5 -57.5t-13.5 -40.5q0 -5 5 -5q7 0 18 6.5t28 19.5t19 15q7 5 32.5 23t36 24.5t31 18.5t39.5 22q32 15 59 15q37 0 37 -34zM228 397q0 7 -9 7t-25 -17t-26 -35t-4 -20
q8 -3 34.5 22.5t28.5 35.5q0 1 0.5 3.5t0.5 3.5zM126 67q-27 -12 -63 -49t-51 -57q-38 -52 -38 -92q0 -38 30 -38q50 0 87.5 72t37.5 136q0 16 -3 28z" />
    <glyph glyph-name=".notdef" horiz-adv-x="540" 
d="M512 660q8 -8 8 -31q0 -7 -6 -55q-11 -75 -51.5 -234t-50.5 -264q-6 -76 -14 -84q-12 -12 -96 -12q-132 0 -176 -2q-5 0 -19.5 -2t-22 -2.5t-16.5 2t-14 8.5q-9 12 2 92q14 99 52 262q6 24 20.5 77t22 93t11.5 90q1 10 1 27.5t1 26t4 19t11 15.5t21 6q10 1 30 1
q37 0 105 -10.5t101 -12.5q7 -1 21.5 -1t23.5 -0.5t18 -2.5t13 -6zM472 620q-2 3 -6 4.5t-10.5 2.5t-12 1.5t-14 1t-13.5 0.5q-17 1 -74 9.5t-83 8.5q-19 0 -27 -2l-10.5 -3t-5.5 -5t-2.5 -6t-1 -9.5t-0.5 -12.5q-2 -32 -5.5 -60t-10 -60.5l-9.5 -47.5t-13 -57t-12 -53
q-8 -35 -25.5 -129.5t-30.5 -142.5q-10 -33 -4 -40q5 -6 60 0q36 2 66 2q5 0 41 -2t59.5 -0.5t31.5 8.5q4 4 6.5 16t3.5 33t2 27q11 94 46.5 239t45.5 199q11 62 11 63q0 9 -3 15z" />
    <glyph glyph-name=".null" horiz-adv-x="0" 
 />
    <glyph glyph-name="nonmarkingreturn" horiz-adv-x="333" 
 />
    <glyph glyph-name="NULL" horiz-adv-x="0" 
 />
    <glyph glyph-name="NULL" horiz-adv-x="0" 
 />
    <glyph glyph-name="CR" unicode="&#xd;" horiz-adv-x="350" 
 />
    <glyph glyph-name="space" unicode=" " horiz-adv-x="350" 
 />
    <glyph glyph-name="exclam" unicode="!" horiz-adv-x="320" 
d="M364 679q38 6 22 -48q-4 -11 -14 -37q-7 -16 -24 -55.5t-20.5 -47.5t-15 -35t-16 -36t-15 -30.5t-19.5 -39t-21.5 -41t-29.5 -55.5q-16 -30 -34 -30q-16 1 -9 29q4 12 12 27q26 45 40 77q18 42 33 74t26 59.5t38 103.5q1 3 5 16.5t7.5 22.5t9 20.5t12 18t13.5 7.5z
M107 85q29 -8 6 -45q-20 -31 -45 -38q-21 -6 -21 21v5q2 32 18 48t42 9z" />
    <glyph glyph-name="quotedbl" unicode="&#x22;" horiz-adv-x="194" 
d="M260 647q13 0 13 -14t-20 -54q-25 -48 -62 -114q-2 -3 -7.5 -13.5t-9 -16t-10 -11t-12.5 -5.5q-17 0 -17 16q0 13 9.5 33.5t23 43t13.5 23.5q8 15 17 36.5t16.5 36t16.5 25.5q11 14 29 14zM137 644q15 0 15 -18q0 -19 -11 -45q-6 -17 -20.5 -50.5t-19.5 -49.5
q-13 -40 -30 -40t-17 19q0 8 3.5 20.5t7 22t8.5 21t6 13.5q4 10 18 52q1 3 5 15.5t6.5 19.5t10.5 13.5t18 6.5z" />
    <glyph glyph-name="numbersign" unicode="#" horiz-adv-x="564" 
d="M558 673q0 -16 -22 -57q-31 -59 -50 -94q-22 -44 -21 -50q1 -5 4.5 -8t9.5 -4t10.5 -1t13 0.5t12.5 0.5q25 0 26 -16t-19 -21.5t-47.5 -6t-35.5 -4.5q-10 -5 -19.5 -21.5t-21.5 -44.5t-15 -34q-15 -33 -13 -38q4 -12 32 -12q11 0 36.5 2.5t37.5 2.5q36 0 36 -20
q0 -13 -11.5 -16.5t-41.5 -4.5h-10q-90 -3 -107 -14q-5 -4 -10 -12t-7.5 -14t-8 -19t-7.5 -17q-53 -115 -59 -130q-1 -2 -3 -8.5t-3 -9.5t-3 -8.5t-3.5 -8.5t-4 -7.5t-5.5 -6.5t-6.5 -3.5t-7.5 -1.5q-14 0 -14 18q0 5 9 38q13 35 48 120q1 2 9 16.5t12 26t1 19.5q-3 9 -32 9
q-57 0 -79 -13q-8 -5 -16.5 -19t-14.5 -27.5t-15 -36.5t-13 -33q-2 -4 -7.5 -18.5t-11 -28t-13 -28t-16 -23t-16.5 -8.5q-17 0 -17 20q0 29 30 84q3 9 11 25.5t13 28.5q20 33 20 49q0 14 -22 14q-6 0 -21 -1.5t-21 -1.5q-21 0 -21 14q0 18 22 24t51 8t38 8q8 5 13.5 15.5
t12.5 29t8 21.5q2 3 8 13.5t10 18t7.5 17t3.5 15.5q0 16 -23 16q-9 0 -33 -3t-35 -3q-27 0 -27 14q0 8 4 13.5t13 8.5t14.5 4t18 1.5t14.5 0.5q70 7 78 12q9 6 18.5 24t20 47t12.5 33q1 2 8.5 20t14 31t17.5 25.5t21 12.5q17 0 17 -18q0 -15 -29 -73q-2 -5 -14 -27
t-18.5 -38t-2.5 -23q6 -10 38 -10q56 0 73 10q5 2 9.5 5.5t8.5 10.5l6 10.5t7 14.5t6 13q29 56 59 118q1 2 4.5 10t5.5 11.5l6 10.5t7.5 10.5t8.5 7.5t11 6t12 2q16 0 16 -15zM368 396q0 14 -40 14q-55 0 -74 -12q-8 -5 -13.5 -13.5t-12.5 -27.5t-9 -23q-26 -55 -26 -65
q0 -17 39 -17q54 0 73 12q7 4 15.5 18.5t14 26.5t13.5 32t9 23q11 22 11 32z" />
    <glyph glyph-name="dollar" unicode="$" horiz-adv-x="389" 
d="M383 765q-4 1 -15.5 -6t-15.5 -7q-7 0 -7 10q0 11 15 28t35.5 35.5t26.5 26.5q4 5 13 22.5t18.5 27.5t22.5 10q14 0 14 -16q0 -11 -21 -61q-8 -19 -30.5 -56.5t-37.5 -67.5t-15 -46q0 -10 20 -19t39.5 -26.5t19.5 -47.5q0 -39 -28.5 -70t-63.5 -31q-13 0 -25 8.5
t-12 22.5q0 8 5.5 16.5t17.5 8.5q4 0 8.5 -3.5t16.5 -3.5q14 0 25.5 18.5t11.5 37.5q0 14 -13 26t-31 12q-4 0 -7.5 -1t-7 -3.5t-6 -5t-5.5 -7t-5 -8t-4.5 -9.5t-4 -9.5t-4.5 -11t-4 -10.5q-12 -29 -32.5 -75.5t-29.5 -68.5q-3 -6 -9 -18.5t-9.5 -20.5t-6.5 -18.5t-3 -19.5
q0 -16 9.5 -46t10.5 -35q10 -47 10 -82q0 -109 -94 -141q-5 -2 -20 -2.5t-24 -6.5t-14 -26t-9 -59t-5 -43q-2 -12 10 -17t12 -14q0 -23 -32 -23q-33 0 -33 52q0 34 10 69.5t10 50.5q0 13 -10 22t-25 17t-20 13q-32 32 -32 95q0 36 28 87t70 86q7 7 15 7q13 0 13 -13
q0 -5 -5 -12q-4 -6 -19.5 -27t-19.5 -27t-14 -23t-13 -26t-6.5 -23.5t-3.5 -28.5q0 -12 4.5 -29.5t18.5 -35t33 -16.5q2 0 23.5 57.5t42.5 121t21 76.5q0 20 -10.5 62t-10.5 64q0 63 30 111.5t81 73.5q6 3 25 8t27 10q14 9 34 49t26 61zM297 595q-9 0 -20 -7
q-71 -46 -71 -131q0 -19 2.5 -34.5t9.5 -14.5q5 0 23 40t38 87t22 51q4 9 -4 9zM210 239q-10 0 -41 -88q-15 -43 -26 -82q0 -2 2.5 -3.5t6 -1.5t7.5 1q28 8 47 37.5t19 76.5q0 60 -15 60z" />
    <glyph glyph-name="percent" unicode="%" horiz-adv-x="556" 
d="M508 650q17 0 17 -22q0 -33 -18.5 -64.5t-51.5 -67t-42 -49.5q-79 -115 -121.5 -174t-116.5 -150t-143 -160q-36 -36 -52 -36q-9 0 -9 14q0 17 31 48q76 76 216 260q6 9 41 52t51 67q15 21 15 26q0 3 -4 3q-5 0 -7 -2q-28 -26 -77.5 -49t-85.5 -23q-30 0 -50.5 23
t-20.5 61q0 58 35.5 114.5t74.5 83.5q29 20 61 20q24 0 41.5 -15t17.5 -46q0 -24 -16 -60.5t-37 -36.5q-20 0 -20 21q0 19 15.5 44t15.5 34q0 18 -20 18q-33 0 -75 -58.5t-42 -107.5q0 -50 42 -50q51 0 128.5 61t120.5 117q5 6 20.5 35.5t32 49t33.5 19.5zM388 252
q17 7 36 7q70 0 70 -68q0 -76 -56.5 -139t-100.5 -63q-34 0 -54 24.5t-20 65.5q0 66 38 122t73 56q7 0 14 -5zM349 197q-17 -20 -27.5 -51.5t-10.5 -57.5q0 -47 31 -47q39 0 76.5 44.5t37.5 100.5q0 17 -9.5 25t-20.5 8q-13 -1 -27 -22.5t-29 -21.5q-17 0 -21 22z" />
    <glyph glyph-name="ampersand" unicode="&#x26;" horiz-adv-x="637" 
d="M366 618q64 0 64 -67q0 -39 -19 -74t-46 -59t-54 -44t-46.5 -37.5t-20.5 -31.5q0 -9 3.5 -30t3.5 -24q7 -54 20.5 -102t29.5 -48q14 0 74 60q47 46 121 152q3 4 10.5 15.5t12.5 19.5t13 17t15.5 13.5t15.5 4.5q22 0 22 -20q0 -17 -21 -49q-42 -60 -87 -107.5t-117 -113.5
q-2 -2 -9.5 -8.5t-11.5 -10t-8 -9.5t-4 -11q0 -20 20.5 -31t41.5 -11q30 0 58.5 15t46 33.5t35 33.5t27.5 15q14 0 14 -17q0 -20 -48 -61q-70 -64 -146 -64q-44 0 -62 10q-7 3 -23 19t-29 16q-14 0 -43 -17t-31 -18q-62 -25 -107 -25q-61 0 -92.5 39.5t-31.5 97.5
q0 30 10.5 57t22.5 44.5t36.5 38t37 29t40.5 25.5q4 3 25.5 14t32.5 18t22 22.5t11 32.5q0 6 -1 19t-1 18q0 85 43.5 146t129.5 65zM351 573q-44 0 -77 -50q-31 -60 -31 -115q0 -24 10 -24q7 0 15 5t13.5 10.5t14.5 15.5t12 13q21 19 32 30t24 36t13 52t-26 27zM176 271
q-164 -71 -164 -181q0 -89 89 -89q30 0 84 23.5t55 39.5q1 9 -16 59q-8 22 -15.5 61t-13 64t-9.5 25q-3 0 -5.5 -1t-4.5 -1z" />
    <glyph glyph-name="quotesingle" unicode="'" horiz-adv-x="124" 
d="M185 649q14 0 14 -15q0 -17 -18 -53q-12 -26 -30 -58.5t-23 -42.5q-2 -3 -5.5 -11t-6.5 -13.5t-7 -11.5t-9 -9t-10 -3q-17 0 -17 16q0 11 7.5 28.5t18.5 36.5t12 21q7 14 15.5 36.5t15.5 37t15 26.5q11 15 28 15z" />
    <glyph glyph-name="parenleft" unicode="(" horiz-adv-x="273" 
d="M424 744q15 0 15 -16q0 -11 -14.5 -28t-35 -36t-24.5 -25q-257 -317 -258 -687q0 -16 1.5 -48t1.5 -45q0 -18 -4 -25t-15 -7q-17 0 -25 55.5t-8 101.5q0 174 74 352t188 313q25 28 59.5 61.5t44.5 33.5z" />
    <glyph glyph-name="parenright" unicode=")" horiz-adv-x="273" 
d="M228 744q7 0 12 -8t8 -23t4.5 -30t2 -36.5t1 -35t0 -32t-0.5 -21.5q-1 -161 -73 -332.5t-185 -303.5l-9 -12q-10 -11 -15 -16t-15.5 -17t-17.5 -18.5t-16.5 -14.5t-16.5 -11.5t-13 -3.5q-10 0 -13 11q-2 7 13.5 25t37.5 40t26 28q251 310 252 686q0 15 -1.5 48t-1.5 45
q0 32 21 32z" />
    <glyph glyph-name="asterisk" unicode="*" horiz-adv-x="438" 
d="M491 619q0 -6 -3 -10t-9 -7t-11 -5t-14.5 -4.5t-14.5 -4.5q-80 -29 -117 -37l-22 -1q-21 -2 -36.5 -6.5t-15.5 -12.5q0 -9 9 -25.5t21.5 -35.5t13.5 -20t11.5 -16t18.5 -29.5t8 -24.5q0 -14 -16 -14q-20 0 -50 52q0 1 -5 12t-10.5 23.5t-12 26t-12.5 22.5t-9 9
q-6 0 -14 -14t-18.5 -39.5t-12.5 -29.5t-8 -25t-13.5 -33t-19.5 -12q-19 0 -19 20q0 10 4.5 24t11.5 29.5t7 16.5q2 3 10 18.5t13.5 27t11 24t5.5 18.5q-1 4 -5 7.5t-10.5 6.5t-13 5.5t-14.5 5t-11 3.5q-46 18 -66 18q-30 -5 -35 -5q-22 0 -22 17q0 15 18.5 22t40.5 7
q19 0 62 -12q35 -14 42 -14q11 0 11 11q0 6 -4 13.5t-11 16.5t-8 11q-21 33 -21 45q0 7 6 12t14 5q4 0 7.5 -1.5t7 -4t6 -5t6 -7.5t5 -7.5t4.5 -8t4 -6.5q3 -5 9 -19t12 -22t13 -8q14 0 38 50q2 5 6 25.5t11.5 33t22.5 12.5q16 0 16 -22q0 -31 -15 -61q-2 -4 -10 -19
t-13 -26t-5 -19q0 -12 18 -12q10 0 45 10q22 5 36.5 10t34 13t32.5 13q19 7 34 7q20 0 20 -18z" />
    <glyph glyph-name="plus" unicode="+" horiz-adv-x="500" 
d="M315 485q34 4 11 -79q-1 -4 -1 -5q0 -2 -5 -14t-8 -22t-6 -23.5t1 -17.5q6 -10 27 -9t44 7.5t42 4.5t21 -18q3 -22 -30.5 -28.5t-75 -7.5t-50.5 -10q-7 -8 -12 -18t-11 -28.5t-9 -25.5q-1 -3 -6 -17.5t-8.5 -22t-10.5 -15.5t-15 -9q-16 -2 -46 28q-14 14 -44 51.5
t-50 56.5q-13 12 -20.5 24.5t-1.5 23.5t34 11q11 -1 26.5 -2.5t23.5 -1.5q4 0 32.5 -3.5t37.5 -3t34 4.5q3 1 6 6t5.5 14t5 17t5 20t4.5 19q20 76 40 89q5 3 10 4zM225 263q-4 9 -47 12.5t-49 -0.5q-28 -12 26 -62q29 -26 38 -24q11 2 22 30q15 34 10 44z" />
    <glyph glyph-name="comma" unicode="," horiz-adv-x="182" 
d="M24 7q-10 6 -10 19q1 20 14 32t28 12q26 0 26 -28q0 -14 -7 -31q-30 -74 -95 -144t-131 -114q-7 -4 -14 -4q-11 0 -11 9q0 8 12 18q131 106 188 231z" />
    <glyph glyph-name="hyphen" unicode="-" horiz-adv-x="464" 
d="M377 204q0 -9 -11 -17t-29 -9q-27 -1 -110.5 -5t-138.5 -6q-17 -1 -17 13q0 8 5.5 15.5t13.5 8.5q225 19 254 19q33 0 33 -19z" />
    <glyph glyph-name="period" unicode="." horiz-adv-x="176" 
d="M57 78q13 0 23.5 -10t10.5 -26t-16.5 -31t-31.5 -15q-23 0 -23 46q0 16 11 26t26 10z" />
    <glyph glyph-name="slash" unicode="/" horiz-adv-x="314" 
d="M398 587q0 -5 -3 -11q-19 -31 -60 -89t-59 -86q-23 -37 -72.5 -115.5t-79 -125.5t-72.5 -111t-79 -113q-16 -24 -29 -24q-8 0 -13.5 6t-5.5 14t13 23q34 44 70.5 99.5t61 96t63 107t59.5 100.5q89 148 163 240q9 10 20 10q9 0 16 -6t7 -15z" />
    <glyph glyph-name="zero" unicode="0" horiz-adv-x="471" 
d="M401 605q26 0 36.5 -36t10.5 -78q0 -142 -76 -284q-52 -98 -119 -159.5t-133 -61.5q-92 0 -92 134q0 191 145 382q27 36 73.5 82t68.5 46q21 0 21 -11q0 -16 -42 -51q-66 -60 -112 -132q-96 -154 -96 -315q0 -45 16 -64.5t40 -19.5q80 0 182 173q23 40 49 115t26 140
q0 19 -8.5 55.5t-8.5 56.5q0 28 19 28z" />
    <glyph glyph-name="one" unicode="1" horiz-adv-x="337" 
d="M407 647q0 -20 -37 -88q-46 -92 -135 -263t-133 -259q-1 -1 -6.5 -14t-9.5 -19t-10.5 -15.5t-14 -14t-15.5 -4.5q-21 0 -21 20q0 15 15 45q32 64 112.5 206t114.5 212q15 31 12 34q-2 3 -9.5 -1t-17.5 -11.5t-19.5 -15t-16.5 -13.5l-8 -7q-36 -26 -88 -72
q-24 -21 -41 -21q-7 0 -13 5.5t-6 12.5q0 15 26 36q13 10 65.5 47t72.5 55q29 27 67 67.5t51 53.5q1 1 10.5 13.5t19 19.5t19.5 7q16 0 16 -16z" />
    <glyph glyph-name="two" unicode="2" horiz-adv-x="383" 
d="M337 669q68 0 68 -92q0 -46 -19.5 -95.5t-40 -80t-55.5 -77.5q-29 -39 -142 -158q-33 -33 -33 -37q4 -3 9.5 -2t23.5 4.5t31 3.5q55 0 55 -75q0 -25 -12 -46.5t-28 -21.5q-22 0 -22 29q0 6 4 20.5t4 20.5q0 30 -27 30q-10 0 -22.5 -4.5t-27 -11.5t-17.5 -8
q-24 -11 -44.5 -22.5t-47.5 -28.5t-44 -27q-41 -26 -53 -26q-16 0 -16 17q0 7 5 14t10.5 11t14.5 10.5t11 7.5q162 122 274 252q31 35 31 48q0 8 -17 8q-6 0 -20 -1.5t-20 -1.5q-31 0 -54.5 26t-23.5 58q0 50 40.5 111t98.5 103t106 42zM306 425q13 23 30.5 75.5t17.5 77.5
q0 44 -32 44q-30 0 -61.5 -21.5t-52.5 -46.5q-64 -78 -64 -128q0 -27 13.5 -41.5t34.5 -14.5q23 0 50 31t43 31q10 0 21 -7z" />
    <glyph glyph-name="three" unicode="3" horiz-adv-x="391" 
d="M414 585q0 -10 -10.5 -22.5t-28 -27.5t-18.5 -16l-158 -158q-1 -1 -8 -7.5t-12 -11.5t-10 -11.5t-5 -9.5q0 -4 13 -4q10 0 28 4t20 4q46 0 72 -23t26 -68q0 -69 -56 -149t-110 -104q-23 -11 -53 -11q-42 0 -76 23t-34 56q0 10 7 18.5t21 8.5q11 0 19.5 -9.5t13.5 -21.5
t17 -21.5t31 -9.5q59 0 111.5 78.5t52.5 143.5q0 43 -58 43q-33 0 -76.5 -16t-60.5 -16q-20 0 -20 16q0 6 4 14t11.5 16.5t13.5 14.5t13.5 13t8.5 8q102 106 148 152q31 27 31 34q0 8 -20 8q-8 0 -26 -2t-21 -2q-64 4 -102 40q-10 9 -21 29t-11 36q0 10 9 18.5t19 8.5
q14 0 23 -14.5t14 -31.5t27 -31.5t60 -14.5q25 0 47.5 6.5t48.5 16.5t44 15q13 3 22 3q19 0 19 -15z" />
    <glyph glyph-name="four" unicode="4" horiz-adv-x="464" 
d="M473 587q20 0 20 -21q0 -10 -4 -23.5t-8 -22.5l-4 -9q-52 -124 -110 -206q-14 -22 -40.5 -61.5t-46 -72t-35.5 -65.5q-26 -64 -26 -80q0 -8 13 -9t13 -8q0 -11 -11.5 -20t-31.5 -10q-17 0 -26.5 15.5t-9.5 33.5q0 28 16.5 67.5t35 68.5t48 73.5t37.5 57.5q25 31 21 37
q0 1 -3 0q-11 -4 -71 -37.5t-102 -33.5q-25 0 -39.5 15.5t-14.5 42.5q0 21 7 46.5t21 56t25 51t29.5 54t23.5 42.5q0 2 5 11.5t5 13.5q0 6 -8 6q-23 -2 -50.5 -30.5t-53 -55.5t-44.5 -27q-13 0 -13 16q0 21 44 64.5t94 70.5q50 25 71 25q28 0 28 -24t-27 -72
q-69 -123 -86 -165q-18 -54 -18 -67q0 -25 25 -25q16 0 31 5t35.5 16t28.5 15q59 37 99.5 85.5t76.5 116.5q1 2 6 14.5t10 18t14 6.5z" />
    <glyph glyph-name="five" unicode="5" horiz-adv-x="372" 
d="M546 720q0 -47 -74 -97t-154 -50q-12 0 -34.5 7.5t-30.5 7.5q-16 0 -49 -79q-35 -75 -48 -101q-14 -28 -14 -29q0 -5 7 -5q4 0 22 5q27 10 48 10q37 0 61 -25.5t24 -77.5q0 -100 -79 -198t-176 -98q-33 0 -54 27t-21 67q0 21 6 42q10 33 34 33q10 0 17 -6.5t7 -18.5
q0 -10 -7.5 -29.5t-7.5 -31.5q0 -39 47 -39q57 0 117 82t60 167q0 57 -57 57q-17 0 -45 -11t-38 -11q-20 0 -20 31q0 10 4.5 22.5t14 31.5t9.5 20q9 19 36.5 76t42.5 93q2 6 7 19t8 18.5t9.5 10.5t16.5 5q5 0 28 -14.5t58 -14.5q61 0 125 50q8 6 22 25t28 32t31 13
q19 0 19 -16z" />
    <glyph glyph-name="six" unicode="6" horiz-adv-x="397" 
d="M370 672q10 0 10 -14q0 -8 -8 -20t-17.5 -22t-20.5 -20.5t-12 -11.5q-272 -297 -272 -461q0 -45 17.5 -68.5t45.5 -23.5q59 0 118.5 65t59.5 137q0 47 -36 47q-21 0 -45 -24.5t-41 -24.5t-17 18q0 17 23 39t40 29q24 9 43 9q38 0 61.5 -24.5t23.5 -65.5
q0 -68 -41.5 -128.5t-94.5 -92t-96 -31.5q-61 0 -90.5 36.5t-29.5 97.5q0 54 28.5 121t79.5 138.5t92.5 122t96.5 110.5q1 2 9.5 11.5t13 14l13 13t15 12.5t15 7.5t16.5 3.5z" />
    <glyph glyph-name="seven" unicode="7" horiz-adv-x="427" 
d="M476 641q29 0 29 -33q0 -10 -17 -18t-23 -16q-15 -20 -56 -89t-51 -84q-31 -49 -31 -67q0 -8 15 -20t15 -18q0 -9 -8 -14.5t-18 -5.5q-6 0 -18 2.5t-16 1.5q-10 -2 -19.5 -14.5t-20 -33t-13.5 -25.5q-40 -67 -93 -162q-2 -3 -7.5 -14t-9.5 -18.5t-10 -16.5t-13 -13.5
t-14 -4.5q-21 0 -21 19q0 7 3.5 17t7.5 17t8.5 14.5t4.5 8.5q52 96 145 257q2 4 2 7q0 6 -10.5 18.5t-10.5 20.5q0 7 4.5 14.5t11.5 7.5q9 0 19 -3.5t13 -3.5q11 0 28 28q60 100 71 116q27 42 31 55q1 5 -6.5 7.5t-21 3t-26.5 0t-28 -1t-19 -0.5q-107 0 -118 -10
q-5 -4 -14.5 -24.5t-20 -46t-15.5 -34.5l-9 -17q-9 -18 -16.5 -30.5t-19.5 -24.5t-22 -12q-8 0 -13.5 6t-5.5 14q0 11 14 35q2 4 14.5 26t19.5 34t16.5 30.5t14 32.5t5.5 24v9.5t0.5 12l1.5 10.5t3 10.5t5.5 7.5t8.5 6t12 2q8 0 22 -8.5t25 -9.5q38 -6 116 -2q13 1 53 1.5
t56 2.5q7 2 19 9t21 7z" />
    <glyph glyph-name="eight" unicode="8" horiz-adv-x="399" 
d="M307 657q54 0 84.5 -40t30.5 -97q0 -61 -36 -115t-96 -113q-1 -1 -7.5 -6.5t-11 -9.5t-9.5 -9.5t-8 -11.5t-3 -11q0 -7 13.5 -32.5t13.5 -49.5q-1 -60 -68 -117.5t-150 -57.5q-34 0 -56.5 13.5t-22.5 37.5t16.5 49t34.5 40.5t50.5 40t45.5 36.5q33 27 33 37q0 6 -4.5 12
t-12.5 14l-11 11q-42 53 -42 129q1 93 65.5 171.5t150.5 78.5zM305 612q-53 0 -106.5 -62.5t-54.5 -140.5q0 -35 25 -78.5t43 -43.5q17 0 55 40.5t70.5 99t32.5 100.5q0 39 -16.5 62t-48.5 23zM205 205q-30 0 -124 -94q-39 -39 -40 -61q0 -14 23 -14q40 0 92 26q27 15 49 44
t23 54q0 45 -23 45z" />
    <glyph glyph-name="nine" unicode="9" horiz-adv-x="412" 
d="M305 638q46 0 72.5 -35t26.5 -91q0 -71 -36.5 -159.5t-83.5 -156.5q-36 -52 -59.5 -82t-60.5 -68.5t-75.5 -57t-79.5 -18.5q-28 0 -50.5 11.5t-22.5 33.5q0 17 9.5 24.5t18.5 7.5t30.5 -14t47.5 -14q12 0 23.5 4.5t24.5 14.5t20.5 17t22.5 22.5t19 19.5
q72 73 134.5 192.5t62.5 225.5q0 35 -16.5 56t-49.5 21q-54 0 -97.5 -63t-43.5 -125q0 -32 11 -53t33 -21q20 0 38.5 16.5t26.5 16.5q7 0 11.5 -5t4.5 -11q0 -22 -33.5 -44.5t-56.5 -22.5q-41 0 -64 33.5t-23 74.5q0 89 63 169.5t152 80.5z" />
    <glyph glyph-name="colon" unicode=":" horiz-adv-x="306" 
d="M113 45q0 -27 -14.5 -41t-29.5 -14q-28 0 -28 49q0 14 8.5 25.5t20.5 11.5t27.5 -9.5t15.5 -21.5zM224 356q15 -3 23.5 -13.5t5.5 -24.5q-5 -24 -17.5 -34t-27.5 -8q-29 6 -21 54q7 31 37 26z" />
    <glyph glyph-name="semicolon" unicode=";" horiz-adv-x="258" 
d="M213 356q15 -3 23.5 -13.5t5.5 -24.5q-5 -24 -17.5 -34t-27.5 -8q-29 6 -21 54q7 31 37 26zM-95 -187q-20 -10 -24 5q-2 11 13 23q113 91 146 182q-16 30 12 53q23 18 42 8q22 -11 0 -55q-60 -120 -189 -216z" />
    <glyph glyph-name="less" unicode="&#x3c;" horiz-adv-x="471" 
d="M381 475q2 -8 -3.5 -16.5t-11.5 -13.5t-18 -13.5t-15 -10.5q-85 -66 -118 -86q-1 0 -18.5 -10t-26.5 -17.5t-10 -14.5q-1 -4 2 -9t8.5 -10.5t10 -9.5t11.5 -9t8 -6q28 -24 96 -68q37 -25 33 -44q-3 -18 -19.5 -20t-27.5 7q-43 27 -120 94q-7 6 -18 16t-19.5 17.5
t-15.5 11.5q-5 3 -14.5 7t-16.5 8t-11 9q-10 14 -7 26t15 19q6 4 18.5 0t21.5 -3q14 2 66 32q22 13 58 38q15 11 49.5 42t58.5 44q29 17 34 -10z" />
    <glyph glyph-name="equal" unicode="=" horiz-adv-x="500" 
d="M423 379q0 -8 -3 -14t-10.5 -9.5t-14.5 -5.5t-18.5 -2.5t-18.5 -1t-19 0t-16 0.5q-15 0 -61 -2t-69 -2q-7 0 -25.5 -1.5t-30 -1.5t-25.5 1.5t-21 6t-8 13.5q0 6 2 11t8 7.5t11.5 4.5t15 2.5t15.5 1t17.5 0.5h15.5q131 2 185 5q8 0 22 1.5t20 1.5t13.5 -1t10.5 -5t4 -11z
M397 237q1 -12 -11 -18.5t-26 -7.5t-34 -2h-7q-36 -2 -99.5 -5t-94.5 -5q-24 -4 -52.5 -1t-29.5 19q-1 9 5.5 15t20 8.5t24.5 3t28.5 1t23.5 0.5q72 3 128 6l19 1q19 2 33 2.5t32 0t28.5 -5t11.5 -12.5z" />
    <glyph glyph-name="greater" unicode="&#x3e;" horiz-adv-x="471" 
d="M373 314q0 -6 -2.5 -11.5t-8 -10.5t-10.5 -9t-13 -9t-12.5 -7.5t-12 -6t-8.5 -4.5q-79 -46 -152 -104q-38 -34 -61 -34q-17 0 -17 20q0 4 1 8t4 7.5t5 6.5t6.5 6.5t6.5 5.5t7 5.5t6 4.5q59 45 141 96q4 2 11.5 6t13.5 7t12.5 7t10 8t3.5 7q0 14 -42 43q-40 27 -90 70
q-33 26 -33 42q0 8 9 13t18 5q16 0 41 -28q30 -35 91 -80q8 -6 22 -20t20 -18q2 -1 11.5 -5t15.5 -8.5t6 -12.5z" />
    <glyph glyph-name="question" unicode="?" horiz-adv-x="373" 
d="M405 734q33 0 33 -38q0 -13 -4 -30t-8 -28t-11 -28.5t-7 -18.5q-58 -149 -136 -285l-4 -6q-3 -6 -5 -9l-6 -9t-7.5 -9t-8.5 -5.5t-10 -2.5q-8 0 -17.5 7t-9.5 15q0 12 8.5 29t21.5 36l14 19q97 178 128 250q14 35 14 45q0 12 -9 12q-14 0 -51 -37q-41 -41 -73.5 -91.5
t-32.5 -83.5q0 -12 11.5 -20t11.5 -15q0 -10 -9.5 -18.5t-17.5 -8.5q-44 0 -44 56q0 30 27.5 79.5t66.5 95.5q3 3 17 20t19.5 23.5t19.5 20t24 19t25 11t30 5.5zM111 103q19 0 19 -36q0 -66 -39 -66q-41 0 -41 27q0 30 36 63q13 12 25 12z" />
    <glyph glyph-name="at" unicode="@" horiz-adv-x="807" 
d="M695 493q23 -52 23 -124q0 -86 -41 -170t-112 -136q-56 -41 -85 -49q-17 -5 -35 -5q-43 0 -60 30q-1 3 -3.5 13t-5.5 18.5t-7 10.5q-6 2 -16.5 -5t-24 -19t-15.5 -14q-40 -34 -80 -34q-34 0 -53 25.5t-19 62.5q0 86 108 196q94 94 176 90q11 -1 23 -8t19 -8q6 -1 16.5 1
t16.5 2.5t13 -5.5q3 -4 3.5 -10.5t-2.5 -15t-6.5 -16.5t-9 -18t-9.5 -16.5t-9 -14.5t-7 -11q-10 -18 -31 -48t-27 -42q-6 -13 -11.5 -36t-5.5 -48.5t11 -31.5q19 -12 62 8q66 27 124 126q54 93 54 180q0 92 -60.5 143t-161.5 51q-93 0 -190 -66q-156 -107 -212 -300
q-19 -67 -19 -127q0 -73 31.5 -139t93.5 -98q50 -26 118 -26q48 0 96 14q131 37 244 140q31 27 34 30q21 18 30 18q6 0 10.5 -4.5t4.5 -10.5q0 -22 -41 -55q-28 -28 -60 -50q-65 -48 -138 -80q-104 -47 -195 -47q-139 0 -213 88t-74 239q0 86 48 194q47 104 124 180.5
t182 113.5q75 26 137 26q81 0 148 -30t89 -82zM423 337q-32 -5 -82 -44q-76 -60 -114 -138q-7 -14 -12.5 -31t-6 -36.5t10.5 -26.5q16 -10 40 0t40 24q60 51 94 108q5 8 16 34.5t16 35.5q2 3 7 12t8.5 15t7.5 14.5t4.5 14.5t-1.5 11t-9 7t-19 0z" />
    <glyph glyph-name="A" unicode="A" horiz-adv-x="574" 
d="M600 531q7 0 14 -6t7 -16q0 -8 -4 -18t-10 -20t-11.5 -18t-12 -16.5t-7.5 -9.5q-34 -46 -64 -92q-37 -55 -59.5 -91t-46.5 -89t-24 -86q0 -31 18 -31q4 0 12 2.5t14 2.5q9 0 9 -12q0 -18 -17 -29q-15 -9 -30 -9q-22 0 -37 17.5t-15 45.5q0 31 7 56q4 13 4 21q0 9 -6 9
q-7 0 -14 -7q-167 -167 -267 -167q-40 0 -62 33.5t-22 84.5q0 75 44.5 176t125.5 196.5t172 140.5q48 24 92 24q80 0 80 -87q0 -48 -28.5 -98.5t-67.5 -89.5q-38 -38 -53 -38t-15 11q0 10 28 40.5t56.5 76t28.5 90.5q0 48 -28 48q-71 0 -138 -57t-119 -132
q-122 -176 -122 -306q0 -56 41 -56q35 0 86 29t91 65q182 163 287 354q13 24 30.5 41t32.5 17z" />
    <glyph glyph-name="B" unicode="B" horiz-adv-x="584" 
d="M404 727q23 0 23 -30t-30 -90q-25 -51 -51 -96t-67 -110t-51 -81q-124 -201 -182 -348q-16 -42 -37 -42q-12 0 -20 6.5t-8 15.5q0 20 22 64q18 36 39 75.5t37.5 68t42.5 72.5t38.5 65t43.5 71t41 66q8 12 32 47.5t39 62t26 57.5q5 15 -18 -10q-15 -15 -25 -29
q-100 -125 -211 -313q-1 -2 -6 -10.5t-7.5 -12t-7.5 -9.5t-9.5 -8.5t-9.5 -2.5q-18 0 -18 18q0 7 3.5 17t7 16.5t7.5 14.5l5 9q98 164 285 385q3 3 12 15.5t16.5 21t18 16.5t19.5 8zM452 345q53 -8 68.5 -21.5t15.5 -52.5q0 -59 -29 -118.5t-69.5 -100.5t-81 -67t-64.5 -26
q-77 0 -77 62q0 20 12.5 41t31.5 21q23 0 23 -24q0 -6 -2 -17.5t-2 -16.5t1 -7q9 -3 18 -3q27 0 67 35q71 60 108 145q21 48 21 76q0 34 -35 34q-19 0 -59 -10q-1 0 -8.5 -3.5t-15 -6t-17.5 -5t-17 -2.5q-21 0 -21 16q0 10 12 21t31 22t20 12q68 52 113 129q5 9 10.5 19.5
t13 28t7 29t-11.5 11.5q-20 0 -42 -13t-45 -40.5t-37.5 -47.5t-37.5 -55q-5 -8 -8 -12q-3 -5 -12.5 -23.5t-18.5 -29.5t-18 -11q-17 0 -17 21q0 39 80 137q101 124 163 124q24 0 39 -18t15 -44q0 -21 -3.5 -38t-18 -40t-22.5 -34t-37.5 -46t-42.5 -51z" />
    <glyph glyph-name="C" unicode="C" horiz-adv-x="354" 
d="M278 485q-25 -16 -49.5 -61t-32.5 -94q-1 -3 -1.5 -9t-1.5 -9t-2 -7.5t-2.5 -6.5t-3.5 -4.5t-5 -3.5t-7 -1q-13 0 -13 22q0 23 12 61.5t19 52.5q26 50 48 80t58 55q26 18 43 18q14 0 14 -13q0 -9 -18 -45.5t-18 -59.5q0 -12 5 -12q31 0 63 62.5t32 115.5q0 48 -48 48
q-49 0 -121 -61q-94 -78 -156 -200.5t-62 -233.5q0 -56 19.5 -92t58.5 -36q76 0 205 104q3 2 11.5 11t16 15t14.5 6q6 0 12 -7.5t6 -13.5q0 -17 -75 -75t-122 -77q-36 -15 -80 -15q-58 0 -88.5 48t-30.5 122q0 71 23 152t54 129q34 54 64 93t72.5 81.5t91.5 65t102 22.5
q79 0 79 -90q0 -71 -46 -143t-100 -72q-26 0 -36 23.5t-4 54.5z" />
    <glyph glyph-name="D" unicode="D" horiz-adv-x="687" 
d="M560 656q-10 5 -28 5q-12 0 -25.5 -2.5t-29.5 -6.5t-21 -5q-65 -13 -124.5 -37t-119 -62.5t-96 -65t-98.5 -76.5q-2 -2 -10 -9t-13 -11t-12 -8t-13 -4q-7 0 -16 9t-9 20q0 7 3 13.5t10 12.5t12 10.5t14 11t12 8.5q64 49 116 83.5t125 74t153 61t162 23.5q4 0 13 -0.5
t14 -0.5q26 0 59 39t64 77.5t52 38.5q20 0 20 -22q0 -34 -28 -72q-3 -4 -21.5 -26.5t-31.5 -42t-13 -31.5q0 -10 8 -25l8 -15q17 -48 17 -104q0 -116 -86 -290q-48 -100 -118 -164q-21 -19 -34 -30t-38.5 -22t-51.5 -11t-47.5 10t-33 21t-28.5 32q-22 26 -31 26
q-6 -5 -24.5 -23.5t-27.5 -24.5q-90 -69 -165 -69q-88 0 -88 76q0 41 23 93t49 87q20 28 35.5 46.5t42 37.5t50.5 19q34 0 59 -36.5t39.5 -74t22.5 -39.5q7 -1 15.5 5.5t20.5 22.5t13 18q168 198 298 409q-3 3 -7 3q-16 0 -50 -45.5t-68 -91.5t-50 -46q-8 0 -12.5 5t-4.5 11
q0 14 10 29t29 34.5t21 21.5q9 11 26 29.5t31 35t27 34.5zM647 599q-3 0 -42 -58q-17 -24 -57 -83.5t-63.5 -93t-63 -84.5t-78.5 -95q-16 -18 -31.5 -40t-14.5 -28q2 -18 27.5 -43t52.5 -25q54 0 112 63.5t99 140.5q82 158 82 276q0 70 -23 70zM218 141q-4 8 -14.5 31.5
t-16.5 35t-16.5 27t-21.5 22.5t-23 7q-18 0 -38 -17q-35 -29 -68.5 -82t-33.5 -96q0 -54 42 -54q25 0 50.5 10t39.5 19.5t38 28.5q41 31 62 68z" />
    <glyph glyph-name="E" unicode="E" horiz-adv-x="423" 
d="M215 339q-9 -20 -9.5 -60t-4 -66t-21.5 -26q-14 2 -14 42q0 28 10 101q-53 -10 -103 -64t-50 -124q0 -48 32.5 -79.5t84.5 -31.5q60 0 132.5 42t137.5 107q7 7 15 7q7 0 12.5 -6.5t5.5 -14.5t-5 -13q-173 -173 -304 -173q-80 0 -121 43t-41 109q0 64 36.5 124.5
t96.5 89.5q7 3 31.5 12.5t39.5 17.5t15 13q0 6 -14.5 25.5t-19.5 30.5q-16 36 -16 74q0 83 70 142t162 59q58 0 96 -33t38 -88q0 -61 -39 -106.5t-90 -45.5q-88 0 -88 98l-1 2q-7 0 -30.5 -48t-23.5 -71q0 -15 30.5 -31t30.5 -30q0 -13 -17 -17.5t-38 -5.5t-26 -5zM203 458
q25 61 57 110q1 1 5.5 8t8 12t10 13.5t12 14.5t12 12t12.5 9t12 3q17 0 17 -16q0 -12 -10.5 -40t-10.5 -43q0 -24 15 -38t36 -14q35 0 57.5 35.5t22.5 74.5q0 38 -24 59t-65 21q-73 0 -128 -51t-55 -124q0 -31 16 -46z" />
    <glyph glyph-name="F" unicode="F" horiz-adv-x="339" 
d="M319 481q-46 -61 -124 -209q18 -4 70 -4q24 0 46 5q3 1 19.5 6t24.5 5q17 0 17 -19q0 -13 -13.5 -22t-34 -13t-33 -5t-20.5 -1q-13 0 -39 3t-38 3q-5 0 -9.5 -0.5t-8 -1t-7 -3t-6 -3.5t-6 -5.5t-5.5 -7t-6.5 -9t-7 -10t-8.5 -13t-9 -14.5q-60 -91 -80 -162
q-1 -4 -5 -19.5t-6 -20.5t-6.5 -13.5t-10.5 -11.5t-14 -3q-21 0 -21 25q0 18 11 51q22 64 72 146q3 6 12.5 19.5t16 25.5t11.5 27q1 2 -0.5 3t-4 1.5t-5.5 0.5t-6.5 -0.5t-5.5 -0.5q-6 0 -18 -1.5t-17 -1.5q-20 0 -20 18q0 15 22 20t52.5 4.5t39.5 2.5q28 35 74 118
q-5 -3 -31 -23.5t-52 -34.5t-49 -14q-30 0 -48 25.5t-18 66.5q0 57 29 98t80.5 62t109.5 30.5t128 9.5q250 0 285 42q3 3 8.5 15t12.5 19.5t17 7.5q13 0 21 -10t8 -21q0 -68 -160 -83q-41 -4 -99.5 -6.5t-100.5 -4t-91 -6t-82.5 -15t-62.5 -28t-43.5 -47.5t-14.5 -72
q0 -38 33 -38q5 0 10 1t10.5 3.5t10 5t10.5 7t10 7t10 8t9 8t9.5 8.5t7.5 7q7 7 24 31t33.5 41.5t31.5 17.5q8 0 12 -6q8 4 20.5 25t22.5 21q18 0 18 -16q0 -17 -22 -52z" />
    <glyph glyph-name="G" unicode="G" horiz-adv-x="417" 
d="M337 655q32 0 53 -23t21 -53q0 -66 -50 -122.5t-88 -56.5q-30 0 -30 14q0 10 11 19t29 19.5t26 18.5q20 20 37.5 52t17.5 56q0 31 -34 31q-57 0 -111.5 -47t-100.5 -123q-42 -72 -67 -151t-25 -137q0 -55 38 -55q39 0 97 54q122 111 194 232q22 36 48 36q16 0 16 -22
q0 -12 -5 -23.5t-15.5 -27.5t-13.5 -21q-15 -28 -53.5 -102t-60 -113t-58.5 -94t-74 -95q-102 -110 -184 -110q-33 0 -53.5 18t-20.5 50q0 6 2 20q5 30 31 30q7 0 11 -2t5.5 -8t2 -9.5t0 -13.5t-0.5 -12q0 -33 28 -33q50 0 117.5 68t115.5 143.5t63 120.5q2 6 0 6
q-4 0 -40 -37t-85 -74.5t-84 -37.5q-36 0 -55.5 30t-19.5 75q0 104 62 235.5t143 206.5q30 27 74 47.5t86 20.5z" />
    <glyph glyph-name="H" unicode="H" horiz-adv-x="634" 
d="M359 572q26 10 50 46.5t28 62.5q-18 -10 -42.5 -43.5t-35.5 -65.5zM283 411q30 11 48 11t30.5 -9t12.5 -26q0 -13 -8 -48.5t-8 -50.5q0 -29 26 -29q23 0 48.5 18.5t40.5 36.5q14 15 48 86q30 64 77.5 137.5t71.5 73.5q22 0 22 -20q0 -8 -3.5 -20t-7.5 -21t-9.5 -19
t-5.5 -11q-33 -75 -90 -149q-3 -4 -27.5 -35.5t-32.5 -43.5q-9 -14 -18 -33.5t-21 -48t-17 -40.5q-2 -4 -10 -21.5t-12 -27.5t-8.5 -27.5t-4.5 -32.5q0 -22 16 -22q38 0 183 145q5 4 13 4q9 0 15.5 -5.5t6.5 -13.5t-42.5 -51t-100 -85t-88.5 -42q-24 0 -40 14t-16 41
q0 29 10.5 61.5t26 69.5t21.5 56q-39 -18 -59 -18q-23 0 -42 16t-19 41q0 14 6 42.5t6 41.5q0 20 -9 20q-4 0 -17 -6.5t-21 -6.5t-11 7q-10 -21 -21 -55t-17 -49q-16 -40 -22.5 -55.5t-24 -55.5t-30 -60t-31 -45.5t-37.5 -37t-38 -11.5q-44 0 -65 25.5t-21 64.5
q0 37 18.5 72t44.5 35q9 0 15.5 -6t6.5 -15q0 -11 -16.5 -40t-16.5 -50t9.5 -31t20.5 -10q36 0 79 94q24 51 55.5 132.5t44.5 111.5q3 7 16 37t22.5 53t9.5 29q0 5 -6 12t-15.5 15t-12.5 11q-9 10 -36 43.5t-45 46.5t-42 13q-20 0 -33.5 -11t-13.5 -32q0 -52 47 -52
q6 0 18.5 3t19.5 3q28 0 28 -26q0 -15 -13 -27t-37 -12q-44 0 -76 26.5t-32 81.5q0 43 31.5 73.5t70.5 30.5q34 0 56.5 -19.5t54.5 -65.5q1 -1 9 -13.5t13.5 -20t14.5 -15.5t17 -8q7 0 31 46.5t60.5 93.5t73.5 47q36 0 36 -46q0 -26 -29 -81q-33 -65 -82 -90
q-7 -4 -21.5 -8.5t-20.5 -7.5q-5 -2 -13 -18.5t-21 -48t-15 -36.5z" />
    <glyph glyph-name="I" unicode="I" 
d="M137 88q-14 24 -44.5 51.5t-51.5 27.5q-18 0 -32.5 -30.5t-14.5 -62.5q0 -45 42 -45q24 0 55 17q13 7 29.5 21t16.5 21zM430 525q-11 -8 -45 -38.5t-60.5 -49t-43.5 -18.5q-13 0 -13 17q0 15 20.5 30.5t56.5 40.5t60 53q7 8 29.5 38.5t38 43.5t33.5 13q14 0 20 -8
q9 -12 9 -27q0 -12 -6 -27.5t-13 -27t-19 -31t-18 -29.5q-132 -242 -206 -345q-4 -6 -20 -25.5t-27 -35.5t-11 -21q0 -8 14 -19t26 -11q40 0 101 46.5t95 84.5q9 9 18 9q8 0 13.5 -6.5t5.5 -14.5q0 -9 -7 -16q-45 -45 -116 -95t-119 -50q-18 0 -41.5 21t-25.5 21
q-7 0 -17 -5.5t-22 -14.5t-17 -12q-44 -26 -89 -26q-37 0 -60 21.5t-23 66.5q0 40 16 78t40 48q21 8 37 8q27 0 52.5 -17t48.5 -40.5t33 -29.5q52 37 150 219q30 56 102 181z" />
    <glyph glyph-name="J" unicode="J" horiz-adv-x="416" 
d="M402 182q7 4 14 4q18 0 18 -17q0 -10 -7 -17q-73 -71 -210 -108q-10 -4 -13 -12q-24 -55 -45 -93q-41 -72 -81 -108t-95 -36q-37 0 -64.5 21t-27.5 57q0 128 265 194q5 1 7 6q72 200 131 307q32 58 32 75q0 5 -3 7q-29 12 -55.5 49t-47 67t-40.5 30q-25 0 -40.5 -23
t-15.5 -50q0 -44 38 -44q4 0 14 2t14 2q20 0 20 -24q0 -28 -50 -28q-31 0 -52.5 25t-21.5 65q0 50 27 87.5t65 37.5q34 0 56.5 -18.5t43.5 -54.5q15 -26 38.5 -53.5t38.5 -27.5q7 0 19 15t26.5 38.5t19.5 29.5q68 87 124 87q28 0 28 -27q0 -20 -15 -49.5t-27 -45.5
t-36.5 -40t-41.5 -34q-10 -6 -29.5 -12.5t-27.5 -11.5q-16 -9 -53 -80q-37 -74 -111 -269q0 -1 -1.5 -4t-2 -5.5t-0.5 -5.5q0 -6 8 -4q111 31 167 96zM141 20q1 2 0 3t-4 0q-40 -11 -78 -26t-75.5 -47t-37.5 -69q0 -20 16 -30.5t34 -10.5q19 0 38 12.5t32.5 28.5t29.5 44.5
t24 46t21 48.5zM430 514q18 3 50.5 37t32.5 47q0 4 -5 4q-13 0 -41.5 -33.5t-36.5 -54.5z" />
    <glyph glyph-name="K" unicode="K" horiz-adv-x="629" 
d="M520 554q-12 0 -24.5 -12t-28.5 -34.5t-18 -24.5q-19 -24 -48 -64q-5 -7 -51.5 -67.5t-65.5 -93.5q62 38 102 38q44 0 44 -53q0 -37 -26.5 -119.5t-26.5 -100.5t13 -18q21 0 56.5 24t59.5 45.5t68 63.5q3 2 23 26t34 24q4 0 10.5 -5t6.5 -12q0 -5 -3 -11.5t-9.5 -13.5
t-11.5 -12.5t-13.5 -13.5t-10.5 -10q-4 -4 -31.5 -32t-38 -38t-36.5 -32.5t-42.5 -31.5t-40 -18t-43.5 -9q-45 0 -45 57q0 39 25.5 125.5t25.5 103.5q0 15 -9 15q-17 0 -34.5 -8t-28 -15.5t-28.5 -23.5t-23 -20q-4 -3 -19 -3q-11 0 -31 -28.5t-44.5 -72t-29.5 -50.5
q-1 -1 -5.5 -8.5t-7 -11t-6.5 -8.5t-8.5 -7t-9.5 -2q-18 0 -18 23q0 26 20.5 87.5t49.5 135.5t37 100q-55 -25 -74 -25q-56 0 -84.5 51t-28.5 126q0 25 5.5 56.5t16.5 66t33 58t50 23.5q23 0 48 -12t44.5 -27t52 -27t69.5 -12q15 0 28 16.5t28 33t37 16.5q33 0 33 -26
q0 -13 -3.5 -23.5t-7.5 -16.5t-14 -13t-15 -9.5t-18.5 -8.5t-17.5 -8q-8 -4 -16.5 -15t-13.5 -20.5t-13 -26.5t-11 -22q-4 -8 -34 -67t-41.5 -83t-30.5 -70t-29 -82q5 0 9.5 2.5t6 4t6.5 8.5t6 9q31 41 97.5 134t120 162t103.5 119q41 41 61 42q17 0 17 -20q0 -7 -3 -17
t-6 -17.5t-7.5 -17t-5.5 -11.5q-8 -19 -22.5 -51t-23 -56t-16.5 -56q-17 -69 -39 -69q-21 0 -21 25q0 14 18 68q5 13 24.5 51t22.5 53zM216 436q8 15 22.5 45t27 53.5t23.5 39.5q-42 -4 -76.5 7t-51.5 26t-34.5 28.5t-28.5 13.5q-26 0 -42.5 -49.5t-16.5 -118.5
q0 -52 21.5 -85.5t49.5 -33.5q26 0 57 39.5t38 43.5l1 1h3q2 0 2.5 -1t1 -3.5t3.5 -5.5z" />
    <glyph glyph-name="L" unicode="L" horiz-adv-x="521" 
d="M183 105q20 -34 48.5 -55.5t57.5 -21.5q23 0 47 9.5t50 30.5t42.5 35.5t44.5 43t36 36.5q7 5 12 5q8 0 14.5 -6t6.5 -14t-8 -16q-77 -72 -94 -86q-96 -83 -155 -83q-51 0 -96 38q-3 3 -13.5 13t-18 15.5t-12.5 5.5q-13 0 -32 -22t-21 -23q-40 -27 -79 -27q-30 0 -50 18
t-20 58q0 59 36 112.5t79 53.5q13 0 27 -9t24 -21t19 -23t15.5 -16.5t10.5 -1.5t10 16.5t14.5 30.5t14.5 28q32 60 32 67q0 6 -13 0q-26 -14 -49 -14q-16 0 -16 17q0 8 7 15t15 11t18 8t11 5q5 3 16.5 7.5t17.5 7.5t13.5 8t12.5 11q17 19 66 121q126 260 239 260
q65 0 65 -63q0 -105 -130 -218q-56 -49 -148 -106q-43 -26 -50 -34q-5 -5 -19 -35q-41 -81 -82 -156q-17 -31 -16 -36zM563 707q-26 0 -56 -27t-45 -49t-36 -56q-3 -4 -17.5 -27.5t-21.5 -35t-17.5 -30.5t-15.5 -31.5t-5 -20.5q0 -6 6 -6q9 0 39 18q110 69 164 162
q26 42 26 78q0 25 -21 25zM114 104q-41 78 -60 78q-12 0 -26.5 -16t-23.5 -34q-18 -32 -18 -70q0 -37 30 -37q28 0 56 22t42 57z" />
    <glyph glyph-name="M" unicode="M" horiz-adv-x="945" 
d="M954 620q17 0 17 -24q0 -14 -12 -54q-8 -29 -17.5 -56.5t-22.5 -56.5t-22 -48.5t-26.5 -50.5t-25.5 -44.5t-29 -49t-27 -45.5l-13 -19q-12 -18 -23.5 -36.5t-24.5 -42.5t-21 -46.5t-8 -39.5q0 -22 16 -32q4 -3 4 -7q0 -6 -6 -10.5t-15 -4.5q-19 0 -33 15t-14 38t6 47
t21 53.5t25 46.5t35 55.5t33 52.5q7 11 22.5 36t23.5 38t20 35t22 44.5t20 49.5q2 6 0 6q-8 0 -47 -45q-44 -47 -91 -102.5t-76 -91t-87.5 -109.5t-84.5 -106q-2 -2 -14 -19.5t-23 -28t-21 -10.5q-19 0 -19 22q0 25 10 62q33 108 111.5 297.5t110.5 291.5q4 13 -2 13
q-5 0 -39 -30q-90 -84 -233.5 -274t-232.5 -279q-23 -23 -58 -43.5t-60 -20.5q-36 0 -53.5 24.5t-17.5 62.5q0 47 23.5 87t57.5 40q11 0 17.5 -6t6.5 -14q0 -18 -26.5 -55.5t-26.5 -57.5q0 -40 28 -40q30 0 90 67q4 3 5 5q76 81 201.5 241t188.5 229q114 123 184 160
q6 3 13 3q24 0 24 -25q0 -9 -4 -20.5t-10.5 -23.5t-8.5 -18q-20 -52 -63.5 -174t-70.5 -190q-48 -118 -59 -160q-5 -20 10 -3q10 11 39 51q20 27 28 37q100 126 233 267q44 47 71 82q2 2 14 19.5t21 26t16 8.5z" />
    <glyph glyph-name="N" unicode="N" horiz-adv-x="623" 
d="M433 189q8 15 40.5 81t46 91t42 71.5t56.5 83.5q33 44 61 75t69 67.5t86.5 56t93.5 19.5q36 0 59 -20.5t23 -59.5q0 -35 -11 -64t-32 -29q-20 0 -20 18q0 10 11 37.5t11 38.5q0 18 -16 27t-34 9q-49 0 -113 -41q-68 -44 -120 -109t-108 -159q-107 -180 -164 -334
q-1 -2 -5 -16.5t-9 -27.5t-11.5 -27.5t-15 -23.5t-16.5 -9q-19 0 -19 34q0 28 22 116q7 36 18 99t24 173.5t13 183.5q0 130 -40 130q-46 0 -88 -41.5t-64.5 -94.5t-22.5 -96q0 -7 1 -19t1 -18q0 -40 -26 -40q-23 0 -23 49q0 106 76.5 204t172.5 98q65 0 65 -167
q0 -81 -17 -219t-17 -147zM367 555q10 0 10 -13q0 -17 -24 -75q-28 -65 -63 -135.5t-82 -154.5t-94 -137.5t-81 -53.5q-27 0 -43 18.5t-16 45.5q0 19 12 45.5t29 26.5q10 0 10 -12q0 -8 -8 -23.5t-8 -24.5q0 -23 27 -23q30 0 98 104t117 198t79 159q24 55 37 55z" />
    <glyph glyph-name="O" unicode="O" horiz-adv-x="447" 
d="M424 706q0 -7 -4 -22t-4 -26q0 -10 20.5 -27t25.5 -26q24 -45 24 -100q0 -78 -43 -173t-105 -171.5t-136.5 -128.5t-133.5 -52q-32 0 -53 33t-27.5 69.5t-6.5 71.5q0 132 55.5 251.5t142.5 215.5q45 50 98.5 85.5t98.5 35.5q24 0 36 -7.5t12 -28.5zM355 692
q-17 0 -61 -30q-39 -27 -85 -80q-81 -93 -126 -205t-45 -225q0 -114 48 -114q68 0 152 81.5t141 195t57 201.5q0 26 -8 49.5t-25 23.5q-7 0 -14.5 -15t-15.5 -40t-9 -28q-45 -105 -86 -161q-1 -2 -9.5 -15t-14.5 -20.5t-15.5 -15t-18.5 -7.5q-21 0 -21 42q0 105 33 190
t89 115q3 2 19.5 8t25 13t8.5 17q0 20 -19 20zM259 416q8 7 16 17.5t12.5 17t13.5 23t11 20.5q38 71 38 95q0 5 -9 5q-33 0 -58 -59.5t-25 -104.5q0 -10 1 -14z" />
    <glyph glyph-name="P" unicode="P" horiz-adv-x="434" 
d="M277 698q4 2 30 25t41 23q12 0 19 -7.5t9.5 -17t4.5 -10.5q8 -5 30.5 -10t23.5 -5q112 -40 112 -146q0 -93 -78 -184.5t-160 -91.5q-33 0 -52.5 19.5t-19.5 49.5q0 32 23.5 58.5t53.5 26.5q31 0 31 -18q0 -11 -10.5 -17.5t-22.5 -9.5t-22.5 -14t-10.5 -31q0 -23 29 -23
q43 0 114.5 72.5t71.5 155.5q0 53 -31.5 84.5t-77.5 31.5q-4 0 -9.5 -6t-11.5 -16t-11 -19.5t-10.5 -21.5t-7.5 -16q-20 -37 -76 -135.5t-83.5 -150t-59.5 -125t-44 -127.5q-1 -4 -3 -13.5t-3.5 -15t-4 -14t-5.5 -14t-6.5 -11t-9 -8t-11.5 -2.5q-22 0 -22 37q0 33 9 57
q22 67 58 143.5t59.5 119.5t78.5 135.5t68 115.5q3 5 6.5 11t9.5 18l10.5 21t8.5 20t3.5 15t-3.5 6q-10 0 -27.5 -25.5t-36.5 -51.5t-33 -26q-15 0 -15 12q0 8 17 30t17 29q-1 4 -28 -18q-19 -17 -38 -41.5t-26 -41.5q-2 -5 -6.5 -18t-7.5 -20.5t-7.5 -17t-10 -14
t-11.5 -4.5q-19 0 -19 22t16 54q67 134 178 166z" />
    <glyph glyph-name="Q" unicode="Q" horiz-adv-x="443" 
d="M190 79q-9 0 -25.5 -11.5t-33.5 -26t-22 -17.5q-73 -44 -113 -44q-33 0 -54.5 19t-21.5 48q0 58 59.5 134.5t107.5 76.5q18 0 37 -14.5t31.5 -32.5t27 -32.5t23.5 -14.5q22 0 69 66q79 111 104 164q36 76 36 156q0 108 -84 108q-73 0 -142 -67t-69 -136q0 -25 11.5 -42
t34.5 -17t37 16t18.5 35t13.5 35t23 16q25 0 25 -28q0 -36 -37 -77.5t-82 -41.5q-44 0 -66 35.5t-22 85.5q0 92 83 161t174 69q59 0 96 -38t37 -117q0 -59 -16.5 -115.5t-48.5 -107t-58 -83.5t-64 -75q-4 -5 -17.5 -17t-20 -21t-5.5 -16q2 -15 45.5 -60t107.5 -88t110 -43
q13 0 35 11t35 11q14 0 14 -12q0 -21 -40 -41q-32 -16 -65 -16q-44 0 -93 28t-81.5 60t-68 70.5t-45.5 46.5zM160 121q-53 83 -79 83q-7 0 -13 -3q-36 -19 -65.5 -57t-29.5 -72q0 -40 35 -40q36 0 79 26q46 25 73 63z" />
    <glyph glyph-name="R" unicode="R" horiz-adv-x="649" 
d="M243 341q54 0 111 26q211 95 211 233q0 51 -43.5 78.5t-94.5 27.5q-104 0 -197 -80t-93 -155q0 -18 5 -24.5t19 -6.5q2 0 7 0.5t8 0.5q21 0 21 -17q0 -13 -11.5 -24t-29.5 -11q-35 0 -51 20.5t-16 49.5q0 63 48.5 130t129.5 113t165 46q86 0 136 -41.5t50 -108.5
q0 -91 -75.5 -166t-172.5 -102q-43 -11 -43 -20q0 -2 5 -5q23 -10 40 -47t26 -74.5t29 -68t50 -30.5q15 0 32.5 6t30.5 13t30.5 20.5t26 20.5t24.5 22t18 17q4 4 11 4q8 0 13.5 -5.5t5.5 -13.5t-9 -17q-3 -2 -23 -21t-35.5 -31.5t-39 -29t-48 -25t-48.5 -8.5q-51 0 -82 46
q-14 20 -31 72t-33 89t-33 37q-3 0 -9.5 -1t-10.5 -1q-13 0 -19.5 5t-11 14t-7.5 12q-9 -16 -45 -93q-109 -221 -195 -221q-29 0 -48 22t-19 57q0 34 27.5 74t57.5 40q23 0 23 -23q0 -13 -16 -25.5t-32.5 -30t-16.5 -42.5q0 -27 30 -27q17 0 36 20t29.5 36.5t28.5 49.5
q24 42 59.5 118t65 137t63.5 122t68 95.5t64 34.5q42 0 42 -36q0 -24 -18.5 -53t-43.5 -45l-24 -15t-23.5 -14.5t-18.5 -13t-19 -17.5q-13 -15 -32 -53t-29 -66zM332 525q15 5 41.5 30t26.5 36q0 5 -8 5q-16 0 -36 -26t-24 -45z" />
    <glyph glyph-name="S" unicode="S" horiz-adv-x="419" 
d="M259 81q-11 -5 -38 -31t-62 -46t-79 -20q-49 0 -76 35.5t-27 84.5q0 55 42 121t89 66q17 0 24.5 -15.5t10 -43t6.5 -37.5q22 -62 55 -62q25 0 25 46q0 39 -31 123t-31 137q0 108 69.5 188t172.5 80q52 0 80 -31t28 -71q0 -70 -51.5 -133t-101.5 -63q-25 0 -40.5 16
t-15.5 44q0 13 8 25.5t22 12.5q17 0 17.5 -27t15.5 -27q34 0 69.5 51t35.5 94q0 66 -69 66q-78 0 -133.5 -64.5t-55.5 -154.5q0 -16 2 -33t4 -28.5t7 -29t7.5 -25l9 -27t8.5 -24.5q20 -62 20 -83q0 -23 -3.5 -41.5t-3.5 -22.5q0 -7 9 -7q20 0 62 17t70 44q2 2 8 2
q8 0 16 -4.5t8 -11.5t-12 -18q-75 -61 -171 -72zM88 231q-28 0 -48 -46t-20 -80t14.5 -56t45.5 -22q50 0 82 26q25 21 25 30q0 7 -32 19q-17 8 -31 31t-19 49q-11 49 -17 49z" />
    <glyph glyph-name="T" unicode="T" 
d="M415 391q-26 -37 -71 -115.5t-71 -115.5q-5 -7 -20.5 -24t-27.5 -31t-12 -19q0 -8 15 -23t27 -15q38 0 100.5 47t95.5 84q9 9 18 9q8 0 13.5 -6.5t5.5 -14.5q0 -9 -7 -16q-45 -45 -116 -95t-119 -50q-18 0 -41.5 21t-25.5 21q-7 0 -17 -5.5t-22 -14.5t-17 -12
q-44 -27 -93 -27q-54 0 -71 43q-8 21 -8 46q0 40 16 78t40 48q21 8 37 8q27 0 52.5 -17t48.5 -40.5t33 -29.5q34 24 86.5 105.5t57.5 109.5q-78 -40 -167 -40q-53 0 -97 24.5t-44 74.5q0 35 25 65t56 46q28 13 61 23.5t79 19.5t72 13t87.5 12t76.5 10q127 18 188 40
q48 17 98 41t50 39q0 8 -10 18t-10 16q0 10 8 17.5t19 7.5q19 0 36.5 -14t17.5 -35q0 -42 -48 -75.5t-126 -54t-148.5 -33.5t-146 -22.5t-88.5 -12.5q-6 -1 -36 -6.5t-51.5 -9.5t-53 -13.5t-51.5 -19.5t-35 -26.5t-15 -35.5q0 -33 38 -48.5t84 -15.5q24 0 66.5 13.5
t53.5 13.5q17 0 18 -15q9 14 26.5 47t29.5 48t30 26q19 12 37 12q15 0 24.5 -8.5t9.5 -23.5q0 -21 -17 -46t-38 -25q-3 0 -5 1q-5 2 -11 3zM137 88q-14 24 -44.5 51.5t-51.5 27.5q-18 0 -32.5 -30.5t-14.5 -62.5q0 -19 9.5 -33t29.5 -14q26 0 58 19q13 7 29.5 21t16.5 21z
" />
    <glyph glyph-name="U" unicode="U" horiz-adv-x="674" 
d="M607 445q16 0 16 -17q0 -9 -5 -21.5t-10.5 -21.5t-13.5 -20.5t-8 -12.5q-61 -102 -92 -184q-25 -67 -25 -89q0 -29 16 -29q4 0 10.5 1.5t9.5 1.5q12 0 12 -13q0 -14 -20 -27.5t-41 -13.5q-44 0 -44 55q0 32 16 78.5t32 81t16 37.5q0 4 -3 4q-11 0 -52 -54
q-64 -74 -203 -199q-57 -54 -98 -54q-39 0 -39 49q0 47 41 143q62 145 162 302q1 1 14 21.5t26.5 42t25 45t11.5 33.5q0 8 -7 8t-14.5 -1t-15 -4t-12.5 -5.5t-12.5 -7.5l-10.5 -7t-11.5 -8t-9.5 -7q-60 -46 -113 -114t-53 -113q0 -17 7.5 -33t7.5 -23q0 -10 -10 -17.5
t-19 -7.5q-15 0 -25.5 17t-10.5 41q0 70 60.5 149t131.5 135q25 19 58 36.5t54 17.5q55 0 55 -48q0 -30 -41.5 -109.5t-92 -160.5t-92 -166.5t-41.5 -125.5q0 -13 8 -13q7 0 18.5 7t26 19t26.5 23t27.5 25.5t21.5 20.5q52 47 114 112q5 5 67.5 68t98.5 106q1 1 8 10t11.5 13
t11 11t13 10t11.5 3z" />
    <glyph glyph-name="V" unicode="V" horiz-adv-x="526" 
d="M919 822q41 0 41 -46q0 -28 -15 -49q-41 -56 -66 -56q-12 0 -12 9q0 8 14 26q19 23 19 42q0 10 -7 10q-13 0 -44 -27q-355 -314 -709 -740q-41 -50 -61 -50q-13 0 -13 17q0 9 18 67q90 263 140 420q13 40 18 56.5t12 53t10 76.5q0 6 -3 6q-12 0 -57 -56q-55 -69 -65 -134
q-3 -21 -5.5 -32t-10 -21.5t-19.5 -10.5q-24 0 -24 24q0 12 13 51q17 49 48.5 101t68.5 88l6.5 6.5t8.5 8l9 7.5t11 7.5t11.5 5.5t14 4.5t15.5 1.5q32 0 32 -58q0 -84 -49 -225q-12 -37 -41.5 -115t-48.5 -132.5t-19 -69.5q0 -6 3 -6q5 0 13 11q222 270 422 466
q149 147 182 176q3 3 20 18.5t28 24t27.5 20.5t32.5 18t31 6z" />
    <glyph glyph-name="W" unicode="W" horiz-adv-x="724" 
d="M1139 745q0 -9 -5.5 -17.5t-9.5 -11.5t-17 -10.5t-14 -8.5q-77 -49 -138 -96q-108 -83 -214.5 -189.5t-191.5 -218.5q-58 -77 -112 -174l-3 -7q-4 -7 -7.5 -12.5t-8.5 -12.5t-11 -11t-12 -4q-22 0 -22 31q0 10 6 37q61 287 65 303q2 8 7.5 28.5t9.5 36t4 17.5q0 4 -3 4
q-4 0 -11.5 -6t-23.5 -22l-18 -18q-17 -15 -79 -85q-69 -79 -187 -229q-2 -3 -20.5 -27t-29.5 -39q-1 -2 -10 -15t-14.5 -20.5t-15 -15t-16.5 -7.5q-18 0 -18 18q0 11 22 60q49 111 77 176.5t63 161t56 176.5q14 63 14 82q0 25 -12 25q-27 0 -70 -66t-43 -95
q-13 -46 -30 -46q-21 0 -21 30q0 27 10 50q28 62 77 119t99 57q46 0 46 -70q0 -19 -3.5 -43t-8.5 -44.5t-12.5 -46.5t-12 -40t-11.5 -33.5t-7 -20.5q-38 -113 -84 -219q-7 -15 -7 -19q0 -2 2 -2t11 12t20 28t15 20q9 11 55.5 68.5t74.5 87.5q16 18 54 53t44 41l15.5 15.5
t22 21t21.5 18t24.5 16t21.5 5.5q17 0 17 -22q0 -10 -4 -23.5t-11 -31.5l-7 -17q-17 -54 -43.5 -154.5t-38.5 -142.5l-2 -8q0 -2 2 -2q4 0 47 54q122 167 241 286q133 131 254 218q94 67 118 67t24 -20z" />
    <glyph glyph-name="X" unicode="X" horiz-adv-x="628" 
d="M851 897q0 -8 -2.5 -16t-5 -14t-8 -15t-8.5 -13t-10 -13t-9 -11q-181 -237 -330 -399q-2 -3 -10.5 -12t-13 -14t-10.5 -12.5t-8.5 -13.5t-2.5 -11q0 -12 12 -62q3 -13 11 -50.5t11.5 -51.5t11.5 -44t14.5 -47.5t16.5 -41t21 -43.5q19 -33 34 -51q5 -7 5 -13
q0 -12 -10 -19.5t-23 -7.5q-6 0 -11.5 2.5t-10.5 7.5t-9 9.5t-8.5 12.5t-7 13l-7 14t-6.5 12q-37 73 -70 208q-2 10 -7 42t-10 51t-12 19q-4 0 -17 -12.5t-29 -30t-21 -22.5q-205 -190 -390 -310q-32 -24 -56 -24q-9 0 -15.5 6.5t-6.5 16.5q0 24 58 52q44 21 95.5 56.5
t78.5 57.5t93.5 79l80.5 69q44 37 110 106q12 12 12 21q0 18 -13.5 86t-15.5 86q-2 15 -4 15q-4 0 -10 -29t-10.5 -70t-4.5 -70q0 -5 1 -16t1 -17q0 -31 -18 -31q-26 0 -26 52q0 44 14.5 114.5t29.5 116.5q1 2 3.5 12.5t5.5 16t10 11.5t17 6q18 0 22.5 -10.5t16.5 -76.5
q1 -4 2.5 -13.5t2.5 -13.5q1 -2 4 -35t8.5 -59.5t12.5 -26.5q8 0 53 51q57 63 116 131q28 33 80.5 96t59.5 71q28 33 82 101q19 27 28 27q12 0 12 -6z" />
    <glyph glyph-name="Y" unicode="Y" horiz-adv-x="548" 
d="M606 594q22 0 22 -25q0 -15 -8 -36q-64 -161 -147 -276t-213 -217q-44 -35 -69 -53t-68.5 -38t-79.5 -20q-33 0 -53 17.5t-20 47.5q0 34 27.5 73t61.5 39q25 0 39 -15t16.5 -33.5t6.5 -33.5t10 -15q10 0 24.5 7t32.5 21t30.5 24.5t30.5 27t22 19.5t12.5 10t13 10.5
t8.5 9.5t4 12q0 8 -5.5 23t-6.5 23q-15 75 -15 177q0 103 13 213l7 56q0 6 -2 6q-5 0 -24 -58.5t-23 -79.5q-13 -72 -13 -127q0 -19 4 -59.5t4 -60.5q0 -37 -24 -37q-35 0 -35 138q0 59 16.5 140.5t46 146.5t60.5 65q44 0 44 -38q0 -13 -5 -53.5t-7 -68.5q-7 -108 -7 -181
q0 -109 14 -187q2 -5 4 -5q4 0 11.5 9t18 24t12.5 18q72 89 111 161.5t66 166.5q6 20 12 26t20 6zM51 56q-16 0 -25.5 -19.5t-9.5 -43.5q0 -21 26 -21q18 0 23 6t5 27q0 51 -19 51z" />
    <glyph glyph-name="Z" unicode="Z" horiz-adv-x="677" 
d="M384 322q17 9 51 54t58 83q3 5 13.5 19.5t17 25.5t6.5 15t-46 32q-121 76 -181 76q-50 0 -93.5 -27.5t-43.5 -78.5q0 -19 12 -34t31 -15t38 13t27 13q13 0 13 -21q0 -22 -25 -39t-58 -17t-56 29.5t-23 66.5q0 67 51 117t122 50q73 0 206 -81q5 -3 15 -10t16 -11t14 -7.5
t14 -3.5q3 0 20.5 19.5t47.5 39t65 19.5q20 0 30 -13t10 -32q0 -39 -52 -68.5t-100 -29.5q-11 0 -58 -75q-12 -18 -37.5 -51t-33.5 -46q-1 -1 -1 -3q0 -5 15 -5q19 0 60 6.5t65 6.5t24 -16q0 -5 -3 -9.5t-9.5 -8t-12 -6t-15.5 -4.5l-15 -3l-15 -3t-11 -2q-21 -3 -64.5 -8
t-54.5 -6q-5 0 -24.5 -21t-49 -53t-48.5 -49q-30 -28 -31 -39q0 -3 2 -5q25 -32 71.5 -58.5t78.5 -26.5q33 0 75.5 22.5t71.5 47t62.5 55.5t35.5 33q9 8 19 8q7 0 12 -5.5t5 -12.5q0 -8 -14 -22q-175 -175 -275 -175q-68 0 -135 48q-4 3 -22.5 17t-28.5 20.5t-15 6.5
q-9 0 -43 -22t-77.5 -43.5t-76.5 -21.5q-40 0 -63 22t-23 56q0 62 40.5 117.5t87.5 55.5q32 0 69 -21t62.5 -42.5t31.5 -21.5q5 0 11 3.5t14 10.5t13.5 12t14.5 14.5t11 11.5q43 41 63 71q-4 2 -15 2q-10 0 -35 -3t-37 -3q-36 0 -36 24q0 30 45 30q4 0 12.5 -0.5t13.5 -0.5
q65 0 93 7zM617 559q26 4 50.5 17.5t24.5 22.5q0 4 -7 4q-12 0 -32 -11.5t-36 -32.5zM164 103q0 12 -44.5 40.5t-64.5 28.5q-37 0 -60 -31.5t-23 -75.5q0 -42 36 -42q12 0 24.5 4t33.5 15l21 10q77 35 77 51z" />
    <glyph glyph-name="bracketleft" unicode="[" horiz-adv-x="320" 
d="M478 715q0 -23 -40 -23q-11 0 -32.5 2t-31.5 2t-24 -3q-10 -4 -17.5 -19t-15 -42t-9.5 -33q-182 -516 -214 -602q-2 -5 -13.5 -30t-20 -46t-8.5 -30q0 -6 4 -6q42 3 74 3q89 0 89 -26q0 -18 -18 -18q-5 0 -31 3.5t-47 3.5q-33 0 -61 -6q-37 -8 -50 -8q-32 0 -32 26
q0 10 12.5 20.5t15.5 15.5q5 8 10 27.5t8 26.5q30 77 64 170.5t56.5 159t62 180.5t57.5 168q2 5 7 22.5t9 29t11.5 25.5t18 21.5t24.5 7.5q6 0 29 0.5t37 0.5q76 0 76 -23z" />
    <glyph glyph-name="backslash" unicode="\" horiz-adv-x="352" 
d="M111 637q47 -189 98.5 -342t132.5 -352q2 -11 -4.5 -18.5t-15.5 -7.5q-10 0 -17 9q-65 160 -95.5 238.5t-72.5 206.5t-74 257q-1 10 7 16t18 6q16 0 23 -13z" />
    <glyph glyph-name="bracketright" unicode="]" horiz-adv-x="320" 
d="M349 670q0 -17 -20 -70q-98 -268 -242 -679q-3 -8 -8 -26t-9 -28t-11 -23t-17 -19.5t-23 -7.5q0 -2 -2 -2q-12 0 -64 -5.5t-76 -5.5q-39 0 -40 12q-2 14 11.5 22t35.5 10.5t44.5 3.5t44.5 2.5t30 4.5q10 4 17.5 19t15 42t9.5 33q182 516 214 602q24 62 24 98q0 14 -6 14
q-23 2 -65 -0.5t-49 -2.5q-20 0 -29 4t-5 15q6 15 41 19.5t121 4.5q58 0 58 -37z" />
    <glyph glyph-name="asciicircum" unicode="^" horiz-adv-x="490" 
d="M289 544q-68 -92 -148 -142l-19 -13q-18 -13 -30.5 -19t-21.5 -6q-8 0 -13.5 6.5t-5.5 14.5q0 14 16 24q33 20 52.5 32.5t52 36.5t57 49.5t42.5 53.5q2 3 9.5 21t16 29t17.5 11q16 0 19 -20q0 -3 -1 -11.5t-1 -16.5q0 -56 25.5 -119.5t62.5 -83.5q15 -8 15 -22
q0 -11 -9.5 -19.5t-22.5 -8.5q-8 0 -15 3q-40 16 -70.5 78t-27.5 122z" />
    <glyph glyph-name="underscore" unicode="_" horiz-adv-x="394" 
d="M338 -73q0 -18 -30 -24q-110 -21 -359 -21h-67q-15 0 -15 14q0 8 7 14t19 6h26q141 0 385 28q16 2 25 -3t9 -14z" />
    <glyph glyph-name="grave" unicode="`" horiz-adv-x="162" 
d="M82 595q9 -60 38 -116q3 -6 3 -11q0 -8 -5.5 -14.5t-13.5 -6.5t-16 8q-18 18 -37.5 59.5t-19.5 67.5q0 13 9.5 21t21.5 8q17 0 20 -16z" />
    <glyph glyph-name="a" unicode="a" horiz-adv-x="515" 
d="M11 147q-9 -4 -19.5 2t-10.5 16q0 9 10 18q33 31 84 71q7 6 27 22t28.5 22.5t26 19.5t29 19t27.5 13.5t30 10.5t29 3q9 0 15 -6.5t6 -14.5q0 -17 -36 -43q-24 -18 -81.5 -47.5t-68.5 -39.5q-21 -19 -40.5 -60t-19.5 -72q0 -42 39 -42q46 0 109.5 62t83.5 110q19 46 54 97
t65 51q21 0 21 -23q0 -20 -45 -73t-62 -88q-28 -59 -28 -95q0 -38 32 -38q20 0 49 16q17 10 52.5 42.5t64.5 60t34 27.5q7 0 13 -6t6 -13q0 -15 -78 -85t-118 -84q-24 -8 -39 -8q-32 0 -45.5 19t-16.5 46t-4 30l-4 -3q-30 -35 -77 -66t-83 -31q-39 0 -58 23.5t-19 60.5
q0 34 17 73z" />
    <glyph glyph-name="b" unicode="b" horiz-adv-x="477" 
d="M338 230q-2 -22 -2 -40v-10t0.5 -11.5t0.5 -11t1 -10.5t2 -9.5t3 -9t4 -6.5t5.5 -4.5t7.5 -1.5q36 0 104 66q5 5 13 5q7 0 12.5 -4.5t5.5 -12.5q0 -12 -9 -20q-85 -76 -138 -76q-15 0 -25 7.5t-15.5 23.5t-7.5 26.5t-4 28.5q-2 6 -4 6q-4 0 -11.5 -10t-16.5 -24t-13 -19
q-96 -118 -169 -118q-53 0 -53 91q0 29 6 71q1 11 -1 11q-1 0 -20 -17q-10 -8 -20.5 -3t-12.5 14.5t6 17.5q21 16 41.5 38t24.5 33q63 185 226 335q60 56 140.5 106.5t133.5 50.5q34 0 34 -33q0 -32 -29 -85q-25 -44 -65.5 -86.5t-99.5 -85.5t-102 -70.5t-115 -70.5
q-49 -29 -70 -83q-24 -62 -24 -134q0 -21 3 -39q1 -10 16 -10q68 0 183 187q16 81 56 81q18 0 18 -22q0 -28 -20 -62zM537 690q0 5 -7 5q-19 0 -68.5 -29t-85.5 -56q-68 -52 -127.5 -117.5t-88.5 -120.5q-7 -14 -7 -21q0 -6 5 -6q7 0 19 8q163 97 262 196q28 28 63 73t35 68
z" />
    <glyph glyph-name="c" unicode="c" horiz-adv-x="324" 
d="M283 315q0 -34 -22.5 -66.5t-49.5 -32.5q-8 0 -15.5 5.5t-7.5 12.5q0 20 20 42.5t20 32.5q0 15 -14 15q-67 0 -126 -68.5t-59 -139.5q0 -64 65 -64q84 0 217 130q7 6 17 3t13 -11.5t-5 -20.5q-37 -45 -107 -91q-92 -62 -153 -62q-49 0 -76 34.5t-27 87.5q0 52 36 109.5
t93.5 96.5t114.5 39q66 0 66 -52z" />
    <glyph glyph-name="d" unicode="d" horiz-adv-x="391" 
d="M294 629q-19 37 -58 60.5t-86 23.5q-126 0 -224 -126q-21 -33 -42 -33q-8 0 -14 5.5t-6 14.5q0 18 18 44t31 39q105 101 233 101q116 0 174 -78.5t58 -196.5q0 -102 -43.5 -215.5t-120 -194.5t-157.5 -81q-55 0 -55 66q0 47 22 89q2 4 2 5q0 2 -2 2q-1 0 -9 -3t-14 -3
q-7 0 -13.5 5t-6.5 13q0 13 17 25q121 95 156 118q1 1 12.5 7.5t18.5 10t18 7.5t18 4q18 0 18 -22q0 -13 -12.5 -25.5t-25 -19.5t-33.5 -16t-23 -10q-23 -12 -57.5 -79t-34.5 -105q0 -24 18 -24q37 0 81 38.5t70.5 78t42.5 71.5q62 129 62 254q0 88 -33 150z" />
    <glyph glyph-name="e" unicode="e" horiz-adv-x="330" 
d="M264 327q0 -23 -9.5 -42t-32 -36.5t-37.5 -27t-49.5 -27.5t-45.5 -24q-8 -4 -24 -10.5t-26 -11.5t-11 -9q-2 -16 -2 -22q0 -40 23 -58.5t54 -18.5q72 0 212 140q9 9 19.5 5.5t13 -13.5t-6.5 -21q-51 -52 -82.5 -80t-79 -52t-95.5 -24q-54 0 -83 37t-29 88q0 77 76 171
t154 94q25 0 43 -15.5t18 -42.5zM192 340q-31 0 -76 -46t-57 -77q-2 -6 -2 -7q0 -7 9 -7q27 0 83.5 43t56.5 73q0 21 -14 21z" />
    <glyph glyph-name="f" unicode="f" horiz-adv-x="440" 
d="M448 684q14 0 14 -16q0 -14 -13 -31q-134 -180 -236 -353q-7 -12 -7 -18q0 -5 4 -5q2 0 5.5 2t11 5t16.5 5q18 5 41 5q22 0 35.5 -13t13.5 -36q0 -35 -22 -72q-21 -38 -21 -41q0 -4 8 -4q22 0 50 14q11 4 24 12t21.5 14.5t19 16t11.5 10.5q18 14 29 1t-1 -27t-55 -41.5
t-64 -34.5q-7 -2 -34 -7.5t-39 -10.5q-6 -2 -14 -8.5t-17.5 -16.5t-16 -18t-17 -20.5t-13.5 -16.5q-17 -21 -53 -63.5t-86.5 -97.5t-95.5 -94.5t-63 -39.5q-19 0 -19 27q0 12 5 30t10.5 31.5t12.5 29.5t8 18q60 141 286 500q15 24 15 30q0 2 -2 2q-4 0 -26 -25
q-3 -3 -35 -39.5t-67 -75t-55 -57.5q-10 -9 -21 -5.5t-12.5 13.5t8.5 23q176 184 419 474q20 24 37 24zM264 229q-23 0 -39 -21.5t-16 -48.5q0 -12 8 -23t18 -11q4 0 6 1q6 3 23 34.5t17 50.5q0 18 -17 18zM159 177q-37 -48 -111 -176t-102 -193q-19 -41 -19 -49q0 -2 2 -2
q3 0 30 25q34 32 104 111.5t104 124.5q27 36 33 58v3l1 3q0 3 -4 6t-10.5 8t-11.5 11q-10 15 -13 64q-1 7 -3 6z" />
    <glyph glyph-name="g" unicode="g" horiz-adv-x="446" 
d="M386 387q17 0 17 -19q0 -22 -26 -64q-11 -18 -50 -84.5t-62 -103.5q-5 -5 -16.5 -22.5t-11.5 -26.5q0 -6 7 -6q22 0 88 42t98 75q11 11 22 8t12 -14t-7 -21q-31 -31 -86.5 -65.5t-112 -63.5t-69.5 -38t-25 -22.5t-25 -34.5t-18 -28q-40 -55 -62.5 -83t-63 -70t-89 -72.5
t-111.5 -57.5q-36 -17 -68 -17q-26 0 -26 22q0 24 23 67q81 150 355 294q6 3 24 11.5t23.5 12t18 13t22 22t22.5 31.5q36 54 36 67q0 2 -2 2q-13 0 -72 -52q-76 -66 -124 -66q-23 0 -40 16.5t-17 49.5q0 92 89 191q100 111 183 111q28 0 28 -19q0 -17 -34 -57
q-52 -59 -141 -121q-4 -3 -19.5 -12.5t-20.5 -14.5t-14.5 -15.5t-13 -23.5t-3.5 -30q0 -25 14 -25q11 0 33.5 11.5t34.5 19.5q75 52 129 109t114 141q2 2 6.5 9t6.5 9.5t6.5 7t8.5 6t9 1.5zM194 324q0 4 -5 4q-16 0 -47.5 -30t-33.5 -44q0 -3 3 -3q12 0 47.5 31t35.5 42z
M94 -56q-37 0 -159.5 -89t-151.5 -143q-2 -3 -8.5 -13.5t-11 -19t-4.5 -13.5q0 -9 10 -9q17 0 52 19q124 59 245 214q6 6 19 24t13 26q0 4 -4 4z" />
    <glyph glyph-name="h" unicode="h" horiz-adv-x="654" 
d="M496 684q0 -14 -20 -44q-186 -275 -281 -456q-1 -1 -1 -4t2 -3q5 0 19 10.5t34.5 28.5t22.5 20q4 3 22 18t26.5 22t26.5 20.5t30.5 20t29.5 15t33 12t31 3.5q42 0 42 -43q0 -39 -38.5 -113.5t-38.5 -111.5q0 -24 24 -24q29 0 84.5 42t95.5 83q9 10 20 6.5t12.5 -14
t-6.5 -20.5q-69 -66 -122.5 -103t-97.5 -37q-63 0 -63 63q0 37 33.5 107t33.5 93q0 14 -13 14q-36 0 -152.5 -95t-169.5 -154q-3 -3 -12.5 -16.5t-17.5 -21t-16 -7.5q-19 0 -19 19q0 12 8.5 27t19.5 30t12 17q20 36 63.5 117.5t74.5 136.5q33 60 33 62q0 1 -1 1
q-2 0 -19 -18q-144 -165 -228 -235q-16 -14 -27 0q-12 16 5 33q102 96 235 240t216 249q20 25 38 25q7 0 11.5 -4.5t4.5 -10.5z" />
    <glyph glyph-name="i" unicode="i" horiz-adv-x="278" 
d="M236 574q24 0 24 -28q0 -20 -15 -53.5t-32 -33.5q-11 0 -11 10q0 3 2 17.5t2 25.5q0 4 -1.5 13.5t-1.5 14.5q0 14 10.5 24t22.5 10zM11 151q-17 -8 -26.5 6.5t4.5 25.5q28 23 63 58t37 36q6 6 24.5 23.5t30.5 28t30.5 20.5t35.5 10q22 0 22 -23q0 -26 -26 -71
q-38 -68 -70 -132q-1 -3 -8 -17t-11.5 -25t-4.5 -19q0 -11 9 -11q13 0 41 24q28 22 102 96q9 9 20 5.5t13 -14t-8 -21.5q-11 -10 -39.5 -37t-50.5 -47t-39 -34q-2 -1 -10.5 -8t-13.5 -10.5t-13 -8t-16 -7t-16 -2.5q-35 0 -35 37q0 14 3 28q4 18 16 44t32.5 65t27.5 55
q17 34 17 42q0 6 -4 6q-5 0 -15 -10q-19 -15 -63.5 -58.5t-58.5 -54.5z" />
    <glyph glyph-name="j" unicode="j" horiz-adv-x="247" 
d="M241 593q25 0 25 -28q0 -24 -17.5 -51t-33.5 -27q-12 0 -12 27q0 26 11.5 52.5t26.5 26.5zM213 393q18 0 18 -23q0 -20 -13 -42q-3 -6 -29.5 -53.5t-34 -60.5t-31 -54t-36 -61t-32.5 -52.5t-37 -58t-35 -49.5q-70 -95 -151 -169.5t-159 -98.5q-42 -13 -47 -13
q-14 0 -14 11q0 5 4.5 9.5t9 6.5t12.5 4.5t9 3.5q61 23 124.5 76t118.5 123t97 133t80 131q52 92 52 95l-2 1q-2 0 -14 -13q-8 -9 -39.5 -38t-50.5 -49q-6 -7 -17 -3t-14 13.5t7 20.5q8 7 61 55t82.5 77.5t43.5 49.5q19 28 37 28z" />
    <glyph glyph-name="k" unicode="k" horiz-adv-x="541" 
d="M255 185q11 0 22.5 -7.5t14.5 -17.5q5 -18 5 -43q0 -2 -0.5 -9.5t-0.5 -14t0.5 -16t2 -17t4 -14t7.5 -10.5t11 -4q22 0 62 25.5t70 53.5q56 52 70 66q19 18 33 4q12 -13 -2 -27q-110 -110 -179 -149q-57 -31 -81 -31q-21 0 -35 15t-14 68v18.5t0.5 18.5t0 16t-1.5 14.5
t-3 11t-5 8t-8 2.5q-9 0 -17.5 -6t-20 -18.5t-13.5 -14.5q-39 -37 -116 -118q-1 -1 -10.5 -11.5t-14 -14t-14 -8.5t-17.5 -5q-26 0 -26 18q0 8 7.5 21t19 29t15.5 25q20 41 125.5 237.5t150.5 314.5q39 102 63 102q8 0 13 -9t5 -18t-3.5 -22.5t-10 -30t-11.5 -29t-14 -31.5
t-12 -26q-37 -81 -115.5 -228.5t-107.5 -207.5q8 0 19 10.5t23 25.5t15 18q136 133 190 182l9 7q9 8 15 13t15.5 11.5t18.5 10t16 3.5q9 0 15 -8t6 -19q0 -16 -11.5 -31.5t-25.5 -24.5q-10 -5 -25.5 -9t-19.5 0q-44 -28 -109 -99z" />
    <glyph glyph-name="l" unicode="l" horiz-adv-x="366" 
d="M444 671q15 0 15 -16q0 -18 -18 -40q-107 -133 -201.5 -292t-94.5 -238q0 -35 26 -35q46 0 178 127q11 10 22.5 7.5t13 -13t-7.5 -21.5q-157 -151 -220 -151q-32 0 -48 21.5t-16 58.5q0 39 28 110.5t85 161.5q6 11 6 14q0 2 -2 2q-5 0 -12 -10q-35 -44 -100.5 -116.5
t-83.5 -88.5q-10 -9 -20.5 -5t-12 14.5t7.5 21.5q239 246 406 454q27 34 49 34z" />
    <glyph glyph-name="m" unicode="m" horiz-adv-x="833" 
d="M398 119q30 24 106 94t110 97q65 51 104 51q18 0 29.5 -14t11.5 -33q0 -17 -7 -37t-22.5 -44.5t-27 -41.5t-33.5 -45.5t-29 -38.5q-34 -45 -34 -65q0 -6 6 -6q11 0 68 38q73 47 142 109q16 10 26.5 -2.5t-1.5 -25.5q-75 -83 -182 -140q-46 -26 -76 -26q-39 0 -39 37
q0 28 23 68q8 14 62.5 92t60.5 110q2 8 -5 8q-24 0 -107 -73q-122 -111 -235 -204q-34 -24 -46 -24q-7 0 -12 5.5t-5 13.5t4 18t7.5 16t11.5 18l10 15q3 5 20 29.5t27.5 42t24.5 41.5t21.5 44.5t7.5 35.5q0 14 -12 14q-32 0 -134 -84q-43 -36 -113 -101.5t-103 -93.5
q-19 -19 -36 -19q-5 0 -9.5 4.5t-4.5 10.5q0 8 6.5 19t17.5 24.5t12 15.5q68 91 99 148q32 59 32 67q0 3 -3 3q-13 0 -62 -44q-15 -13 -49 -47t-50 -48q-16 -7 -25.5 4.5t1.5 26.5q16 14 59 55.5t76.5 71t55.5 41.5q20 11 37 11q13 0 21 -10t8 -25q0 -24 -19 -53
q-9 -15 -17.5 -28.5t-19 -31.5l-17.5 -30q13 6 32.5 21.5t45 38.5t35.5 31q83 67 139 67q23 0 37 -16t14 -40q0 -18 -8.5 -42t-18.5 -41t-26.5 -44.5t-22.5 -38.5z" />
    <glyph glyph-name="n" unicode="n" horiz-adv-x="618" 
d="M635 156q-118 -112 -164 -138q-45 -26 -82 -26q-22 0 -37 14.5t-15 37.5q0 27 16 66q4 9 26 50.5t39.5 80t17.5 54.5t-14 16q-31 0 -137 -81q-76 -58 -195 -182q-2 -2 -12 -14t-16.5 -18.5t-16.5 -13t-19 -6.5q-16 0 -16 16q0 7 5 16.5t11 17t13.5 17t9.5 11.5
q95 125 124 236q-7 -1 -14 -6.5t-11 -9t-12.5 -13t-10.5 -11.5q-70 -82 -113 -118q-9 -8 -19 -3t-11.5 15t6.5 19q45 37 143 157q46 59 77 59q14 0 22 -10.5t8 -26.5q0 -36 -29 -98q-2 -5 -10 -19t-12.5 -25.5t-2.5 -20.5q13 5 30.5 19.5t42 37.5t34.5 32q79 67 135 67
q30 0 51 -14.5t21 -44.5q0 -36 -25 -84t-50 -89t-25 -59q0 -21 18 -21q17 0 45 17q57 34 144 121q13 13 25.5 2t4.5 -27z" />
    <glyph glyph-name="o" unicode="o" horiz-adv-x="379" 
d="M256 364q31 0 47 -24t16 -58q0 -62 -36.5 -130.5t-98.5 -116.5t-126 -48q-39 0 -56 29.5t-17 69.5q0 10 3 27t3 23t-5 14t-5 16t6 15t18 15.5t18 15.5q12 13 30 36t36.5 41.5t46.5 36.5q31 17 40 17q15 0 15 -20q0 -40 -79 -97q-76 -55 -76 -143q0 -20 11.5 -33.5
t29.5 -13.5q63 0 129 83.5t66 152.5q0 26 -22 33q-26 9 -26 29q0 13 9 21.5t23 8.5z" />
    <glyph glyph-name="p" unicode="p" horiz-adv-x="548" 
d="M306 78h-5q-25 0 -55.5 -13t-30.5 -27q0 -7 9 -7q16 0 46.5 17.5t35.5 29.5zM171 306q-5 -1 -10.5 -3.5t-10.5 -7t-8 -8t-8.5 -10.5t-7.5 -9q-36 -42 -110 -112q-7 -7 -15 -7t-13.5 5.5t-5.5 13.5t7 15q82 76 137 150q4 5 13 18.5t14 19t13 13.5t16 11t18 3q30 0 30 -37
q0 -17 -13.5 -54t-13.5 -46q0 -5 4 -5t23 14.5t41 33t28 22.5q75 49 118 49q74 0 74 -71q0 -63 -46 -139t-112 -128.5t-121 -52.5q-61 0 -61 40q0 21 15 38.5t43.5 29t51 18t55.5 13t39 8.5q33 35 55 77t22 70q0 20 -11 30t-26 10q-47 0 -114 -54q-82 -65 -131 -124.5
t-95 -142.5q-110 -193 -164 -339q-4 -11 -10.5 -44.5t-15 -53.5t-24.5 -20q-24 0 -24 32q0 29 14 68q26 78 72.5 173.5t75.5 145t94 159.5q8 14 26.5 43t29.5 47t23.5 45t18.5 53z" />
    <glyph glyph-name="q" unicode="q" horiz-adv-x="492" 
d="M411 310q0 -24 -37 -82q-29 -46 -50.5 -85t-49 -92.5t-39.5 -75.5q-23 -46 -23 -49q0 -5 4 -5q9 0 17 12q77 89 119 131q14 14 35 33.5t49 45t43 39.5q10 9 20.5 4.5t11.5 -15t-8 -20.5q-157 -141 -243 -237q-121 -135 -211 -286q-17 -34 -32 -34q-17 0 -17 18
q0 16 21 62q15 34 34 70t44 81t36 65q17 31 55 95t61 111q15 22 15 37q0 5 -6 5q-12 0 -63 -39q-74 -56 -103 -69q-39 -16 -71 -16q-26 0 -45 15t-19 41q0 14 7 44q32 110 164 232q63 57 114 57q37 0 37 -28q0 -14 -11 -33q-8 -15 -23 -29.5t-26.5 -23.5t-33 -24t-29.5 -21
q-50 -38 -60 -44q-52 -34 -60 -46q-8 -11 -16.5 -32.5t-8.5 -36.5q0 -25 26 -25q21 0 51.5 14t44.5 24q106 66 211 200l6 9q7 9 10.5 13t11 8.5t14.5 4.5q9 0 16 -6.5t7 -16.5zM210 348q0 3 -4 3q-7 0 -20.5 -7.5t-20.5 -15.5q-19 -19 -42 -51q-7 -8 -7 -11q0 -2 2 -2
q11 0 51.5 36.5t40.5 47.5z" />
    <glyph glyph-name="r" unicode="r" horiz-adv-x="433" 
d="M16 156q-16 -14 -29.5 -3.5t-0.5 27.5q20 18 54 65.5t48 81.5q5 11 12 32t11.5 32t13.5 20t20 9q21 0 39.5 -19t30 -41t27 -41t31.5 -19q3 0 25.5 13t35.5 13q9 0 16 -6.5t7 -16.5q0 -28 -71 -61q-16 -8 -60 -70.5t-44 -99.5q0 -15 10 -24.5t26 -9.5q60 0 196 137l8 8
q18 11 28 -3.5t-6 -28.5q-3 -2 -46 -42t-65 -57.5t-63.5 -38t-76.5 -20.5q-67 0 -67 67q0 42 28.5 97.5t78.5 106.5q0 4 -9 11t-24.5 21.5t-25.5 32.5q-11 19 -20 19q-11 0 -29 -44q-14 -34 -47.5 -78t-61.5 -70z" />
    <glyph glyph-name="s" unicode="s" horiz-adv-x="350" 
d="M280 436q0 -24 -32 -56t-38 -49q-4 -12 -4 -32q0 -4 6 -70q0 -3 1.5 -30.5t4.5 -41.5q4 -19 19 -19q20 0 50.5 13t45.5 28q11 9 18 9q8 0 13.5 -6.5t5.5 -15.5q0 -7 -6 -13q-16 -16 -50 -31t-52 -19q-35 -9 -40 -16q-6 -11 -7.5 -32.5t-2.5 -25.5q-10 -47 -44 -76
q-36 -30 -85 -30q-33 0 -56.5 16.5t-23.5 47.5q0 39 33 70t72 46q53 19 58 30q4 11 4 32q0 16 -2 42q-5 46 -5 48q0 1 -1 4t-1.5 6t-2.5 5.5t-4 2.5q-6 0 -14 -6t-19.5 -17.5l-12.5 -12.5q-50 -47 -94 -83q-8 -6 -16 -6q-7 0 -12 4.5t-5 11.5q0 10 10 19t40 35.5t52.5 47.5
t37.5 38q31 34 39 53q3 9 7 28t8 27q22 47 74 47q31 0 31 -23zM165 80q-10 0 -39 -12t-37 -19q-40 -32 -40 -57q0 -28 39 -28q24 0 48 15q35 24 35 82q0 19 -6 19z" />
    <glyph glyph-name="t" unicode="t" horiz-adv-x="386" 
d="M85 349l53 6q27 3 84 57q13 12 49.5 59t42.5 53q10 10 19 10q13 0 13 -15q0 -13 -15 -34q-8 -14 -27 -43.5t-30.5 -48t-11.5 -23.5q0 -6 14 -6q10 0 53 8.5t55 8.5q20 0 20 -22q0 -9 -10 -15t-28 -9.5t-35.5 -6t-40 -5t-34.5 -4.5q-29 -6 -39 -20q-36 -47 -71.5 -122
t-35.5 -112q0 -20 9 -27.5t27 -7.5q69 0 210 135q22 22 30 22t14 -6t6 -14q0 -7 -13 -20q-31 -31 -53 -50.5t-62 -51t-78 -48t-72 -16.5q-30 0 -47 23t-17 58q0 65 78 200q2 3 9 14.5t12.5 21t5.5 10.5q0 2 -2 2q-7 0 -28 -27l-14 -16q-14 -16 -31.5 -35t-40 -42t-39.5 -37
q-7 -5 -12 -5q-8 0 -14.5 6.5t-6.5 14.5t7 14q52 45 110 110q7 7 7 11q0 6 -23 6q-17 0 -17 18q0 19 20 21z" />
    <glyph glyph-name="u" unicode="u" horiz-adv-x="571" 
d="M104 208l5 10q16 32 16 37q0 2 -2 2q-12 0 -93 -90q-3 -5 -13 -12.5t-18 -7.5q-7 0 -12 6.5t-5 14.5q0 12 26 34q70 65 141 149q1 1 10.5 13t15.5 19t16 14t18 7q22 0 22 -29q0 -25 -18 -65q-9 -19 -37.5 -73t-42.5 -89q-23 -58 -23 -87q0 -11 10 -11q28 0 93 62
q69 63 166 176q2 2 10.5 12.5t15 17.5t15.5 15.5t18.5 13t18.5 4.5q25 0 25 -28q0 -19 -13 -47q-33 -67 -56 -120q-33 -77 -33 -100q0 -10 10 -10q21 0 51 24q19 15 63.5 59t49.5 49q10 10 18 10q7 0 12.5 -6t5.5 -13q0 -11 -9 -20q-11 -10 -42 -40t-54.5 -51.5t-43.5 -35.5
q-43 -32 -66 -32q-50 0 -50 48q0 30 24 90q4 11 14 32t17 38.5t9 31.5q-11 -5 -23 -16t-27 -29t-20 -23q-46 -50 -120 -114q-2 -2 -10.5 -9.5t-12 -10.5t-11 -9t-13 -9t-13.5 -6.5t-15.5 -5t-15.5 -1.5q-24 0 -37.5 18t-13.5 50q0 47 47 143z" />
    <glyph glyph-name="v" unicode="v" horiz-adv-x="509" 
d="M338 139q-48 -50 -117 -99t-114 -49q-33 0 -33 42q0 46 45 153.5t45 112.5q0 3 -2 3q-5 0 -33.5 -30.5t-63 -68.5t-48.5 -49q-8 -7 -17 -7t-14.5 5.5t-5.5 13.5q0 10 8 15q46 35 163 183q22 28 48 28q15 0 25 -11t10 -32q0 -11 -3 -24q-4 -21 -52 -133.5t-48 -136.5
q0 -10 8 -10q29 0 92 48.5t84 83.5q-10 28 -10 67q0 34 11.5 71.5t39 68t65.5 30.5q17 0 34.5 -12t17.5 -38q0 -65 -57 -134q-32 -39 -33 -44l-1 -2v-2q0 -10 14 -16t29 -6q46 0 78 27q3 3 8 3q8 0 14.5 -7t6.5 -16q0 -8 -7 -14q-45 -36 -108 -36q-48 0 -79 22zM415 370
q-25 0 -41.5 -40t-16.5 -76q0 -17 4 -18q9 -2 38.5 45t29.5 73q0 16 -14 16z" />
    <glyph glyph-name="w" unicode="w" horiz-adv-x="710" 
d="M590 159q10 -8 28 -8q21 0 44 9t35 23q6 7 17.5 4t15 -12.5t-5.5 -20.5q-39 -40 -123 -40h-39q-8 0 -35 -20t-58 -44t-72.5 -44.5t-74.5 -20.5q-32 0 -32 39q0 26 24 95q1 4 8 20.5t11.5 30.5t4.5 22q0 4 -2 4q-5 0 -46 -52.5t-94 -105t-87 -52.5q-31 0 -31 41
q0 33 16 76q9 24 58 136q23 55 23 64q0 6 -4 6q-3 0 -11 -6q-23 -18 -72.5 -74t-74.5 -76q-5 -5 -13 -5t-13.5 5.5t-5.5 12.5q0 10 11 18q31 24 76 79.5t81.5 93.5t64.5 38q12 0 21.5 -10t9.5 -28q0 -23 -15 -64q-14 -38 -42.5 -97.5t-43.5 -98.5q-11 -30 -11 -37q0 -9 8 -9
q15 0 45 30q45 44 112.5 136.5t101.5 131.5q27 30 44 31q19 0 19 -23q0 -27 -21 -62q-57 -112 -74 -162q-24 -72 -24 -86q0 -13 8 -13q26 0 91 41t65 60q0 9 -13 38.5t-13 54.5q0 65 39 123.5t102 58.5q26 0 41.5 -18t15.5 -48q0 -49 -55 -130q-32 -46 -35 -55zM602 362
q-25 0 -44.5 -42t-19.5 -85q0 -34 13 -48q0 -1 2 -1q10 0 47 64q29 48 29 83q0 29 -27 29z" />
    <glyph glyph-name="x" unicode="x" horiz-adv-x="496" 
d="M240 239q32 20 81 90t49 102q0 9 -18 13q-1 0 -6.5 0.5t-8 0.5t-7 1.5t-6.5 3.5t-4 5.5t-2 8.5q0 31 60 31q20 0 33.5 -11t13.5 -32q0 -29 -30 -80q-30 -55 -94 -132q-5 -6 -17 -17t-19.5 -20.5t-7.5 -17.5q0 -22 18.5 -74.5t38.5 -52.5q19 0 57 27t64 50.5t47 44.5
q13 13 23.5 8.5t10.5 -16.5t-7 -20q-10 -8 -45.5 -40.5t-60.5 -53t-58 -39.5t-56 -19q-42 0 -74 130q-10 -5 -21.5 -15t-29.5 -28l-21 -21q-81 -79 -130 -114q-3 -2 -13.5 -10.5t-17 -14t-16 -10t-16.5 -4.5t-13.5 5t-6.5 13t6 19t18 27.5t15 20.5q24 37 42 74q49 98 69 158
q1 4 9 29.5t13 37.5t14.5 30t22.5 26.5t29 8.5q18 0 31 -14t18 -29t12.5 -42.5t10.5 -37.5zM162 300q-8 0 -23 -21q-15 -23 -46 -107q-7 -19 -22 -53t-24.5 -58t-9.5 -31q0 -4 2 -4q5 0 14 6t21 18t20.5 21t21 22.5t13.5 14.5q4 5 15 16t18.5 19.5t16.5 18.5t13.5 18t4.5 13
t-4 19q-1 5 -5 20.5t-6.5 24.5t-6 20.5t-7 17t-6.5 5.5z" />
    <glyph glyph-name="y" unicode="y" horiz-adv-x="439" 
d="M376 292l-50 -74q-164 -243 -258 -355q-274 -327 -526 -335h-13q-65 0 -125.5 30.5t-61.5 76.5q0 6 5.5 9.5t10.5 -1.5q78 -72 206 -72q257 0 621 513q2 2 10 14.5t8 17.5q0 4 -3 4q-1 0 -58 -33q-66 -37 -102 -37q-33 0 -48 20t-15 69q0 28 27 83.5t62 101t56 45.5
q12 0 18.5 -6t6.5 -15q0 -12 -31.5 -56t-62.5 -93.5t-31 -74.5q0 -29 29 -29q39 0 128 66t127 117q3 4 19 34t33.5 51t33.5 21q9 0 16 -7t7 -15q0 -15 -39 -70z" />
    <glyph glyph-name="z" unicode="z" horiz-adv-x="372" 
d="M314 370q0 -12 -10.5 -24.5t-26.5 -25t-20 -17.5q-6 -7 -25.5 -28t-26.5 -29q-24 -32 -24 -42q0 -14 13 -20.5t32.5 -11t26.5 -8.5q30 -19 30 -56q0 -30 -22 -71q-59 -108 -162.5 -192.5t-223.5 -130.5q-34 -14 -63 -14q-33 0 -33 28q0 41 71.5 118t134.5 115
q25 17 40 17q8 0 14 -6t6 -15q0 -17 -37 -39q-63 -32 -129 -98q-41 -41 -41 -60q0 -8 11 -8q15 0 42 12q51 23 128 80t144.5 135t67.5 134q0 14 -15 22.5t-33.5 12.5t-33.5 15t-15 28q0 21 39 75q20 29 65 74q4 4 -12 4q-34 2 -48 -5q-2 -1 -37 -51q-38 -53 -124 -132
q-12 -11 -23 -7.5t-11.5 14.5t8.5 22q64 56 106 111q35 44 35 60q0 4 -3.5 13t-3.5 15q0 18 25 18q8 0 25.5 -5t29.5 -5t37 2.5t35 2.5q37 0 37 -27z" />
    <glyph glyph-name="braceleft" unicode="{" horiz-adv-x="320" 
d="M151 294q11 -20 11 -51q0 -23 -11.5 -54.5t-34 -76.5l-25.5 -51q-33 -77 -33 -116q0 -42 36 -42q15 0 36 12.5t32 19t25 -1.5q5 -5 5 -11q0 -14 -21.5 -30t-37.5 -23q-23 -11 -49 -11q-34 0 -54.5 23.5t-20.5 63.5q0 15 2.5 30t9.5 33t10 26t13.5 29t10.5 22q2 4 21.5 42
t25.5 52q28 59 18 82q-5 0 -17 -1.5t-18 -1.5q-13 0 -25.5 9t-12.5 23q0 23 25 33q8 4 25.5 1.5t22.5 -1.5q16 3 33.5 23.5t28.5 44.5q12 26 23 84.5t20 106.5t36.5 89t72.5 48q18 2 38 -2.5t30 -13.5q8 -8 16 -27t8 -34q0 -21 -16 -21q-10 0 -17 9t-9.5 20t-8.5 20t-15 9
q-24 0 -42.5 -16.5t-29 -45.5t-17 -54t-11.5 -58.5t-7 -41.5q-20 -86 -52 -128q-8 -11 -27 -24.5t-23 -16.5z" />
    <glyph glyph-name="bar" unicode="|" horiz-adv-x="272" 
d="M314 732q21 0 21 -25q0 -14 -6.5 -35t-16.5 -44.5t-10 -24.5q-44 -119 -128.5 -355.5t-126.5 -352.5q0 -1 -2 -7t-3 -7.5t-3.5 -7.5t-4 -6.5t-5.5 -5t-6.5 -3t-7.5 0.5q-7 2 -10 9.5t-0.5 18.5t5 20t6.5 20.5t5 13.5q33 98 114.5 331t121.5 359q1 3 6.5 25t10 35.5
t15.5 27t25 13.5z" />
    <glyph glyph-name="braceright" unicode="}" horiz-adv-x="320" 
d="M240 727q81 0 81 -107q0 -29 -16.5 -64.5t-41.5 -72.5t-30 -48q-9 -18 -15.5 -54t-0.5 -44q11 -11 27.5 -7.5t31.5 -0.5t15 -24q0 -27 -28 -34q-8 -3 -27.5 0t-26.5 2q-12 -2 -36 -32q-27 -33 -39 -90.5t-24 -117.5t-39 -96q-51 -69 -115 -69q-29 0 -49.5 16.5
t-20.5 46.5q0 17 13 34.5t30 17.5q16 0 16 -14q0 -6 -5 -24.5t-3 -23.5q6 -14 23 -14q16 0 33 12q36 25 54.5 69t23 86.5t22 99t50.5 99.5q3 4 15.5 17t14.5 21q1 5 -4 19t-5 18q2 41 52 141.5t50 120.5q0 75 -42 76q-15 0 -42 -20q-21 -16 -30 -16q-6 0 -10.5 4.5
t-4.5 11.5q0 19 29 38q34 23 74 23z" />
    <glyph glyph-name="asciitilde" unicode="~" horiz-adv-x="500" 
d="M451 326q0 -28 -52.5 -59.5t-87.5 -31.5q-24 0 -74.5 26t-78.5 26q-13 0 -24 -4.5t-15.5 -7.5t-16.5 -15l-16 -16q-9 -9 -21 -9q-8 0 -14 5.5t-6 14.5q0 29 51.5 55.5t86.5 26.5q27 0 73 -24t70 -24q26 0 59 18q5 3 20 20.5t27 17.5q19 0 19 -19z" />
    <glyph glyph-name="exclamdown" unicode="&#xa1;" horiz-adv-x="270" 
d="M165 202q-26 -45 -40 -77q-18 -42 -33 -74t-26 -59.5t-38 -103.5q-1 -3 -5 -16.5t-7.5 -22.5t-9 -20.5t-12 -18t-13.5 -7.5q-38 -6 -22 48q4 11 14 37q7 16 24 55.5t20.5 47.5t15 35t16 36t15 30.5t19.5 39t21.5 41t29.5 55.5q16 30 34 30q16 -1 9 -29q-4 -12 -12 -27z
M298 454q-2 -32 -18 -48t-42 -9q-29 8 -6 45q20 31 45 38q21 6 21 -21v-5z" />
    <glyph glyph-name="cent" unicode="&#xa2;" horiz-adv-x="393" 
d="M383 622q0 -12 -6.5 -29t-17 -37t-11.5 -22q-2 -4 -13 -24.5t-17.5 -36t-7.5 -27.5q-1 -6 17.5 -16t20.5 -13q11 -15 11 -43t-17 -49t-46 -21q-22 0 -22 21q0 10 20.5 23t20.5 28q0 20 -19 20q-9 0 -15.5 -7t-12.5 -22.5t-6 -16.5q-11 -23 -46 -104q0 -1 -6.5 -12
t-13 -24t-13.5 -27.5t-11.5 -26t-4.5 -16.5q0 -3 2 -3q14 0 31.5 7.5t30.5 15.5t33 22t29 20q1 0 8 5t9 5q11 0 11 -22q0 -16 -33 -38q-54 -40 -90 -52l-14 -3.5t-18.5 -5t-13.5 -5.5q-13 -8 -24 -34t-17.5 -52t-18.5 -46.5t-28 -20.5q-17 0 -17 17q0 14 4.5 29t16 38.5
t15.5 33.5q11 29 11 33q0 5 -8 12t-17.5 15t-17.5 29.5t-8 51.5q0 72 43.5 133t103.5 91q5 2 24.5 10t32 14.5t15.5 13.5q29 60 57 129q2 4 6.5 24.5t11.5 29.5t20 9q26 0 26 -24zM223 383q-42 0 -86.5 -65.5t-44.5 -118.5q0 -56 20 -56q11 0 88 171q1 2 8 16.5t12.5 28.5
t5.5 20q0 4 -3 4z" />
    <glyph glyph-name="sterling" unicode="&#xa3;" horiz-adv-x="523" 
d="M486 606q0 -35 -26 -74.5t-56 -39.5q-17 0 -17 24q0 8 6.5 15.5t17 15.5t12.5 10l1 2l3.5 3.5t3.5 4.5l4 6t4 6.5t3 6.5t2 6.5t1 6.5q0 7 -5.5 12.5t-12.5 5.5q-16 0 -39 -20t-33 -34q-17 -25 -50.5 -97t-38.5 -97q-1 -6 8 -8q7 -1 33 0q55 3 88.5 16t48.5 13
q17 0 17 -21q0 -26 -43 -35.5t-97 -13t-68 -13.5q-6 -5 -11.5 -15t-13 -29.5t-9.5 -25.5q-30 -71 -30 -78q0 -26 35.5 -75t58.5 -49q52 0 102 75q2 2 8 13.5t11.5 19.5t14.5 15.5t19 7.5q17 0 17 -17q0 -34 -64 -98q-21 -22 -56.5 -40t-66.5 -18q-28 0 -51.5 26.5t-38 52.5
t-20.5 26q-4 0 -24.5 -25.5t-49 -51t-53.5 -25.5q-28 0 -45.5 17t-17.5 48q0 46 33 107t78 61q21 0 35 -7.5t21 -14.5t10 -7q5 0 20 33.5t21 60.5q2 10 -0.5 13.5t-13.5 3.5q-4 0 -20.5 -1t-21.5 -1q-29 0 -29 20q0 14 18.5 18t44 4t33.5 4q5 2 9.5 7.5t9 14t7 15.5
t6.5 18.5t6 16.5q80 216 186 230q2 0 6.5 0.5t6.5 0.5q52 0 52 -52zM81 177q-27 0 -56 -60q-15 -35 -15 -57t18 -22q25 0 51.5 33.5t37.5 69.5q4 13 -9.5 24.5t-26.5 11.5z" />
    <glyph glyph-name="currency" unicode="&#xa4;" horiz-adv-x="527" 
d="M457 519q0 -14 -19 -39t-19 -32q0 -8 6.5 -22t7.5 -16q8 -24 8 -61q0 -55 -16 -101q-5 -14 -23.5 -45t-18.5 -43q0 -14 18.5 -33t18.5 -38q0 -16 -21 -16q-15 0 -29.5 22.5t-27.5 22.5q-7 0 -24 -11t-21 -13q-31 -13 -62 -13q-32 0 -58 13q-5 2 -20 14t-24 12
q-11 0 -27 -15.5t-31 -15.5q-14 0 -14 17t22 33t22 35q0 10 -4 39t-4 47q0 48 19 96q4 9 11.5 22.5t12 23.5t4.5 17q0 24 -23.5 50.5t-23.5 49.5q0 19 22 19q16 0 26 -19t18.5 -38t19.5 -19q8 0 10 13t6 17q10 11 34 19t46 8q17 0 24 -1q13 -2 42 -15t38 -13q13 0 26.5 23
t28.5 23q19 0 19 -17zM347 456q-7 9 -25 16t-34 7q-43 0 -83 -43q-2 -4 -0.5 -6.5t0.5 -12.5t-6 -23q-2 -5 -13 -12.5t-15 -13.5q-28 -40 -28 -113q0 -49 26.5 -86t73.5 -37q30 0 50.5 11.5t20.5 28.5q0 2 -0.5 7t-0.5 8q0 11 6.5 14t18.5 3t19 4q19 11 32 53t13 86
q0 41 -15 61q-3 5 -15 12t-15 12q-3 4 -5.5 12.5t-4.5 11.5z" />
    <glyph glyph-name="yen" unicode="&#xa5;" horiz-adv-x="538" 
d="M239 176l-4 -16q0 -17 33 -19.5t66 -6t33 -22.5q0 -18 -25 -18q-18 0 -53 3t-51 3q-13 0 -21.5 -7.5t-11.5 -15t-8.5 -25.5t-8.5 -26q-1 -2 -4 -11.5t-5 -15t-6 -14.5t-8 -14t-9 -9t-11 -4q-21 0 -19 21t18 56.5t16 53.5q0 15 -22 15q-18 0 -32.5 -3t-34 -8t-34.5 -8
q-12 -2 -20 3.5t-8 15.5q0 22 42 27.5t85.5 9.5t45.5 23l2 16q-2 17 -38 19t-71 4t-35 17q0 20 39 20q13 0 41.5 -2.5t40.5 -2.5q14 0 22.5 4t12.5 15t5.5 18.5t2.5 27t2 28.5q6 62 6 93q0 54 -14 99.5t-50 45.5q-9 0 -25.5 -16t-26.5 -16q-8 0 -12.5 5t-4.5 11
q0 22 25.5 43t51.5 21q98 0 98 -169q0 -20 -1.5 -51.5t-1.5 -41.5q0 -8 -2.5 -27.5t-3 -28t3.5 -12.5q4 0 18 23t32 57t25 46q71 112 132 180q59 66 104 74q5 1 14 1q44 0 44 -47q0 -22 -12 -42t-27 -20q-7 0 -12 4.5t-5 11.5q0 5 3 16t3 16q0 11 -8 11q-5 0 -12.5 -4.5
t-14 -9.5t-13.5 -11l-6 -6q-60 -54 -106 -119.5t-104 -164.5q-2 -4 -10.5 -16t-14 -22.5t-5.5 -16.5q0 -13 21 -13q28 0 70.5 24t51.5 24q6 0 12 -6t6 -15q0 -14 -19.5 -27.5t-37.5 -19.5t-34 -10q-9 -2 -37.5 -4.5t-47 -7.5t-20.5 -14z" />
    <glyph glyph-name="brokenbar" unicode="&#xa6;" horiz-adv-x="272" 
d="M307 723q18 0 18 -23q0 -21 -29 -96q-6 -17 -34 -90.5t-42 -113.5q-2 -5 -6.5 -19t-8 -24t-9 -21.5t-12.5 -17.5t-14 -6q-16 0 -16 22q0 9 3 21.5t6.5 22t7.5 21t5 13.5q3 8 31.5 87t40.5 119q1 3 9.5 34.5t16.5 48t18 19.5q9 3 15 3zM123 185q18 0 18 -18
q0 -10 -4.5 -23t-12.5 -32l-8 -18q-12 -31 -32 -87.5t-30 -82.5q-2 -5 -5.5 -16.5t-6 -19.5t-7 -17t-10 -14t-12.5 -5q-18 0 -18 18q0 8 3 18.5t8 24t6 17.5l56 168q1 3 6 23t9.5 30.5t15 22t24.5 11.5z" />
    <glyph glyph-name="section" unicode="&#xa7;" horiz-adv-x="451" 
d="M389 716q37 0 59 -20.5t22 -60.5q0 -56 -36.5 -100.5t-75.5 -44.5q-23 0 -23 20q0 11 12 21.5t29 19.5t21 13q28 28 28 68q0 19 -10 32t-29 13q-42 0 -74.5 -39.5t-32.5 -85.5q0 -41 35 -126t35 -138q0 -38 -15 -67.5t-55 -64.5q-7 -6 -19.5 -15t-18 -14.5t-11 -16
t-5.5 -24.5q0 -8 1 -24t1 -22q0 -67 -21 -130.5t-63 -108t-96 -44.5q-35 0 -57 32.5t-22 73.5q0 30 11 63t24 33q10 0 10 -13q0 -5 -2 -15q-8 -40 -8 -63q0 -27 12.5 -48t34.5 -21q36 0 66.5 42t46.5 102t16 120q0 23 -5 34.5t-11 14.5t-19.5 6t-22.5 8q-21 10 -34.5 35
t-13.5 57q0 84 102 168q31 24 42 24q16 0 16 -16q0 -5 -2 -12t-5.5 -14t-4.5 -10q-12 -32 -12 -98q0 -83 20 -83q13 0 29 15t23 26q20 28 20 63q0 41 -34.5 133t-34.5 142q0 61 45 110.5t112 49.5zM154 302q-13 0 -27 -33t-14 -61q0 -15 11.5 -32.5t27.5 -17.5t16 25
q0 12 -3 36t-3 30q0 5 0.5 19t0.5 18q0 16 -9 16z" />
    <glyph glyph-name="dieresis" unicode="&#xa8;" horiz-adv-x="267" 
d="M195 550q31 0 31 -33q0 -15 -14.5 -30.5t-29.5 -15.5q-13 0 -20 12.5t-7 29.5q0 15 12.5 26t27.5 11zM76 541q31 0 31 -36q0 -16 -14.5 -29.5t-30.5 -13.5q-24 0 -24 44q0 15 11 25t27 10z" />
    <glyph glyph-name="copyright" unicode="&#xa9;" horiz-adv-x="767" 
d="M546 429q0 -29 -19.5 -63t-52.5 -34q-8 0 -15.5 6.5t-7.5 17.5q0 12 17 32.5t17 31.5q0 17 -19 17q-55 0 -110 -64q-20 -23 -41 -67t-21 -78q0 -58 64 -58q31 0 71.5 26.5t56.5 26.5q15 0 15 -15q0 -27 -63 -63q-52 -30 -100 -30q-49 0 -76.5 34.5t-27.5 89.5
q0 80 74 160q64 71 150 84q7 1 21 1q67 0 67 -55zM523 644q92 0 139.5 -63t47.5 -163q0 -167 -118 -309q-131 -155 -302 -155q-95 0 -152 71.5t-57 181.5q0 62 18 120.5t44 100t56.5 75t54 51t36.5 21.5q6 2 19 2t19 2q14 4 33.5 18.5t26.5 17.5q66 29 135 29zM527 592
q-92 0 -169 -55q-6 -4 -17.5 -18t-23.5 -23.5t-23 -9.5q-4 0 -12 2t-12 2t-9 -3t-8.5 -6.5t-8.5 -9t-6 -6.5q-103 -120 -103 -255q0 -87 44 -144.5t122 -57.5q98 0 183.5 61t133 155.5t47.5 194.5q0 76 -33 124.5t-105 48.5z" />
    <glyph glyph-name="ordfeminine" unicode="&#xaa;" horiz-adv-x="402" 
d="M317 652q16 0 16 -18q0 -14 -28 -58q-4 -7 -14.5 -23.5t-15 -25.5t-11 -24t-9 -31t-2.5 -36q0 -50 33 -50q34 0 89 52q20 18 38 38q28 28 42 28q13 0 13 -17q0 -14 -29 -43q-28 -29 -45 -45t-51 -35.5t-63 -19.5q-42 0 -63 54q-7 20 -12 20q-4 0 -34 -26q-35 -33 -76 -33
q-24 0 -39 19t-15 45q0 41 34 99q29 51 77 91.5t97 40.5q7 0 16.5 -7t17.5 -7q7 0 18 6t16 6zM259 600q0 10 -18 10q-58 -2 -126 -104q-26 -38 -26 -69q0 -24 21 -24q23 0 45 19q42 36 84 126q2 4 7.5 13.5t9 16.5t3.5 12z" />
    <glyph glyph-name="guillemotleft" unicode="&#xab;" horiz-adv-x="543" 
d="M294 201q28 -24 66 -75q2 -3 12 -15.5t14.5 -19t9.5 -17t5 -18.5t-6.5 -15.5t-15.5 -7.5t-15 5.5t-14 19t-9 14.5q-18 26 -74 86q-1 2 -8.5 9t-11.5 12t-8 12.5t-4 14.5q0 10 7.5 18.5t15.5 13t21.5 10.5t17.5 8q62 34 128 96q3 2 13 12.5t17.5 18t18 14t17.5 7.5
q22 0 22 -20q0 -8 -5.5 -16.5t-11 -13.5t-15.5 -12.5t-12 -9.5q-7 -6 -18.5 -16.5t-17 -15t-15 -12.5t-17 -13.5t-18.5 -13t-24 -15.5q-11 -7 -33.5 -23t-31.5 -22zM143 204q10 -10 35.5 -34.5t30.5 -29.5q32 -32 32 -57q0 -10 -7.5 -17t-18.5 -7q-8 0 -13.5 5.5t-12 16.5
t-8.5 13q-27 37 -76 74q-1 1 -8 5.5t-10.5 7t-8.5 7t-7 9t-2 9.5q0 9 8.5 16.5t25 15t18.5 8.5q47 26 102 78q4 4 14.5 18t21 21.5t23.5 7.5q19 0 19 -17q0 -7 -4.5 -15.5t-10 -15.5t-15 -16t-16 -14t-15.5 -12.5t-11 -8.5q-22 -18 -44 -34q-3 -2 -15 -9t-19.5 -13t-7.5 -12
z" />
    <glyph glyph-name="logicalnot" unicode="&#xac;" horiz-adv-x="562" 
d="M474 251q0 -15 -22 -81q-2 -7 -5.5 -20.5t-6.5 -22t-7 -17.5t-10.5 -13.5t-14.5 -4.5q-19 0 -19 23q0 11 3.5 25.5t9 30t6.5 19.5q7 28 7 32q0 18 -85 18q-34 0 -63 -2t-66.5 -6t-62.5 -6q-1 0 -18 -2t-26 -2q-34 0 -34 20q0 7 4.5 11.5t14 6.5t17.5 3t21 1.5t19 1.5
q17 1 49 4t41 4q128 10 208 10q40 0 40 -33z" />
    <glyph glyph-name="uni00AD" unicode="&#xad;" horiz-adv-x="464" 
d="M377 204q0 -9 -11 -17t-29 -9q-27 -1 -110.5 -5t-138.5 -6q-17 -1 -17 13q0 8 5.5 15.5t13.5 8.5q225 19 254 19q33 0 33 -19z" />
    <glyph glyph-name="registered" unicode="&#xae;" horiz-adv-x="486" 
d="M332 728q81 0 126.5 -50.5t45.5 -132.5q0 -119 -83.5 -200t-188.5 -81q-73 0 -120 47t-47 125q0 41 12.5 73.5t48.5 101.5q3 6 5.5 17.5t6.5 18.5q21 34 82 57.5t112 23.5zM333 694q-91 0 -125 -37q-4 -4 -8.5 -16.5t-7.5 -17.5q-4 -6 -15.5 -18t-16.5 -18
q-54 -70 -54 -150q0 -63 35.5 -99.5t94.5 -36.5q94 0 163.5 71.5t69.5 169.5q0 69 -36 110.5t-100 41.5zM308 480q4 -4 13.5 -34t27.5 -30q5 0 12.5 2.5t10.5 2.5q9 0 9 -14q0 -19 -16 -26t-28 -7q-20 0 -31 15.5t-14 34t-10.5 34.5t-20.5 16q-47 -78 -59 -90
q-15 -15 -35 -15q-26 0 -26 19q0 7 3 11.5t6.5 6.5t10 4.5t9.5 3.5q26 13 46 58t35.5 82.5t33.5 37.5q8 0 14 -4t8 -8t2 -6q0 -7 -14 -26t-14 -27q0 -10 17 -10q21 0 37.5 19.5t16.5 42.5q0 19 -13.5 30t-36.5 11q-28 0 -50 -19.5t-28 -36.5q-2 -5 -2 -18t-4 -20t-15 -7
t-17.5 10.5t-6.5 19.5q0 41 43.5 70.5t90.5 29.5q37 0 60 -18t23 -51q0 -21 -7 -36t-23.5 -27t-26 -16.5t-31.5 -14.5z" />
    <glyph glyph-name="macron" unicode="&#xaf;" horiz-adv-x="306" 
d="M257 542q16 0 16 -18q0 -23 -17 -28q-46 -13 -158 -13q-7 0 -22.5 0.5t-23.5 0.5t-12.5 6.5t-4.5 14.5q0 22 18 22q57 0 142 9q57 6 62 6z" />
    <glyph glyph-name="degree" unicode="&#xb0;" horiz-adv-x="215" 
d="M271 567q0 -43 -29.5 -79.5t-73.5 -36.5q-35 0 -56.5 31t-21.5 69q0 25 15 47q29 42 89 42q33 0 55 -19.5t22 -53.5zM200 604q-37 0 -51 -38q-9 -27 -9 -34q0 -15 11 -24.5t27 -9.5q26 0 42.5 21t16.5 45q0 17 -9.5 28.5t-27.5 11.5z" />
    <glyph glyph-name="plusminus" unicode="&#xb1;" horiz-adv-x="500" 
d="M332 535q18 0 18 -26q0 -19 -11 -58q-1 -2 -4.5 -11.5t-6.5 -18t-6 -20t-3 -18.5q0 -18 24 -18q12 0 42 6t43 6q27 0 27 -21q0 -20 -33.5 -26t-73.5 -7t-49 -10q-7 -8 -12 -18t-11 -28.5t-9 -25.5q-1 -3 -5 -14t-7 -17.5t-7.5 -15t-9.5 -13t-11 -4.5q-18 0 -46 28
q-14 14 -44 51.5t-50 56.5q-25 25 -25 41q0 18 37 18q11 0 28 -2t22 -2q6 0 31.5 -3.5t39.5 -3.5q22 0 33 5q5 2 9 13t9 33t8 30q1 3 4 13.5t4.5 17t5.5 17.5t7.5 17.5t8.5 13.5t10.5 10.5t12.5 3.5zM239 313q-4 10 -73 14q-33 3 -33 -15q0 -16 36 -49q27 -24 38 -24
q10 0 22 30q0 1 3.5 8.5t6 14.5t2.5 13q0 4 -2 8zM349 110q0 -10 -11 -17.5t-29 -8.5q-228 -11 -251 -11q-14 0 -14 14q0 21 18 23q99 11 135 14q97 5 119 5q33 0 33 -19z" />
    <glyph glyph-name="twosuperior" unicode="&#xb2;" horiz-adv-x="280" 
d="M284 699q28 0 44.5 -17t16.5 -46q0 -85 -141 -207q-3 -3 -3 -4t4 -1q3 0 14 1.5t16 1.5q15 0 28 -18.5t13 -37.5q0 -29 -30 -29q-21 0 -21 18q0 3 1.5 10t1.5 10q0 13 -13 13q-3 0 -41 -11q-21 -8 -89 -44q-20 -10 -32 -10q-17 0 -17 14q0 5 3 9.5t9 9.5t11 8.5t12.5 8
t9.5 6.5q39 26 54.5 36.5t42.5 33.5t47 47l1 1q2 1 3.5 2t2.5 3t1 5q0 4 -6 4q-3 0 -12 -1.5t-13 -1.5q-24 2 -44 18t-20 43q0 40 41.5 78.5t88.5 45.5q5 1 16 1zM283 577q4 3 9 26.5t5 34.5q0 15 -5.5 20t-17.5 5q-25 0 -53 -24.5t-35 -44.5q-3 -9 -3 -16q0 -14 8.5 -22.5
t22.5 -8.5q11 0 29 16t40 14z" />
    <glyph glyph-name="threesuperior" unicode="&#xb3;" horiz-adv-x="280" 
d="M222 524q28 -4 43.5 -20.5t15.5 -41.5q0 -45 -40.5 -88.5t-84.5 -43.5q-33 0 -61.5 14t-28.5 35q0 7 6.5 13t17.5 6q12 0 28 -16.5t32 -16.5q22 0 52 30.5t30 63.5q0 31 -41 31q-2 0 -6.5 -0.5t-6.5 -0.5l-16.5 -5.5t-28 -8t-25.5 -3.5q-21 0 -21 15q0 12 26 35
q8 7 38 29t55 40.5t25 20.5q0 3 -6 3q-5 0 -18 -1.5t-17 -1.5q-36 2 -65 19.5t-29 42.5q0 16 20 16q17 0 35.5 -22.5t48.5 -22.5q24 0 61.5 10t50.5 10q20 0 20 -15q0 -5 -10 -15t-28.5 -24.5t-36.5 -27.5t-42 -30t-37 -27q-2 -2 -2 -3q0 -2 7 -2q6 0 20.5 1.5t18.5 1.5z
" />
    <glyph glyph-name="acute" unicode="&#xb4;" horiz-adv-x="210" 
d="M178 594q0 -12 -9 -24q-46 -60 -109 -118q-11 -10 -20 -10q-13 0 -13 16q0 6 2.5 11t8 11.5t7.5 8.5q48 55 81 113q9 17 27 17q11 0 18 -7t7 -18z" />
    <glyph glyph-name="mu" unicode="&#xb5;" horiz-adv-x="545" 
d="M86 217q19 43 32.5 77t19.5 46q26 51 46 51q23 0 23 -30q0 -27 -17 -64q-44 -100 -44 -164q0 -39 22 -39q23 0 55 32t75 90.5t55 71.5q2 2 10.5 12.5t15 17.5t15.5 15.5t18.5 13t17.5 4.5q26 0 26 -28q0 -19 -13 -47q-2 -3 -21 -42t-25.5 -53.5t-19.5 -44.5t-18 -48.5
t-5 -31.5q0 -10 10 -10q21 0 51 24q12 9 42.5 40t55.5 54.5t33 23.5q7 0 12.5 -6t5.5 -13q0 -11 -9 -20q-13 -12 -40.5 -39t-46 -44t-42 -36.5t-43 -29.5t-34.5 -10q-50 0 -50 48q0 30 24 90q4 11 9 26t12 32.5t19 43.5q7 14 7 17v1q-3 0 -31 -38t-67 -86t-65 -67t-46 -19
q-25 0 -40 23t-15 55v9t0.5 9.5t1 8.5t0.5 6v2q-6 -14 -18 -40.5t-34.5 -76t-47.5 -106.5q-39 -89 -64.5 -117.5t-59.5 -28.5q-22 0 -36.5 15t-14.5 29q0 11 7.5 16.5t15.5 5.5q3 0 11 -7t19 -7q46 0 200 383z" />
    <glyph glyph-name="paragraph" unicode="&#xb6;" horiz-adv-x="505" 
d="M666 664q0 -26 -21 -46t-48 -29q-9 -3 -28 -5.5t-26 -6.5q-9 -6 -18.5 -24t-20.5 -49.5t-11 -32.5q-88 -221 -144 -322q-50 -91 -98 -151t-116 -101q-89 -56 -151 -56q-36 0 -65 18q-37 19 -37 67q0 49 33 49q18 0 18 -20q0 -34 2 -40q8 -24 53 -24q27 0 51 8
q92 27 188 154q48 64 98 160q1 2 8 15.5t12 25t5 16.5t-7 5q-8 0 -32 -8t-26 -8q-35 -9 -67 -9q-75 0 -122 45.5t-47 129.5q0 109 86.5 168t215.5 59q50 0 104 -9q5 -1 16.5 -3.5t19.5 -4t14 -0.5q14 2 38 28t32 30q18 10 45 10q19 0 32.5 -9.5t13.5 -29.5zM615 651
q0 6 -12 6q-5 0 -13.5 -5.5t-8.5 -11.5q0 -9 10 -9q7 0 15.5 7t8.5 13zM483 585q-4 13 -72 22q-27 4 -56 4q-42 0 -84.5 -10t-82.5 -30.5t-64.5 -57.5t-24.5 -86q0 -55 37 -95t95 -40q25 0 44.5 8t39.5 20.5t36 18.5q2 1 15 2.5t19 5.5q7 4 28 56q8 20 15.5 38.5t17 42
t15.5 39.5q2 4 10 18t11.5 25t0.5 19z" />
    <glyph glyph-name="periodcentered" unicode="&#xb7;" horiz-adv-x="250" 
d="M144 239q13 0 23.5 -10t10.5 -26t-16.5 -31t-31.5 -15q-23 0 -23 46q0 16 11 26t26 10z" />
    <glyph glyph-name="cedilla" unicode="&#xb8;" horiz-adv-x="144" 
d="M75 46l39 -14q-13 -5 -39.5 -39t-39.5 -57q31 -3 44 -14.5t13 -39.5q0 -51 -50 -84.5t-107 -33.5q-22 0 -22 22q0 21 21 21q2 0 7.5 -0.5t10.5 -0.5q34 0 61 21t27 49q0 16 -8 23t-17.5 7.5t-17.5 4.5t-8 15q0 34 86 120z" />
    <glyph glyph-name="onesuperior" unicode="&#xb9;" horiz-adv-x="229" 
d="M288 697q14 0 14 -16q0 -21 -36 -87q-17 -33 -45.5 -91t-46.5 -93q-1 -3 -8.5 -20t-13 -28t-16 -21.5t-20.5 -10.5q-20 0 -20 19q0 11 22 59q13 28 42.5 77t42.5 74q1 3 7.5 14t6.5 14q0 2 -2 2q-5 0 -62 -41q-37 -25 -53 -25q-15 0 -15 15q0 8 6 15t11.5 10.5t16 9
t12.5 6.5q63 40 98 74q3 3 15 17t22 20.5t22 6.5z" />
    <glyph glyph-name="ordmasculine" unicode="&#xba;" horiz-adv-x="252" 
d="M261 665q25 0 37.5 -22t12.5 -57q0 -73 -43 -144.5t-113 -94.5q-20 -7 -39 -7q-37 0 -55 28.5t-18 75.5q0 46 30 97t67 80q27 21 47 21q18 0 18 -20q0 -18 -34 -44q-49 -39 -71 -110q-7 -19 -7 -38q0 -40 34 -40q33 0 64 28q33 28 57 75.5t24 92.5q0 26 -25 40l-5 2
q-6 1 -9.5 4.5t-3.5 9.5q0 23 32 23z" />
    <glyph glyph-name="guillemotright" unicode="&#xbb;" horiz-adv-x="543" 
d="M248 237q-30 35 -66 73l-4 5q-5 5 -9 10t-10 13t-10 15.5t-7 15.5t-3 15q0 10 9 17.5t20 7.5q8 0 12.5 -4t11.5 -17t8 -15q41 -64 52 -75q6 -6 22.5 -21t25 -25t8.5 -18q0 -18 -17 -32.5t-47.5 -28.5t-35.5 -17q-64 -43 -108 -84q-3 -3 -13 -15.5t-19 -19.5t-19 -7
q-8 0 -14 5.5t-7 12.5q-1 9 4 17.5t11 14t15.5 13.5t13.5 11q34 31 112 88q4 3 16.5 10t24.5 16t23 19zM404 229q-12 8 -33.5 30.5t-24.5 24.5q-41 34 -41 67q0 11 7.5 18.5t19.5 7.5q3 0 6 -1t6 -3t4.5 -3.5t4 -5t3.5 -5t3.5 -6.5t3.5 -6q19 -32 45.5 -57t43 -38t16.5 -22
q0 -8 -6.5 -15.5t-13.5 -11.5t-19 -10.5t-15 -8.5q-67 -40 -114 -86q-1 -1 -8.5 -9t-12 -12.5t-11.5 -9t-13 -4.5q-7 0 -12.5 6.5t-5.5 13.5q0 14 27 41q24 24 88 72q1 1 19 11t33 22z" />
    <glyph glyph-name="onequarter" unicode="&#xbc;" horiz-adv-x="550" 
d="M480 607q-46 -56 -234.5 -307t-292.5 -363q-7 -6 -15 -6q-10 0 -15.5 9t-0.5 21q101 109 281 351.5t243 319.5q8 8 18 8q12 0 18 -10t-2 -23zM279 697q14 0 14 -16q0 -21 -36 -87q-17 -33 -45.5 -91t-46.5 -93q-1 -3 -8.5 -20t-13 -28t-16 -21.5t-20.5 -10.5
q-20 0 -20 19q0 11 22 59q13 28 42.5 77t42.5 74q1 3 7.5 14t6.5 14q0 2 -2 2q-5 0 -62 -41q-38 -25 -53 -25t-15 15q0 8 6 15t11.5 10.5t16 9t12.5 6.5q63 40 98 74q3 3 15 17t22 20.5t22 6.5zM553 289q18 0 18 -20t-11 -46.5t-23.5 -46t-35 -53.5t-32.5 -50
q-32 -50 -32 -66q0 -9 9.5 -10.5t9.5 -12.5q0 -8 -9 -14t-22 -6q-36 0 -36 35q0 39 37 91q2 3 10 14.5t15 21.5l7 10l-1 1q-2 0 -37 -14t-53 -14q-50 0 -50 42q0 12 3.5 25.5t10.5 30t11.5 26t13.5 26.5t10 18q2 4 2 5t-2 1q-10 0 -41 -31q-31 -28 -45 -28t-14 16
q0 23 49 56q2 1 9 5.5t10 6.5t9.5 5.5t10.5 5t10.5 3.5t13 3t13.5 1q32 0 32 -20q0 -27 -30.5 -70t-30.5 -80q0 -11 13 -11q9 0 53 19q57 29 86 78q2 4 6.5 12t7 13t7 10.5t9 8.5t9.5 3z" />
    <glyph glyph-name="onehalf" unicode="&#xbd;" horiz-adv-x="550" 
d="M510 607q-46 -56 -234.5 -307t-292.5 -363q-7 -6 -15 -6q-10 0 -15.5 9t-0.5 21q101 109 281 351.5t243 319.5q8 8 18 8q12 0 18 -10t-2 -23zM289 697q14 0 14 -16q0 -21 -36 -87q-17 -33 -45.5 -91t-46.5 -93q-1 -3 -8.5 -20t-13 -28t-16 -21.5t-20.5 -10.5
q-20 0 -20 19q0 11 22 59q13 28 42.5 77t42.5 74q1 3 7.5 14t6.5 14q0 2 -2 2q-5 0 -62 -41q-38 -25 -53 -25t-15 15q0 8 6 15t11.5 10.5t16 9t12.5 6.5q63 40 98 74q3 3 15 17t22 20.5t22 6.5zM449 329q28 0 44.5 -17t16.5 -46q0 -85 -141 -207q-3 -3 -3 -4t4 -1
q3 0 14 1.5t16 1.5q15 0 28 -18.5t13 -37.5q0 -29 -30 -29q-21 0 -21 18q0 3 1.5 10t1.5 10q0 13 -13 13q-2 0 -41 -11q-21 -8 -89 -44q-20 -10 -32 -10q-17 0 -17 14q0 5 3 9.5t9 9.5t11 8.5t12.5 8t9.5 6.5q39 26 54.5 36.5t42.5 33.5t47 47l2 1q1 1 2.5 2t2.5 3t1 5
q0 4 -6 4q-3 0 -12 -1.5t-13 -1.5q-24 2 -44 18t-20 43q0 40 41.5 78.5t88.5 45.5q5 1 16 1zM448 207q4 3 9 26.5t5 34.5q0 15 -5.5 20t-17.5 5q-25 0 -53 -24.5t-35 -44.5q-3 -9 -3 -16q0 -14 8.5 -22.5t22.5 -8.5q11 0 29 16t40 14z" />
    <glyph glyph-name="threequarters" unicode="&#xbe;" horiz-adv-x="596" 
d="M523 607q-46 -56 -234.5 -307t-292.5 -363q-8 -6 -15 -6q-10 0 -15.5 9t-0.5 21q101 109 281 351.5t243 319.5q8 8 18 8q12 0 18 -10t-2 -23zM206 524q28 -4 43.5 -20.5t15.5 -41.5q0 -45 -40.5 -88.5t-84.5 -43.5q-33 0 -61.5 14t-28.5 35q0 7 6.5 13t17.5 6
q12 0 28 -16.5t32 -16.5q22 0 52 30.5t30 63.5q0 31 -41 31q-2 0 -6.5 -0.5t-6.5 -0.5l-16.5 -5.5t-28 -8t-25.5 -3.5q-21 0 -21 15q0 12 26 35q8 7 38 29t55 40.5t25 20.5q0 3 -6 3q-5 0 -18 -1.5t-17 -1.5q-36 2 -65 19.5t-29 42.5q0 16 20 16q17 0 35.5 -22.5t48.5 -22.5
q24 0 61.5 10t50.5 10q20 0 20 -15q0 -5 -10 -15t-28.5 -24.5t-36.5 -27.5t-42 -30t-37 -27q-2 -2 -2 -3q0 -2 7 -2q6 0 20.5 1.5t18.5 1.5zM570 289q18 0 18 -20t-11 -46.5t-23.5 -46t-35 -53.5t-32.5 -50q-32 -50 -32 -66q0 -9 9.5 -10.5t9.5 -12.5q0 -8 -9 -14t-22 -6
q-36 0 -36 35q0 39 37 91q2 3 10 14.5t15 21.5l7 10l-1 1q-2 0 -37 -14t-53 -14q-50 0 -50 42q0 12 3.5 25.5t10.5 30t11.5 26t13.5 26.5t10 18q2 4 2 5t-2 1q-10 0 -41 -31q-32 -28 -45 -28q-14 0 -14 16q0 23 49 56q2 1 9 5.5t10 6.5t9.5 5.5t10.5 5t10.5 3.5t13 3t13.5 1
q32 0 32 -20q0 -27 -30.5 -70t-30.5 -80q0 -11 13 -11q9 0 53 19q57 29 86 78q2 4 6.5 12t7 13t7 10.5t9 8.5t9.5 3z" />
    <glyph glyph-name="questiondown" unicode="&#xbf;" horiz-adv-x="306" 
d="M231 341q17 0 17 -26q0 -45 -36.5 -100t-85.5 -98q-13 -11 -43.5 -34.5t-51.5 -41t-44.5 -41.5t-36 -50t-12.5 -53q0 -75 70 -75q35 0 78 32.5t77 75.5q25 33 37 30q18 -4 -1.5 -36.5t-46.5 -62.5q-74 -84 -160 -84q-43 0 -71.5 27.5t-28.5 77.5q0 46 27 92t56.5 74.5
t75.5 63.5q82 63 135 164q1 1 8 22t15.5 32t21.5 11zM311 501q15 0 15 -27t-13 -43t-33 -16q-29 0 -29 20q0 19 21.5 42.5t38.5 23.5z" />
    <glyph glyph-name="Agrave" unicode="&#xc0;" horiz-adv-x="574" 
d="M600 531q7 0 14 -6t7 -16q0 -8 -4 -18t-10 -20t-11.5 -18t-12 -16.5t-7.5 -9.5q-34 -46 -64 -92q-37 -55 -59.5 -91t-46.5 -89t-24 -86q0 -31 18 -31q4 0 12 2.5t14 2.5q9 0 9 -12q0 -18 -17 -29q-15 -9 -30 -9q-22 0 -37 17.5t-15 45.5q0 31 7 56q4 13 4 21q0 9 -6 9
q-7 0 -14 -7q-167 -167 -267 -167q-40 0 -62 33.5t-22 84.5q0 75 44.5 176t125.5 196.5t172 140.5q48 24 92 24q80 0 80 -87q0 -48 -28.5 -98.5t-67.5 -89.5q-38 -38 -53 -38t-15 11q0 10 28 40.5t56.5 76t28.5 90.5q0 48 -28 48q-71 0 -138 -57t-119 -132
q-122 -176 -122 -306q0 -56 41 -56q35 0 86 29t91 65q182 163 287 354q13 24 30.5 41t32.5 17zM429 861q9 -60 38 -116q3 -6 3 -11q0 -8 -5.5 -14.5t-13.5 -6.5t-16 8q-18 18 -37.5 59.5t-19.5 67.5q0 13 9.5 21t21.5 8q17 0 20 -16z" />
    <glyph glyph-name="Aacute" unicode="&#xc1;" horiz-adv-x="574" 
d="M600 531q7 0 14 -6t7 -16q0 -8 -4 -18t-10 -20t-11.5 -18t-12 -16.5t-7.5 -9.5q-34 -46 -64 -92q-37 -55 -59.5 -91t-46.5 -89t-24 -86q0 -31 18 -31q4 0 12 2.5t14 2.5q9 0 9 -12q0 -18 -17 -29q-15 -9 -30 -9q-22 0 -37 17.5t-15 45.5q0 31 7 56q4 13 4 21q0 9 -6 9
q-7 0 -14 -7q-167 -167 -267 -167q-40 0 -62 33.5t-22 84.5q0 75 44.5 176t125.5 196.5t172 140.5q48 24 92 24q80 0 80 -87q0 -48 -28.5 -98.5t-67.5 -89.5q-38 -38 -53 -38t-15 11q0 10 28 40.5t56.5 76t28.5 90.5q0 48 -28 48q-71 0 -138 -57t-119 -132
q-122 -176 -122 -306q0 -56 41 -56q35 0 86 29t91 65q182 163 287 354q13 24 30.5 41t32.5 17zM639 844q0 -12 -9 -24q-46 -60 -109 -118q-11 -10 -20 -10q-13 0 -13 16q0 6 2.5 11t8 11.5t7.5 8.5q48 55 81 113q9 17 27 17q11 0 18 -7t7 -18z" />
    <glyph glyph-name="Acircumflex" unicode="&#xc2;" horiz-adv-x="574" 
d="M600 531q7 0 14 -6t7 -16q0 -8 -4 -18t-10 -20t-11.5 -18t-12 -16.5t-7.5 -9.5q-34 -46 -64 -92q-37 -55 -59.5 -91t-46.5 -89t-24 -86q0 -31 18 -31q4 0 12 2.5t14 2.5q9 0 9 -12q0 -18 -17 -29q-15 -9 -30 -9q-22 0 -37 17.5t-15 45.5q0 31 7 56q4 13 4 21q0 9 -6 9
q-7 0 -14 -7q-167 -167 -267 -167q-40 0 -62 33.5t-22 84.5q0 75 44.5 176t125.5 196.5t172 140.5q48 24 92 24q80 0 80 -87q0 -48 -28.5 -98.5t-67.5 -89.5q-38 -38 -53 -38t-15 11q0 10 28 40.5t56.5 76t28.5 90.5q0 48 -28 48q-71 0 -138 -57t-119 -132
q-122 -176 -122 -306q0 -56 41 -56q35 0 86 29t91 65q182 163 287 354q13 24 30.5 41t32.5 17zM530 796q-59 -65 -103 -83q-6 -2 -8 -2q-8 0 -13.5 6.5t-5.5 14.5q0 10 9 16q53 31 97 78q2 3 8 10t10 12t10.5 9.5t12.5 4.5q18 0 20 -18q4 -34 13 -63q1 -3 8.5 -21.5
t7.5 -29.5q0 -10 -7 -17t-16 -7q-13 0 -20 13q-5 8 -9 19t-6 19t-4.5 20.5t-3.5 18.5z" />
    <glyph glyph-name="Atilde" unicode="&#xc3;" horiz-adv-x="574" 
d="M600 531q7 0 14 -6t7 -16q0 -8 -4 -18t-10 -20t-11.5 -18t-12 -16.5t-7.5 -9.5q-34 -46 -64 -92q-37 -55 -59.5 -91t-46.5 -89t-24 -86q0 -31 18 -31q4 0 12 2.5t14 2.5q9 0 9 -12q0 -18 -17 -29q-15 -9 -30 -9q-22 0 -37 17.5t-15 45.5q0 31 7 56q4 13 4 21q0 9 -6 9
q-7 0 -14 -7q-167 -167 -267 -167q-40 0 -62 33.5t-22 84.5q0 75 44.5 176t125.5 196.5t172 140.5q48 24 92 24q80 0 80 -87q0 -48 -28.5 -98.5t-67.5 -89.5q-38 -38 -53 -38t-15 11q0 10 28 40.5t56.5 76t28.5 90.5q0 48 -28 48q-71 0 -138 -57t-119 -132
q-122 -176 -122 -306q0 -56 41 -56q35 0 86 29t91 65q182 163 287 354q13 24 30.5 41t32.5 17zM614 772q14 0 14 -20q0 -22 -32.5 -45t-56.5 -23q-20 0 -50 20t-48 20q-24 0 -44 -20q-10 -10 -19 -10q-15 0 -15 17q0 21 33.5 45t55.5 24t55 -22.5t48 -22.5q13 0 40 27
q10 10 19 10z" />
    <glyph glyph-name="Adieresis" unicode="&#xc4;" horiz-adv-x="574" 
d="M600 531q7 0 14 -6t7 -16q0 -8 -4 -18t-10 -20t-11.5 -18t-12 -16.5t-7.5 -9.5q-34 -46 -64 -92q-37 -55 -59.5 -91t-46.5 -89t-24 -86q0 -31 18 -31q4 0 12 2.5t14 2.5q9 0 9 -12q0 -18 -17 -29q-15 -9 -30 -9q-22 0 -37 17.5t-15 45.5q0 31 7 56q4 13 4 21q0 9 -6 9
q-7 0 -14 -7q-167 -167 -267 -167q-40 0 -62 33.5t-22 84.5q0 75 44.5 176t125.5 196.5t172 140.5q48 24 92 24q80 0 80 -87q0 -48 -28.5 -98.5t-67.5 -89.5q-38 -38 -53 -38t-15 11q0 10 28 40.5t56.5 76t28.5 90.5q0 48 -28 48q-71 0 -138 -57t-119 -132
q-122 -176 -122 -306q0 -56 41 -56q35 0 86 29t91 65q182 163 287 354q13 24 30.5 41t32.5 17zM533 796q31 0 31 -33q0 -15 -14.5 -30.5t-29.5 -15.5q-13 0 -20 12.5t-7 29.5q0 15 12.5 26t27.5 11zM414 787q31 0 31 -36q0 -16 -14.5 -29.5t-30.5 -13.5q-24 0 -24 44
q0 15 11 25t27 10z" />
    <glyph glyph-name="Aring" unicode="&#xc5;" horiz-adv-x="574" 
d="M600 531q7 0 14 -6t7 -16q0 -8 -4 -18t-10 -20t-11.5 -18t-12 -16.5t-7.5 -9.5q-34 -46 -64 -92q-37 -55 -59.5 -91t-46.5 -89t-24 -86q0 -31 18 -31q4 0 12 2.5t14 2.5q9 0 9 -12q0 -18 -17 -29q-15 -9 -30 -9q-22 0 -37 17.5t-15 45.5q0 31 7 56q4 13 4 21q0 9 -6 9
q-7 0 -14 -7q-167 -167 -267 -167q-40 0 -62 33.5t-22 84.5q0 75 44.5 176t125.5 196.5t172 140.5q48 24 92 24q80 0 80 -87q0 -48 -28.5 -98.5t-67.5 -89.5q-38 -38 -53 -38t-15 11q0 10 28 40.5t56.5 76t28.5 90.5q0 48 -28 48q-71 0 -138 -57t-119 -132
q-122 -176 -122 -306q0 -56 41 -56q35 0 86 29t91 65q182 163 287 354q13 24 30.5 41t32.5 17zM518 832q63 0 63 -73q0 -32 -28.5 -57t-61.5 -25q-25 0 -43 17.5t-18 46.5q0 36 27 63.5t61 27.5zM520 792q-18 0 -30.5 -13t-12.5 -33q0 -10 7 -17t17 -7q18 0 29.5 14.5
t11.5 32.5q0 13 -7.5 18t-14.5 5z" />
    <glyph glyph-name="AE" unicode="&#xc6;" horiz-adv-x="760" 
d="M574 381q1 -12 12 -20t23.5 -12t22.5 -11t10 -18q0 -12 -12 -17t-37 -6t-29 -2q-50 -8 -77 -28t-59 -63q-45 -59 -45 -103q0 -86 87 -86q26 0 54 9t47 17t50.5 32t41.5 32t45.5 39.5t38.5 34.5q11 10 21 6.5t10.5 -14.5t-8.5 -21q-42 -40 -67.5 -63t-70 -56t-86.5 -49.5
t-83 -16.5q-85 0 -126 70q-3 4 -6.5 17t-8 23t-8.5 10q-6 0 -15.5 -7t-21 -18t-13.5 -13q-39 -32 -97.5 -60.5t-98.5 -28.5q-42 0 -68 25t-26 78q0 124 76.5 265t179.5 231q85 72 168 72q40 0 59 -24t14 -66q-9 -72 -46.5 -142t-74.5 -70q-27 3 -22.5 24.5t27.5 45.5
t36 40.5t25 46.5t12 65q0 37 -27 37q-73 0 -145 -62t-119.5 -146.5t-77 -167t-29.5 -129.5q0 -35 11 -51.5t37 -16.5q64 0 156 66q71 51 98 90q5 7 21.5 34.5t28.5 39.5q11 11 33.5 27t34.5 27q18 16 37 42.5t19 38.5q0 9 -4.5 23.5t-5.5 19.5q-4 20 -4 42q0 93 67 151
t160 58q61 0 97 -31.5t36 -84.5q0 -66 -43.5 -110t-93.5 -44q-44 0 -65 27q-2 3 -6 10.5t-8 11.5t-9 4q-14 0 -33.5 -30.5t-19.5 -43.5zM797 554q0 37 -23 57.5t-62 20.5q-56 0 -100 -32t-64 -79q-13 -33 -13 -61q0 -23 13 -23q19 0 74 83q2 2 7.5 12.5t10.5 17t12 15
t14.5 13t15.5 4.5q20 0 20 -18q0 -13 -13 -36.5t-13 -34.5q0 -45 37 -45q34 0 59 30t25 76zM545 335q0 4 -5 6l-4 2q-2 1 -4 0t-5 -5t-4 -5q-3 -3 4 -4q11 -1 18 6z" />
    <glyph glyph-name="Ccedilla" unicode="&#xc7;" horiz-adv-x="354" 
d="M278 485q-25 -16 -49.5 -61t-32.5 -94q-1 -3 -1.5 -9t-1.5 -9t-2 -7.5t-2.5 -6.5t-3.5 -4.5t-5 -3.5t-7 -1q-13 0 -13 22q0 23 12 61.5t19 52.5q26 50 48 80t58 55q26 18 43 18q14 0 14 -13q0 -9 -18 -45.5t-18 -59.5q0 -12 5 -12q31 0 63 62.5t32 115.5q0 48 -48 48
q-49 0 -121 -61q-94 -78 -156 -200.5t-62 -233.5q0 -56 19.5 -92t58.5 -36q76 0 205 104q3 2 11.5 11t16 15t14.5 6q6 0 12 -7.5t6 -13.5q0 -17 -75 -75t-122 -77q-33 -14 -72 -15q-9 0 -15 -7q-27 -33 -38 -56q31 -3 44 -14.5t13 -39.5q0 -51 -50 -84.5t-107 -33.5
q-22 0 -22 22q0 10 6.5 16.5t19.5 4.5q36 -5 68.5 16.5t32.5 52.5q0 16 -8 23t-17.5 7.5t-17.5 4.5t-8 15q0 23 45 76q3 5 -3 8q-70 37 -70 159q0 71 23 152t54 129q34 54 64 93t72.5 81.5t91.5 65t102 22.5q79 0 79 -90q0 -71 -46 -143t-100 -72q-26 0 -36 23.5t-4 54.5z
" />
    <glyph glyph-name="Egrave" unicode="&#xc8;" horiz-adv-x="423" 
d="M215 339q-9 -20 -9.5 -60t-4 -66t-21.5 -26q-14 2 -14 42q0 28 10 101q-53 -10 -103 -64t-50 -124q0 -48 32.5 -79.5t84.5 -31.5q60 0 132.5 42t137.5 107q7 7 15 7q7 0 12.5 -6.5t5.5 -14.5t-5 -13q-173 -173 -304 -173q-80 0 -121 43t-41 109q0 64 36.5 124.5
t96.5 89.5q7 3 31.5 12.5t39.5 17.5t15 13q0 6 -14.5 25.5t-19.5 30.5q-16 36 -16 74q0 83 70 142t162 59q58 0 96 -33t38 -88q0 -61 -39 -106.5t-90 -45.5q-88 0 -88 98l-1 2q-7 0 -30.5 -48t-23.5 -71q0 -15 30.5 -31t30.5 -30q0 -13 -17 -17.5t-38 -5.5t-26 -5zM203 458
q25 61 57 110q1 1 5.5 8t8 12t10 13.5t12 14.5t12 12t12.5 9t12 3q17 0 17 -16q0 -12 -10.5 -40t-10.5 -43q0 -24 15 -38t36 -14q35 0 57.5 35.5t22.5 74.5q0 38 -24 59t-65 21q-73 0 -128 -51t-55 -124q0 -31 16 -46zM332 925q9 -60 38 -116q3 -6 3 -11q0 -8 -5.5 -14.5
t-13.5 -6.5t-16 8q-18 18 -37.5 59.5t-19.5 67.5q0 13 9.5 21t21.5 8q17 0 20 -16z" />
    <glyph glyph-name="Eacute" unicode="&#xc9;" horiz-adv-x="423" 
d="M215 339q-9 -20 -9.5 -60t-4 -66t-21.5 -26q-14 2 -14 42q0 28 10 101q-53 -10 -103 -64t-50 -124q0 -48 32.5 -79.5t84.5 -31.5q60 0 132.5 42t137.5 107q7 7 15 7q7 0 12.5 -6.5t5.5 -14.5t-5 -13q-173 -173 -304 -173q-80 0 -121 43t-41 109q0 64 36.5 124.5
t96.5 89.5q7 3 31.5 12.5t39.5 17.5t15 13q0 6 -14.5 25.5t-19.5 30.5q-16 36 -16 74q0 83 70 142t162 59q58 0 96 -33t38 -88q0 -61 -39 -106.5t-90 -45.5q-88 0 -88 98l-1 2q-7 0 -30.5 -48t-23.5 -71q0 -15 30.5 -31t30.5 -30q0 -13 -17 -17.5t-38 -5.5t-26 -5zM203 458
q25 61 57 110q1 1 5.5 8t8 12t10 13.5t12 14.5t12 12t12.5 9t12 3q17 0 17 -16q0 -12 -10.5 -40t-10.5 -43q0 -24 15 -38t36 -14q35 0 57.5 35.5t22.5 74.5q0 38 -24 59t-65 21q-73 0 -128 -51t-55 -124q0 -31 16 -46zM574 900q-46 -60 -109 -118q-20 -19 -29.5 -5t4.5 31
q36 39 91 124q11 18 28 17t22 -15.5t-7 -33.5z" />
    <glyph glyph-name="Ecircumflex" unicode="&#xca;" horiz-adv-x="423" 
d="M215 339q-9 -20 -9.5 -60t-4 -66t-21.5 -26q-14 2 -14 42q0 28 10 101q-53 -10 -103 -64t-50 -124q0 -48 32.5 -79.5t84.5 -31.5q60 0 132.5 42t137.5 107q7 7 15 7q7 0 12.5 -6.5t5.5 -14.5t-5 -13q-173 -173 -304 -173q-80 0 -121 43t-41 109q0 64 36.5 124.5
t96.5 89.5q7 3 31.5 12.5t39.5 17.5t15 13q0 6 -14.5 25.5t-19.5 30.5q-16 36 -16 74q0 83 70 142t162 59q58 0 96 -33t38 -88q0 -61 -39 -106.5t-90 -45.5q-88 0 -88 98l-1 2q-7 0 -30.5 -48t-23.5 -71q0 -15 30.5 -31t30.5 -30q0 -13 -17 -17.5t-38 -5.5t-26 -5zM203 458
q25 61 57 110q1 1 5.5 8t8 12t10 13.5t12 14.5t12 12t12.5 9t12 3q17 0 17 -16q0 -12 -10.5 -40t-10.5 -43q0 -24 15 -38t36 -14q35 0 57.5 35.5t22.5 74.5q0 38 -24 59t-65 21q-73 0 -128 -51t-55 -124q0 -31 16 -46zM414 871q-59 -65 -103 -83q-6 -2 -8 -2q-8 0 -13.5 6.5
t-5.5 14.5q0 10 9 16q53 31 97 78q2 3 8 10t10 12t10.5 9.5t12.5 4.5q18 0 20 -18q4 -34 13 -63q1 -3 8.5 -21.5t7.5 -29.5q0 -10 -7 -17t-16 -7q-13 0 -20 13q-5 8 -9 19t-6 19t-4.5 20.5t-3.5 18.5z" />
    <glyph glyph-name="Edieresis" unicode="&#xcb;" horiz-adv-x="423" 
d="M215 339q-9 -20 -9.5 -60t-4 -66t-21.5 -26q-14 2 -14 42q0 28 10 101q-53 -10 -103 -64t-50 -124q0 -48 32.5 -79.5t84.5 -31.5q60 0 132.5 42t137.5 107q7 7 15 7q7 0 12.5 -6.5t5.5 -14.5t-5 -13q-173 -173 -304 -173q-80 0 -121 43t-41 109q0 64 36.5 124.5
t96.5 89.5q7 3 31.5 12.5t39.5 17.5t15 13q0 6 -14.5 25.5t-19.5 30.5q-16 36 -16 74q0 83 70 142t162 59q58 0 96 -33t38 -88q0 -61 -39 -106.5t-90 -45.5q-88 0 -88 98l-1 2q-7 0 -30.5 -48t-23.5 -71q0 -15 30.5 -31t30.5 -30q0 -13 -17 -17.5t-38 -5.5t-26 -5zM203 458
q25 61 57 110q1 1 5.5 8t8 12t10 13.5t12 14.5t12 12t12.5 9t12 3q17 0 17 -16q0 -12 -10.5 -40t-10.5 -43q0 -24 15 -38t36 -14q35 0 57.5 35.5t22.5 74.5q0 38 -24 59t-65 21q-73 0 -128 -51t-55 -124q0 -31 16 -46zM445 880q31 0 31 -33q0 -15 -14.5 -30.5t-29.5 -15.5
q-13 0 -20 12.5t-7 29.5q0 15 12.5 26t27.5 11zM326 871q31 0 31 -36q0 -16 -14.5 -29.5t-30.5 -13.5q-24 0 -24 44q0 15 11 25t27 10z" />
    <glyph glyph-name="Igrave" unicode="&#xcc;" 
d="M137 88q-14 24 -44.5 51.5t-51.5 27.5q-18 0 -32.5 -30.5t-14.5 -62.5q0 -45 42 -45q24 0 55 17q13 7 29.5 21t16.5 21zM430 525q-11 -8 -45 -38.5t-60.5 -49t-43.5 -18.5q-13 0 -13 17q0 15 20.5 30.5t56.5 40.5t60 53q7 8 29.5 38.5t38 43.5t33.5 13q14 0 20 -8
q9 -12 9 -27q0 -12 -6 -27.5t-13 -27t-19 -31t-18 -29.5q-132 -242 -206 -345q-4 -6 -20 -25.5t-27 -35.5t-11 -21q0 -8 14 -19t26 -11q40 0 101 46.5t95 84.5q9 9 18 9q8 0 13.5 -6.5t5.5 -14.5q0 -9 -7 -16q-45 -45 -116 -95t-119 -50q-18 0 -41.5 21t-25.5 21
q-7 0 -17 -5.5t-22 -14.5t-17 -12q-44 -26 -89 -26q-37 0 -60 21.5t-23 66.5q0 40 16 78t40 48q21 8 37 8q27 0 52.5 -17t48.5 -40.5t33 -29.5q52 37 150 219q30 56 102 181zM500 881q9 -60 38 -116q3 -6 3 -11q0 -8 -5.5 -14.5t-13.5 -6.5t-16 8q-18 18 -37.5 59.5
t-19.5 67.5q0 13 9.5 21t21.5 8q17 0 20 -16z" />
    <glyph glyph-name="Iacute" unicode="&#xcd;" 
d="M137 88q-14 24 -44.5 51.5t-51.5 27.5q-18 0 -32.5 -30.5t-14.5 -62.5q0 -45 42 -45q24 0 55 17q13 7 29.5 21t16.5 21zM430 525q-11 -8 -45 -38.5t-60.5 -49t-43.5 -18.5q-13 0 -13 17q0 15 20.5 30.5t56.5 40.5t60 53q7 8 29.5 38.5t38 43.5t33.5 13q14 0 20 -8
q9 -12 9 -27q0 -12 -6 -27.5t-13 -27t-19 -31t-18 -29.5q-132 -242 -206 -345q-4 -6 -20 -25.5t-27 -35.5t-11 -21q0 -8 14 -19t26 -11q40 0 101 46.5t95 84.5q9 9 18 9q8 0 13.5 -6.5t5.5 -14.5q0 -9 -7 -16q-45 -45 -116 -95t-119 -50q-18 0 -41.5 21t-25.5 21
q-7 0 -17 -5.5t-22 -14.5t-17 -12q-44 -26 -89 -26q-37 0 -60 21.5t-23 66.5q0 40 16 78t40 48q21 8 37 8q27 0 52.5 -17t48.5 -40.5t33 -29.5q52 37 150 219q30 56 102 181zM702 870q0 -12 -9 -24q-46 -60 -109 -118q-11 -10 -20 -10q-13 0 -13 16q0 6 2.5 11t8 11.5
t7.5 8.5q48 55 81 113q9 17 27 17q11 0 18 -7t7 -18z" />
    <glyph glyph-name="Icircumflex" unicode="&#xce;" 
d="M137 88q-14 24 -44.5 51.5t-51.5 27.5q-18 0 -32.5 -30.5t-14.5 -62.5q0 -45 42 -45q24 0 55 17q13 7 29.5 21t16.5 21zM430 525q-11 -8 -45 -38.5t-60.5 -49t-43.5 -18.5q-13 0 -13 17q0 15 20.5 30.5t56.5 40.5t60 53q7 8 29.5 38.5t38 43.5t33.5 13q14 0 20 -8
q9 -12 9 -27q0 -12 -6 -27.5t-13 -27t-19 -31t-18 -29.5q-132 -242 -206 -345q-4 -6 -20 -25.5t-27 -35.5t-11 -21q0 -8 14 -19t26 -11q40 0 101 46.5t95 84.5q9 9 18 9q8 0 13.5 -6.5t5.5 -14.5q0 -9 -7 -16q-45 -45 -116 -95t-119 -50q-18 0 -41.5 21t-25.5 21
q-7 0 -17 -5.5t-22 -14.5t-17 -12q-44 -26 -89 -26q-37 0 -60 21.5t-23 66.5q0 40 16 78t40 48q21 8 37 8q27 0 52.5 -17t48.5 -40.5t33 -29.5q52 37 150 219q30 56 102 181zM557 813q-59 -65 -103 -83q-6 -2 -8 -2q-8 0 -13.5 6.5t-5.5 14.5q0 10 9 16q53 31 97 78
q2 3 8 10t10 12t10.5 9.5t12.5 4.5q18 0 20 -18q4 -34 13 -63q1 -3 8.5 -21.5t7.5 -29.5q0 -10 -7 -17t-16 -7q-13 0 -20 13q-5 8 -9 19t-6 19t-4.5 20.5t-3.5 18.5z" />
    <glyph glyph-name="Idieresis" unicode="&#xcf;" 
d="M137 88q-14 24 -44.5 51.5t-51.5 27.5q-18 0 -32.5 -30.5t-14.5 -62.5q0 -45 42 -45q24 0 55 17q13 7 29.5 21t16.5 21zM430 525q-11 -8 -45 -38.5t-60.5 -49t-43.5 -18.5q-13 0 -13 17q0 15 20.5 30.5t56.5 40.5t60 53q7 8 29.5 38.5t38 43.5t33.5 13q14 0 20 -8
q9 -12 9 -27q0 -12 -6 -27.5t-13 -27t-19 -31t-18 -29.5q-132 -242 -206 -345q-4 -6 -20 -25.5t-27 -35.5t-11 -21q0 -8 14 -19t26 -11q40 0 101 46.5t95 84.5q9 9 18 9q8 0 13.5 -6.5t5.5 -14.5q0 -9 -7 -16q-45 -45 -116 -95t-119 -50q-18 0 -41.5 21t-25.5 21
q-7 0 -17 -5.5t-22 -14.5t-17 -12q-44 -26 -89 -26q-37 0 -60 21.5t-23 66.5q0 40 16 78t40 48q21 8 37 8q27 0 52.5 -17t48.5 -40.5t33 -29.5q52 37 150 219q30 56 102 181zM624 792q31 0 31 -33q0 -15 -14.5 -30.5t-29.5 -15.5q-13 0 -20 12.5t-7 29.5q0 15 12.5 26
t27.5 11zM488 823q31 0 31 -36q0 -16 -14.5 -29.5t-30.5 -13.5q-24 0 -24 44q0 15 11 25t27 10z" />
    <glyph glyph-name="Eth" unicode="&#xd0;" horiz-adv-x="687" 
d="M560 656q-10 5 -28 5q-12 0 -25.5 -2.5t-29.5 -6.5t-21 -5q-65 -13 -124.5 -37t-119 -62.5t-96 -65t-98.5 -76.5q-2 -2 -10 -9t-13 -11t-12 -8t-13 -4q-7 0 -16 9t-9 20q0 7 3 13.5t10 12.5t12 10.5t14 11t12 8.5q64 49 116 83.5t125 74t153 61t162 23.5q4 0 13 -0.5
t14 -0.5q26 0 59 39t64 77.5t52 38.5q20 0 20 -22q0 -34 -28 -72q-3 -4 -21.5 -26.5t-31.5 -42t-13 -31.5q0 -10 8 -25l8 -15q17 -48 17 -104q0 -116 -86 -290q-48 -100 -118 -164q-21 -19 -34 -30t-38.5 -22t-51.5 -11t-47.5 10t-33 21t-28.5 32q-22 26 -31 26
q-6 -5 -24.5 -23.5t-27.5 -24.5q-90 -69 -165 -69q-88 0 -88 76q0 41 23 93t49 87q20 28 35.5 46.5t42 37.5t50.5 19q34 0 59 -36.5t39.5 -74t22.5 -39.5q7 -1 15.5 5.5t20.5 22.5t13 18q48 56 82 101q7 9 -3 9h-27h-53q-17 0 -17 19q0 20 18 24q37 0 111 6q13 0 24 11
q92 123 163 239q-3 3 -7 3q-16 0 -50 -45.5t-68 -91.5t-50 -46q-8 0 -12.5 5t-4.5 11q0 14 10 29t29 34.5t21 21.5q9 11 26 29.5t31 35t27 34.5zM647 599q-3 0 -42 -58q-38 -53 -96 -140q-4 -6 1 -6q20 0 29.5 -2.5t11 -5.5t1.5 -10q0 -31 -69 -34q-15 0 -19 -8
q-63 -85 -121 -150q-16 -18 -31.5 -40t-14.5 -28q2 -18 27.5 -43t52.5 -25q54 0 112 63.5t99 140.5q82 158 82 276q0 70 -23 70zM218 141q-4 8 -14.5 31.5t-16.5 35t-16.5 27t-21.5 22.5t-23 7q-18 0 -38 -17q-35 -29 -68.5 -82t-33.5 -96q0 -54 42 -54q25 0 50.5 10
t39.5 19.5t38 28.5q41 31 62 68z" />
    <glyph glyph-name="Ntilde" unicode="&#xd1;" horiz-adv-x="623" 
d="M433 189q8 15 40.5 81t46 91t42 71.5t56.5 83.5q33 44 61 75t69 67.5t86.5 56t93.5 19.5q36 0 59 -20.5t23 -59.5q0 -35 -11 -64t-32 -29q-20 0 -20 18q0 10 11 37.5t11 38.5q0 18 -16 27t-34 9q-49 0 -113 -41q-68 -44 -120 -109t-108 -159q-107 -180 -164 -334
q-1 -2 -5 -16.5t-9 -27.5t-11.5 -27.5t-15 -23.5t-16.5 -9q-19 0 -19 34q0 28 22 116q7 36 18 99t24 173.5t13 183.5q0 130 -40 130q-46 0 -88 -41.5t-64.5 -94.5t-22.5 -96q0 -7 1 -19t1 -18q0 -40 -26 -40q-23 0 -23 49q0 106 76.5 204t172.5 98q65 0 65 -167
q0 -81 -17 -219t-17 -147zM367 555q10 0 10 -13q0 -17 -24 -75q-28 -65 -63 -135.5t-82 -154.5t-94 -137.5t-81 -53.5q-27 0 -43 18.5t-16 45.5q0 19 12 45.5t29 26.5q10 0 10 -12q0 -8 -8 -23.5t-8 -24.5q0 -23 27 -23q30 0 98 104t117 198t79 159q24 55 37 55zM753 845
q14 0 14 -20q0 -22 -32.5 -45t-56.5 -23q-20 0 -50 20t-48 20q-24 0 -44 -20q-10 -10 -19 -10q-15 0 -15 17q0 21 33.5 45t55.5 24t55 -22.5t48 -22.5q13 0 40 27q10 10 19 10z" />
    <glyph glyph-name="Ograve" unicode="&#xd2;" horiz-adv-x="447" 
d="M424 706q0 -7 -4 -22t-4 -26q0 -10 20.5 -27t25.5 -26q24 -45 24 -100q0 -78 -43 -173t-105 -171.5t-136.5 -128.5t-133.5 -52q-32 0 -53 33t-27.5 69.5t-6.5 71.5q0 132 55.5 251.5t142.5 215.5q45 50 98.5 85.5t98.5 35.5q24 0 36 -7.5t12 -28.5zM355 692
q-17 0 -61 -30q-39 -27 -85 -80q-81 -93 -126 -205t-45 -225q0 -114 48 -114q68 0 152 81.5t141 195t57 201.5q0 26 -8 49.5t-25 23.5q-7 0 -14.5 -15t-15.5 -40t-9 -28q-45 -105 -86 -161q-1 -2 -9.5 -15t-14.5 -20.5t-15.5 -15t-18.5 -7.5q-21 0 -21 42q0 105 33 190
t89 115q3 2 19.5 8t25 13t8.5 17q0 20 -19 20zM259 416q8 7 16 17.5t12.5 17t13.5 23t11 20.5q38 71 38 95q0 5 -9 5q-33 0 -58 -59.5t-25 -104.5q0 -10 1 -14zM328 935q9 -60 38 -116q3 -6 3 -11q0 -8 -5.5 -14.5t-13.5 -6.5t-16 8q-18 18 -37.5 59.5t-19.5 67.5
q0 13 9.5 21t21.5 8q17 0 20 -16z" />
    <glyph glyph-name="Oacute" unicode="&#xd3;" horiz-adv-x="447" 
d="M593 934q0 -12 -9 -24q-46 -60 -109 -118q-11 -10 -20 -10q-13 0 -13 16q0 6 2.5 11t8 11.5t7.5 8.5q48 55 81 113q9 17 27 17q11 0 18 -7t7 -18zM424 706q0 -7 -4 -22t-4 -26q0 -10 20.5 -27t25.5 -26q24 -45 24 -100q0 -78 -43 -173t-105 -171.5t-136.5 -128.5
t-133.5 -52q-32 0 -53 33t-27.5 69.5t-6.5 71.5q0 132 55.5 251.5t142.5 215.5q45 50 98.5 85.5t98.5 35.5q24 0 36 -7.5t12 -28.5zM355 692q-17 0 -61 -30q-39 -27 -85 -80q-81 -93 -126 -205t-45 -225q0 -114 48 -114q68 0 152 81.5t141 195t57 201.5q0 26 -8 49.5
t-25 23.5q-7 0 -14.5 -15t-15.5 -40t-9 -28q-45 -105 -86 -161q-1 -2 -9.5 -15t-14.5 -20.5t-15.5 -15t-18.5 -7.5q-21 0 -21 42q0 105 33 190t89 115q3 2 19.5 8t25 13t8.5 17q0 20 -19 20zM259 416q8 7 16 17.5t12.5 17t13.5 23t11 20.5q38 71 38 95q0 5 -9 5
q-33 0 -58 -59.5t-25 -104.5q0 -10 1 -14z" />
    <glyph glyph-name="Ocircumflex" unicode="&#xd4;" horiz-adv-x="447" 
d="M460 881q-59 -65 -103 -83q-6 -2 -8 -2q-8 0 -13.5 6.5t-5.5 14.5q0 10 9 16q53 31 97 78q2 3 8 10t10 12t10.5 9.5t12.5 4.5q18 0 20 -18q4 -34 13 -63q1 -3 8.5 -21.5t7.5 -29.5q0 -10 -7 -17t-16 -7q-13 0 -20 13q-5 8 -9 19t-6 19t-4.5 20.5t-3.5 18.5zM424 706
q0 -7 -4 -22t-4 -26q0 -10 20.5 -27t25.5 -26q24 -45 24 -100q0 -78 -43 -173t-105 -171.5t-136.5 -128.5t-133.5 -52q-32 0 -53 33t-27.5 69.5t-6.5 71.5q0 132 55.5 251.5t142.5 215.5q45 50 98.5 85.5t98.5 35.5q24 0 36 -7.5t12 -28.5zM355 692q-17 0 -61 -30
q-39 -27 -85 -80q-81 -93 -126 -205t-45 -225q0 -114 48 -114q68 0 152 81.5t141 195t57 201.5q0 26 -8 49.5t-25 23.5q-7 0 -14.5 -15t-15.5 -40t-9 -28q-45 -105 -86 -161q-1 -2 -9.5 -15t-14.5 -20.5t-15.5 -15t-18.5 -7.5q-21 0 -21 42q0 105 33 190t89 115q3 2 19.5 8
t25 13t8.5 17q0 20 -19 20zM259 416q8 7 16 17.5t12.5 17t13.5 23t11 20.5q38 71 38 95q0 5 -9 5q-33 0 -58 -59.5t-25 -104.5q0 -10 1 -14z" />
    <glyph glyph-name="Otilde" unicode="&#xd5;" horiz-adv-x="447" 
d="M424 706q0 -7 -4 -22t-4 -26q0 -10 20.5 -27t25.5 -26q24 -45 24 -100q0 -78 -43 -173t-105 -171.5t-136.5 -128.5t-133.5 -52q-32 0 -53 33t-27.5 69.5t-6.5 71.5q0 132 55.5 251.5t142.5 215.5q45 50 98.5 85.5t98.5 35.5q24 0 36 -7.5t12 -28.5zM355 692
q-17 0 -61 -30q-39 -27 -85 -80q-81 -93 -126 -205t-45 -225q0 -114 48 -114q68 0 152 81.5t141 195t57 201.5q0 26 -8 49.5t-25 23.5q-7 0 -14.5 -15t-15.5 -40t-9 -28q-45 -105 -86 -161q-1 -2 -9.5 -15t-14.5 -20.5t-15.5 -15t-18.5 -7.5q-21 0 -21 42q0 105 33 190
t89 115q3 2 19.5 8t25 13t8.5 17q0 20 -19 20zM259 416q8 7 16 17.5t12.5 17t13.5 23t11 20.5q38 71 38 95q0 5 -9 5q-33 0 -58 -59.5t-25 -104.5q0 -10 1 -14zM516 896q14 0 14 -20q0 -22 -32.5 -45t-56.5 -23q-20 0 -50 20t-48 20q-24 0 -44 -20q-10 -10 -19 -10
q-15 0 -15 17q0 21 33.5 45t55.5 24t55 -22.5t48 -22.5q13 0 40 27q10 10 19 10z" />
    <glyph glyph-name="Odieresis" unicode="&#xd6;" horiz-adv-x="447" 
d="M502 855q31 0 31 -33q0 -15 -14.5 -30.5t-29.5 -15.5q-13 0 -20 12.5t-7 29.5q0 15 12.5 26t27.5 11zM344 881q31 0 31 -36q0 -16 -14.5 -29.5t-30.5 -13.5q-24 0 -24 44q0 15 11 25t27 10zM424 706q0 -7 -4 -22t-4 -26q0 -10 20.5 -27t25.5 -26q24 -45 24 -100
q0 -78 -43 -173t-105 -171.5t-136.5 -128.5t-133.5 -52q-32 0 -53 33t-27.5 69.5t-6.5 71.5q0 132 55.5 251.5t142.5 215.5q45 50 98.5 85.5t98.5 35.5q24 0 36 -7.5t12 -28.5zM355 692q-17 0 -61 -30q-39 -27 -85 -80q-81 -93 -126 -205t-45 -225q0 -114 48 -114
q68 0 152 81.5t141 195t57 201.5q0 26 -8 49.5t-25 23.5q-7 0 -14.5 -15t-15.5 -40t-9 -28q-45 -105 -86 -161q-1 -2 -9.5 -15t-14.5 -20.5t-15.5 -15t-18.5 -7.5q-21 0 -21 42q0 105 33 190t89 115q3 2 19.5 8t25 13t8.5 17q0 20 -19 20zM259 416q8 7 16 17.5t12.5 17
t13.5 23t11 20.5q38 71 38 95q0 5 -9 5q-33 0 -58 -59.5t-25 -104.5q0 -10 1 -14z" />
    <glyph glyph-name="multiply" unicode="&#xd7;" horiz-adv-x="691" 
d="M332 251l-60 -45q-8 -6 -52 -43.5t-79 -64.5t-46 -27q-8 0 -13.5 5.5t-5.5 13.5q0 10 9 17q114 93 217 171q5 3 5 8q0 4 -4 8q-27 24 -82.5 65.5t-74.5 57.5q-6 6 -6 14q0 11 8.5 19.5t19.5 8.5q15 0 42.5 -18.5t48 -37.5t50.5 -49.5t34 -33.5q5 -4 9 -4q3 0 10 4
q21 15 62 45.5t74 53.5t65 41q4 2 10 2q20 0 20 -23q-40 -193 -65 -322q-6 -16 -20 -16q-8 0 -16 8q-53 60 -138 142q-6 6 -10 6t-12 -6zM541 397q-3 0 -6 -3q-59 -39 -144 -100q-4 -3 -4 -8q0 -7 5 -12q56 -56 99 -106q3 -4 8 -4q6 0 7 6q4 24 14 79q24 136 24 141
q0 7 -3 7z" />
    <glyph glyph-name="Oslash" unicode="&#xd8;" horiz-adv-x="447" 
d="M528 749q0 -8 -4.5 -19.5t-9 -19.5t-10.5 -18t-7 -11q-2 -5 -13 -21.5t-18 -30.5t-7 -26q0 -13 11.5 -44t11.5 -52q0 -73 -35 -162q-56 -142 -178 -264q-90 -90 -159 -90q-12 0 -33 8.5t-32 8.5q-10 0 -20 -7.5t-21.5 -22t-14.5 -17.5q-30 -30 -44 -30q-6 0 -11.5 5.5
t-5.5 12.5q0 5 3 11.5t8 12t9 10t9 9t6 5.5q2 2 10.5 9t12 11.5t9.5 11.5t8.5 14t2.5 14q0 14 -8.5 52t-8.5 56q0 140 72 288q76 154 196 204q37 17 72 17q17 0 45 -15t32 -15q10 0 17 10q11 16 27.5 48t29.5 49.5t25 17.5q23 0 23 -20zM384 586q0 15 -22 15q-53 0 -90 -51
q-2 -3 -11.5 -20.5t-19.5 -27t-22 -9.5q-22 0 -22 16q0 17 26 48q26 30 26 36q0 3 -4 3q-10 0 -34 -19q-63 -52 -108.5 -152t-59.5 -196q-5 -40 -5 -78q0 -49 11 -49q5 0 14 8t16 16.5t16.5 20.5t11.5 14q116 134 259 381q18 34 18 44zM427 538q-1 0 -3 -2
q-11 -10 -28 -35.5t-36.5 -59t-24.5 -40.5q-86 -134 -219 -299q-2 -3 -13 -15.5t-18 -22.5t-7 -15q0 -12 25 -12q21 0 50 13t41 23q72 55 133 146q72 106 96 200q12 48 12 92q0 27 -8 27z" />
    <glyph glyph-name="Ugrave" unicode="&#xd9;" horiz-adv-x="674" 
d="M523 795q9 -60 38 -116q3 -6 3 -11q0 -8 -5.5 -14.5t-13.5 -6.5t-16 8q-18 18 -37.5 59.5t-19.5 67.5q0 13 9.5 21t21.5 8q17 0 20 -16zM607 445q16 0 16 -17q0 -9 -5 -21.5t-10.5 -21.5t-13.5 -20.5t-8 -12.5q-61 -102 -92 -184q-25 -67 -25 -89q0 -29 16 -29
q4 0 10.5 1.5t9.5 1.5q12 0 12 -13q0 -14 -20 -27.5t-41 -13.5q-44 0 -44 55q0 32 16 78.5t32 81t16 37.5q0 4 -3 4q-11 0 -52 -54q-64 -74 -203 -199q-57 -54 -98 -54q-39 0 -39 49q0 47 41 143q62 145 162 302q1 1 14 21.5t26.5 42t25 45t11.5 33.5q0 8 -7 8t-14.5 -1
t-15 -4t-12.5 -5.5t-12.5 -7.5l-10.5 -7t-11.5 -8t-9.5 -7q-60 -46 -113 -114t-53 -113q0 -17 7.5 -33t7.5 -23q0 -10 -10 -17.5t-19 -7.5q-15 0 -25.5 17t-10.5 41q0 70 60.5 149t131.5 135q25 19 58 36.5t54 17.5q55 0 55 -48q0 -30 -41.5 -109.5t-92 -160.5t-92 -166.5
t-41.5 -125.5q0 -13 8 -13q7 0 18.5 7t26 19t26.5 23t27.5 25.5t21.5 20.5q52 47 114 112q5 5 67.5 68t98.5 106q1 1 8 10t11.5 13t11 11t13 10t11.5 3z" />
    <glyph glyph-name="Uacute" unicode="&#xda;" horiz-adv-x="674" 
d="M678 794q0 -12 -9 -24q-46 -60 -109 -118q-11 -10 -20 -10q-13 0 -13 16q0 6 2.5 11t8 11.5t7.5 8.5q48 55 81 113q9 17 27 17q11 0 18 -7t7 -18zM607 445q16 0 16 -17q0 -9 -5 -21.5t-10.5 -21.5t-13.5 -20.5t-8 -12.5q-61 -102 -92 -184q-25 -67 -25 -89q0 -29 16 -29
q4 0 10.5 1.5t9.5 1.5q12 0 12 -13q0 -14 -20 -27.5t-41 -13.5q-44 0 -44 55q0 32 16 78.5t32 81t16 37.5q0 4 -3 4q-11 0 -52 -54q-64 -74 -203 -199q-57 -54 -98 -54q-39 0 -39 49q0 47 41 143q62 145 162 302q1 1 14 21.5t26.5 42t25 45t11.5 33.5q0 8 -7 8t-14.5 -1
t-15 -4t-12.5 -5.5t-12.5 -7.5l-10.5 -7t-11.5 -8t-9.5 -7q-60 -46 -113 -114t-53 -113q0 -17 7.5 -33t7.5 -23q0 -10 -10 -17.5t-19 -7.5q-15 0 -25.5 17t-10.5 41q0 70 60.5 149t131.5 135q25 19 58 36.5t54 17.5q55 0 55 -48q0 -30 -41.5 -109.5t-92 -160.5t-92 -166.5
t-41.5 -125.5q0 -13 8 -13q7 0 18.5 7t26 19t26.5 23t27.5 25.5t21.5 20.5q52 47 114 112q5 5 67.5 68t98.5 106q1 1 8 10t11.5 13t11 11t13 10t11.5 3z" />
    <glyph glyph-name="Ucircumflex" unicode="&#xdb;" horiz-adv-x="674" 
d="M588 741q-59 -65 -103 -83q-6 -2 -8 -2q-8 0 -13.5 6.5t-5.5 14.5q0 10 9 16q53 31 97 78q2 3 8 10t10 12t10.5 9.5t12.5 4.5q18 0 20 -18q4 -34 13 -63q1 -3 8.5 -21.5t7.5 -29.5q0 -10 -7 -17t-16 -7q-13 0 -20 13q-5 8 -9 19t-6 19t-4.5 20.5t-3.5 18.5zM607 445
q16 0 16 -17q0 -9 -5 -21.5t-10.5 -21.5t-13.5 -20.5t-8 -12.5q-61 -102 -92 -184q-25 -67 -25 -89q0 -29 16 -29q4 0 10.5 1.5t9.5 1.5q12 0 12 -13q0 -14 -20 -27.5t-41 -13.5q-44 0 -44 55q0 32 16 78.5t32 81t16 37.5q0 4 -3 4q-11 0 -52 -54q-64 -74 -203 -199
q-57 -54 -98 -54q-39 0 -39 49q0 47 41 143q62 145 162 302q1 1 14 21.5t26.5 42t25 45t11.5 33.5q0 8 -7 8t-14.5 -1t-15 -4t-12.5 -5.5t-12.5 -7.5l-10.5 -7t-11.5 -8t-9.5 -7q-60 -46 -113 -114t-53 -113q0 -17 7.5 -33t7.5 -23q0 -10 -10 -17.5t-19 -7.5q-15 0 -25.5 17
t-10.5 41q0 70 60.5 149t131.5 135q25 19 58 36.5t54 17.5q55 0 55 -48q0 -30 -41.5 -109.5t-92 -160.5t-92 -166.5t-41.5 -125.5q0 -13 8 -13q7 0 18.5 7t26 19t26.5 23t27.5 25.5t21.5 20.5q52 47 114 112q5 5 67.5 68t98.5 106q1 1 8 10t11.5 13t11 11t13 10t11.5 3z" />
    <glyph glyph-name="Udieresis" unicode="&#xdc;" horiz-adv-x="674" 
d="M623 686q31 0 31 -33q0 -15 -14.5 -30.5t-29.5 -15.5q-13 0 -20 12.5t-7 29.5q0 15 12.5 26t27.5 11zM508 722q31 0 31 -36q0 -16 -14.5 -29.5t-30.5 -13.5q-24 0 -24 44q0 15 11 25t27 10zM607 445q16 0 16 -17q0 -9 -5 -21.5t-10.5 -21.5t-13.5 -20.5t-8 -12.5
q-61 -102 -92 -184q-25 -67 -25 -89q0 -29 16 -29q4 0 10.5 1.5t9.5 1.5q12 0 12 -13q0 -14 -20 -27.5t-41 -13.5q-44 0 -44 55q0 32 16 78.5t32 81t16 37.5q0 4 -3 4q-11 0 -52 -54q-64 -74 -203 -199q-57 -54 -98 -54q-39 0 -39 49q0 47 41 143q62 145 162 302
q1 1 14 21.5t26.5 42t25 45t11.5 33.5q0 8 -7 8t-14.5 -1t-15 -4t-12.5 -5.5t-12.5 -7.5l-10.5 -7t-11.5 -8t-9.5 -7q-60 -46 -113 -114t-53 -113q0 -17 7.5 -33t7.5 -23q0 -10 -10 -17.5t-19 -7.5q-15 0 -25.5 17t-10.5 41q0 70 60.5 149t131.5 135q25 19 58 36.5t54 17.5
q55 0 55 -48q0 -30 -41.5 -109.5t-92 -160.5t-92 -166.5t-41.5 -125.5q0 -13 8 -13q7 0 18.5 7t26 19t26.5 23t27.5 25.5t21.5 20.5q52 47 114 112q5 5 67.5 68t98.5 106q1 1 8 10t11.5 13t11 11t13 10t11.5 3z" />
    <glyph glyph-name="Yacute" unicode="&#xdd;" horiz-adv-x="548" 
d="M598 778q0 -12 -9 -24q-46 -60 -109 -118q-11 -10 -20 -10q-13 0 -13 16q0 6 2.5 11t8 11.5t7.5 8.5q48 55 81 113q9 17 27 17q11 0 18 -7t7 -18zM606 594q22 0 22 -25q0 -15 -8 -36q-64 -161 -147 -276t-213 -217q-44 -35 -69 -53t-68.5 -38t-79.5 -20q-33 0 -53 17.5
t-20 47.5q0 34 27.5 73t61.5 39q25 0 39 -15t16.5 -33.5t6.5 -33.5t10 -15q10 0 24.5 7t32.5 21t30.5 24.5t30.5 27t22 19.5t12.5 10t13 10.5t8.5 9.5t4 12q0 8 -5.5 23t-6.5 23q-15 75 -15 177q0 103 13 213l7 56q0 6 -2 6q-5 0 -24 -58.5t-23 -79.5q-13 -72 -13 -127
q0 -19 4 -59.5t4 -60.5q0 -37 -24 -37q-35 0 -35 138q0 59 16.5 140.5t46 146.5t60.5 65q44 0 44 -38q0 -13 -5 -53.5t-7 -68.5q-7 -108 -7 -181q0 -109 14 -187q2 -5 4 -5q4 0 11.5 9t18 24t12.5 18q72 89 111 161.5t66 166.5q6 20 12 26t20 6zM51 56q-16 0 -25.5 -19.5
t-9.5 -43.5q0 -21 26 -21q18 0 23 6t5 27q0 51 -19 51z" />
    <glyph glyph-name="Thorn" unicode="&#xde;" horiz-adv-x="448" 
d="M382 610q1 -9 11 -17t23 -15t16 -10q71 -65 71 -146q0 -90 -73 -186q-78 -102 -176 -102q-19 0 -33.5 13t-14.5 36t18.5 52.5t43.5 29.5q11 0 16.5 -5.5t5.5 -11.5q0 -7 -14.5 -25t-14.5 -26q0 -15 16 -15q21 0 57 28q49 39 72.5 78.5t38.5 112.5q2 9 2 27
q0 49 -26.5 87.5t-56.5 38.5q-7 0 -13.5 -3t-12.5 -11.5t-9 -13.5t-10 -18.5t-9 -17.5l-60 -112.5t-65.5 -124.5t-52 -108.5t-49.5 -120.5q-2 -8 -2 -11q0 -5 1.5 -13.5t1.5 -12.5q0 -9 -9.5 -20t-30.5 -11q-12 0 -18 8.5t-6 18.5q0 16 11 49q8 25 17.5 50t22 53t21 48
t25 52.5t23.5 47t26.5 51t24.5 46t26.5 49.5t24.5 45q1 1 10 15t16 28t7 21q0 9 -13 9q-22 0 -64 -29q-94 -62 -115 -155q0 -2 -1.5 -13.5t-3.5 -18t-8.5 -13.5t-17.5 -7q-24 0 -24 41q0 44 23 84t62.5 70.5t80 52.5t86.5 39q2 1 15.5 5t18.5 7t27.5 35.5t22.5 42.5
q0 5 -4 5t-23 -12.5t-28 -12.5q-5 0 -10 4.5t-5 12.5q0 6 4 13.5t11 14.5t12.5 11.5t13 10t8.5 6.5q2 1 10.5 8t10.5 8.5t9.5 7t10.5 7.5t9.5 5.5t11.5 5t11.5 3.5t12.5 3t16 1q25 0 25 -23q0 -9 -5 -17.5t-14 -18t-12 -14.5q-13 -19 -35 -57t-22 -50z" />
    <glyph glyph-name="germandbls" unicode="&#xdf;" horiz-adv-x="532" 
d="M403 234q6 -41 6 -90q0 -71 -35 -118.5t-101 -47.5q-28 0 -50.5 16.5t-22.5 44.5q0 30 27 61.5t68 31.5q16 0 16 -7q0 -19 -23 -32q-38 -23 -38 -45q0 -11 8.5 -19t20.5 -8q81 0 81 121q0 40 -4 62.5t-4 31.5t17.5 26.5t35 40.5t17.5 46q0 16 -10 16q-28 0 -91 -70
q-17 -18 -67 -85t-57 -75q-114 -140 -163.5 -208t-147.5 -219q-34 -51 -52 -51q-14 0 -14 15q0 6 3 15t8.5 18t10 15.5t9.5 14t6 8.5q125 213 248 442q8 12 31.5 57.5t23.5 56.5q0 4 -2 4q-8 0 -30 -24.5t-55.5 -63.5t-56.5 -61q-8 -7 -17 -7q-7 0 -12.5 5.5t-5.5 12.5
q0 8 8 16q27 26 55 56t47 51t49.5 59.5t42 53.5t48 62.5t44.5 58.5q12 16 38 57t48 71.5t35 38.5q8 5 15 5q12 0 12 -15q0 -53 -157 -278q-36 -51 -53.5 -83t-40 -80.5t-45.5 -92.5q-32 -58 -32 -73q5 0 45 53q109 151 145 193q89 102 146 102q47 0 47 -45q0 -32 -23 -74
t-52 -67z" />
    <glyph glyph-name="agrave" unicode="&#xe0;" horiz-adv-x="515" 
d="M298 595q9 -60 38 -116q3 -6 3 -11q0 -8 -5.5 -14.5t-13.5 -6.5t-16 8q-18 18 -37.5 59.5t-19.5 67.5q0 13 9.5 21t21.5 8q17 0 20 -16zM11 147q-9 -4 -19.5 2t-10.5 16q0 9 10 18q33 31 84 71q7 6 27 22t28.5 22.5t26 19.5t29 19t27.5 13.5t30 10.5t29 3q9 0 15 -6.5
t6 -14.5q0 -17 -36 -43q-24 -18 -81.5 -47.5t-68.5 -39.5q-21 -19 -40.5 -60t-19.5 -72q0 -42 39 -42q46 0 109.5 62t83.5 110q19 46 54 97t65 51q21 0 21 -23q0 -20 -45 -73t-62 -88q-28 -59 -28 -95q0 -38 32 -38q20 0 49 16q17 10 52.5 42.5t64.5 60t34 27.5q7 0 13 -6
t6 -13q0 -15 -78 -85t-118 -84q-24 -8 -39 -8q-32 0 -45.5 19t-16.5 46t-4 30l-4 -3q-30 -35 -77 -66t-83 -31q-39 0 -58 23.5t-19 60.5q0 34 17 73z" />
    <glyph glyph-name="aacute" unicode="&#xe1;" horiz-adv-x="515" 
d="M11 147q-9 -4 -19.5 2t-10.5 16q0 9 10 18q33 31 84 71q7 6 27 22t28.5 22.5t26 19.5t29 19t27.5 13.5t30 10.5t29 3q9 0 15 -6.5t6 -14.5q0 -17 -36 -43q-24 -18 -81.5 -47.5t-68.5 -39.5q-21 -19 -40.5 -60t-19.5 -72q0 -42 39 -42q46 0 109.5 62t83.5 110q19 46 54 97
t65 51q21 0 21 -23q0 -20 -45 -73t-62 -88q-28 -59 -28 -95q0 -38 32 -38q20 0 49 16q17 10 52.5 42.5t64.5 60t34 27.5q7 0 13 -6t6 -13q0 -15 -78 -85t-118 -84q-24 -8 -39 -8q-32 0 -45.5 19t-16.5 46t-4 30l-4 -3q-30 -35 -77 -66t-83 -31q-39 0 -58 23.5t-19 60.5
q0 34 17 73zM473 594q0 -12 -9 -24q-46 -60 -109 -118q-11 -10 -20 -10q-13 0 -13 16q0 6 2.5 11t8 11.5t7.5 8.5q48 55 81 113q9 17 27 17q11 0 18 -7t7 -18z" />
    <glyph glyph-name="acircumflex" unicode="&#xe2;" horiz-adv-x="515" 
d="M369 541q-59 -65 -103 -83q-6 -2 -8 -2q-8 0 -13.5 6.5t-5.5 14.5q0 10 9 16q53 31 97 78q2 3 8 10t10 12t10.5 9.5t12.5 4.5q18 0 20 -18q4 -34 13 -63q1 -3 8.5 -21.5t7.5 -29.5q0 -10 -7 -17t-16 -7q-13 0 -20 13q-5 8 -9 19t-6 19t-4.5 20.5t-3.5 18.5zM11 147
q-9 -4 -19.5 2t-10.5 16q0 9 10 18q33 31 84 71q7 6 27 22t28.5 22.5t26 19.5t29 19t27.5 13.5t30 10.5t29 3q9 0 15 -6.5t6 -14.5q0 -17 -36 -43q-24 -18 -81.5 -47.5t-68.5 -39.5q-21 -19 -40.5 -60t-19.5 -72q0 -42 39 -42q46 0 109.5 62t83.5 110q19 46 54 97t65 51
q21 0 21 -23q0 -20 -45 -73t-62 -88q-28 -59 -28 -95q0 -38 32 -38q20 0 49 16q17 10 52.5 42.5t64.5 60t34 27.5q7 0 13 -6t6 -13q0 -15 -78 -85t-118 -84q-24 -8 -39 -8q-32 0 -45.5 19t-16.5 46t-4 30l-4 -3q-30 -35 -77 -66t-83 -31q-39 0 -58 23.5t-19 60.5q0 34 17 73
z" />
    <glyph glyph-name="atilde" unicode="&#xe3;" horiz-adv-x="515" 
d="M472 546q14 0 14 -20q0 -22 -32.5 -45t-56.5 -23q-20 0 -50 20t-48 20q-24 0 -44 -20q-10 -10 -19 -10q-15 0 -15 17q0 21 33.5 45t55.5 24t55 -22.5t48 -22.5q13 0 40 27q10 10 19 10zM11 147q-9 -4 -19.5 2t-10.5 16q0 9 10 18q33 31 84 71q7 6 27 22t28.5 22.5
t26 19.5t29 19t27.5 13.5t30 10.5t29 3q9 0 15 -6.5t6 -14.5q0 -17 -36 -43q-24 -18 -81.5 -47.5t-68.5 -39.5q-21 -19 -40.5 -60t-19.5 -72q0 -42 39 -42q46 0 109.5 62t83.5 110q19 46 54 97t65 51q21 0 21 -23q0 -20 -45 -73t-62 -88q-28 -59 -28 -95q0 -38 32 -38
q20 0 49 16q17 10 52.5 42.5t64.5 60t34 27.5q7 0 13 -6t6 -13q0 -15 -78 -85t-118 -84q-24 -8 -39 -8q-32 0 -45.5 19t-16.5 46t-4 30l-4 -3q-30 -35 -77 -66t-83 -31q-39 0 -58 23.5t-19 60.5q0 34 17 73z" />
    <glyph glyph-name="adieresis" unicode="&#xe4;" horiz-adv-x="515" 
d="M412 550q31 0 31 -33q0 -15 -14.5 -30.5t-29.5 -15.5q-13 0 -20 12.5t-7 29.5q0 15 12.5 26t27.5 11zM293 541q31 0 31 -36q0 -16 -14.5 -29.5t-30.5 -13.5q-24 0 -24 44q0 15 11.5 25t26.5 10zM11 147q-9 -4 -19.5 2t-10.5 16q0 9 10 18q33 31 84 71q7 6 27 22
t28.5 22.5t26 19.5t29 19t27.5 13.5t30 10.5t29 3q9 0 15 -6.5t6 -14.5q0 -17 -36 -43q-24 -18 -81.5 -47.5t-68.5 -39.5q-21 -19 -40.5 -60t-19.5 -72q0 -42 39 -42q46 0 109.5 62t83.5 110q19 46 54 97t65 51q21 0 21 -23q0 -20 -45 -73t-62 -88q-28 -59 -28 -95
q0 -38 32 -38q20 0 49 16q17 10 52.5 42.5t64.5 60t34 27.5q7 0 13 -6t6 -13q0 -15 -78 -85t-118 -84q-24 -8 -39 -8q-32 0 -45.5 19t-16.5 46t-4 30l-4 -3q-30 -35 -77 -66t-83 -31q-39 0 -58 23.5t-19 60.5q0 34 17 73z" />
    <glyph glyph-name="aring" unicode="&#xe5;" horiz-adv-x="515" 
d="M402 592q63 0 63 -73q0 -32 -28.5 -57t-61.5 -25q-25 0 -43 17.5t-18 46.5q0 36 27 63.5t61 27.5zM404 552q-18 0 -30.5 -13t-12.5 -33q0 -10 7 -17t17 -7q18 0 29.5 14.5t11.5 32.5q0 13 -7.5 18t-14.5 5zM11 147q-9 -4 -19.5 2t-10.5 16q0 9 10 18q33 31 84 71
q7 6 27 22t28.5 22.5t26 19.5t29 19t27.5 13.5t30 10.5t29 3q9 0 15 -6.5t6 -14.5q0 -17 -36 -43q-24 -18 -81.5 -47.5t-68.5 -39.5q-21 -19 -40.5 -60t-19.5 -72q0 -42 39 -42q46 0 109.5 62t83.5 110q19 46 54 97t65 51q21 0 21 -23q0 -20 -45 -73t-62 -88
q-28 -59 -28 -95q0 -38 32 -38q20 0 49 16q17 10 52.5 42.5t64.5 60t34 27.5q7 0 13 -6t6 -13q0 -15 -78 -85t-118 -84q-24 -8 -39 -8q-32 0 -45.5 19t-16.5 46t-4 30l-4 -3q-30 -35 -77 -66t-83 -31q-39 0 -58 23.5t-19 60.5q0 34 17 73z" />
    <glyph glyph-name="ae" unicode="&#xe6;" horiz-adv-x="564" 
d="M273 147q-3 -18 -3 -32q0 -75 75 -75q13 0 28.5 5t32.5 15.5t31 20t33 26.5t29 26t29 27t23 22q6 6 14 6t13.5 -5.5t5.5 -13.5q0 -9 -7 -16q-6 -6 -29 -28t-31 -29t-29 -25t-32 -25.5t-30 -19.5t-33 -17t-32 -9.5t-35 -4.5q-79 0 -97 80q-4 19 -17 3q-72 -91 -139 -91
q-23 0 -40 14.5t-17 39.5q0 33 22.5 62.5t59.5 49.5t71 32.5t68 20.5q9 33 9 54q0 29 -14 42.5t-28 13.5q-21 0 -53.5 -28t-75 -73.5t-58.5 -59.5q-7 -6 -16 -6q-8 0 -13.5 5t-5.5 13q0 10 9 18q19 16 67 69t88.5 83.5t80.5 30.5q16 0 32.5 -15.5t26.5 -39.5q7 -17 9 -17
q3 0 7 5q29 38 67.5 61t73.5 23q63 0 63 -57q0 -51 -78.5 -106t-154.5 -75zM438 338q-26 0 -77.5 -44t-69.5 -89q-3 -8 5 -8q26 0 89.5 47t63.5 82q0 12 -11 12zM214 148q0 5 -6 5q-23 0 -79.5 -37.5t-56.5 -58.5q0 -7 6 -15t15 -8q26 0 73.5 44t47.5 70z" />
    <glyph glyph-name="ccedilla" unicode="&#xe7;" horiz-adv-x="324" 
d="M80 0q-31 -36 -45 -64q31 -3 44 -14.5t13 -39.5q0 -51 -50 -84.5t-107 -33.5q-22 0 -22 22q0 21 21 21q2 0 9 -0.5t9 -0.5q34 0 61 21t27 49q0 16 -8 23t-17.5 7.5t-17.5 4.5t-8 15q0 27 49 80q-31 13 -48 44t-17 72q0 52 36 109.5t93.5 96.5t114.5 39q66 0 66 -52
q0 -34 -22.5 -66.5t-49.5 -32.5q-8 0 -15.5 5.5t-7.5 12.5q0 20 20 42.5t20 32.5q0 15 -14 15q-67 0 -126 -68.5t-59 -139.5q0 -64 65 -64q84 0 217 130q7 6 17 3t13 -11.5t-5 -20.5q-34 -42 -107 -91q-90 -60 -149 -62z" />
    <glyph glyph-name="egrave" unicode="&#xe8;" horiz-adv-x="330" 
d="M199 595q9 -60 38 -116q3 -6 3 -11q0 -8 -5.5 -14.5t-13.5 -6.5t-16 8q-18 18 -37.5 59.5t-19.5 67.5q0 13 9.5 21t21.5 8q17 0 20 -16zM264 327q0 -23 -9.5 -42t-32 -36.5t-37.5 -27t-49.5 -27.5t-45.5 -24q-8 -4 -24 -10.5t-26 -11.5t-11 -9q-2 -16 -2 -22
q0 -40 23 -58.5t54 -18.5q72 0 212 140q9 9 19.5 5.5t13 -13.5t-6.5 -21q-51 -52 -82.5 -80t-79 -52t-95.5 -24q-54 0 -83 37t-29 88q0 77 76 171t154 94q25 0 43 -15.5t18 -42.5zM192 340q-31 0 -76 -46t-57 -77q-2 -6 -2 -7q0 -7 9 -7q27 0 83.5 43t56.5 73q0 21 -14 21z
" />
    <glyph glyph-name="eacute" unicode="&#xe9;" horiz-adv-x="330" 
d="M264 327q0 -23 -9.5 -42t-32 -36.5t-37.5 -27t-49.5 -27.5t-45.5 -24q-8 -4 -24 -10.5t-26 -11.5t-11 -9q-2 -16 -2 -22q0 -40 23 -58.5t54 -18.5q72 0 212 140q9 9 19.5 5.5t13 -13.5t-6.5 -21q-51 -52 -82.5 -80t-79 -52t-95.5 -24q-54 0 -83 37t-29 88q0 77 76 171
t154 94q25 0 43 -15.5t18 -42.5zM192 340q-31 0 -76 -46t-57 -77q-2 -6 -2 -7q0 -7 9 -7q27 0 83.5 43t56.5 73q0 21 -14 21zM347 594q0 -12 -9 -24q-46 -60 -109 -118q-11 -10 -20 -10q-13 0 -13 16q0 6 2.5 11t8 11.5t7.5 8.5q48 55 81 113q9 17 27 17q11 0 18 -7t7 -18z
" />
    <glyph glyph-name="ecircumflex" unicode="&#xea;" horiz-adv-x="330" 
d="M264 327q0 -23 -9.5 -42t-32 -36.5t-37.5 -27t-49.5 -27.5t-45.5 -24q-8 -4 -24 -10.5t-26 -11.5t-11 -9q-2 -16 -2 -22q0 -40 23 -58.5t54 -18.5q72 0 212 140q9 9 19.5 5.5t13 -13.5t-6.5 -21q-51 -52 -82.5 -80t-79 -52t-95.5 -24q-54 0 -83 37t-29 88q0 77 76 171
t154 94q25 0 43 -15.5t18 -42.5zM192 340q-31 0 -76 -46t-57 -77q-2 -6 -2 -7q0 -7 9 -7q27 0 83.5 43t56.5 73q0 21 -14 21zM249 541q-59 -65 -103 -83q-6 -2 -8 -2q-8 0 -13.5 6.5t-5.5 14.5q0 10 9 16q53 31 97 78q2 3 8 10t10 12t10.5 9.5t12.5 4.5q18 0 20 -18
q4 -34 13 -63q1 -3 8.5 -21.5t7.5 -29.5q0 -10 -7 -17t-16 -7q-13 0 -20 13q-5 8 -9 19t-6 19t-4.5 20.5t-3.5 18.5z" />
    <glyph glyph-name="edieresis" unicode="&#xeb;" horiz-adv-x="330" 
d="M258 550q31 0 31 -33q0 -15 -14.5 -30.5t-29.5 -15.5q-13 0 -20 12.5t-7 29.5q0 15 12.5 26t27.5 11zM139 541q31 0 31 -36q0 -16 -14.5 -29.5t-30.5 -13.5q-24 0 -24 44q0 15 11.5 25t26.5 10zM264 327q0 -23 -9.5 -42t-32 -36.5t-37.5 -27t-49.5 -27.5t-45.5 -24
q-8 -4 -24 -10.5t-26 -11.5t-11 -9q-2 -16 -2 -22q0 -40 23 -58.5t54 -18.5q72 0 212 140q9 9 19.5 5.5t13 -13.5t-6.5 -21q-51 -52 -82.5 -80t-79 -52t-95.5 -24q-54 0 -83 37t-29 88q0 77 76 171t154 94q25 0 43 -15.5t18 -42.5zM192 340q-31 0 -76 -46t-57 -77
q-2 -6 -2 -7q0 -7 9 -7q27 0 83.5 43t56.5 73q0 21 -14 21z" />
    <glyph glyph-name="igrave" unicode="&#xec;" horiz-adv-x="278" 
d="M203 595q9 -60 38 -116q3 -6 3 -11q0 -8 -5.5 -14.5t-13.5 -6.5t-16 8q-18 18 -37.5 59.5t-19.5 67.5q0 13 9.5 21t21.5 8q17 0 20 -16zM11 151q-17 -8 -26.5 6.5t4.5 25.5q28 23 63 58t37 36q6 6 24.5 23.5t30.5 28t30.5 20.5t35.5 10q22 0 22 -23q0 -26 -26 -71
q-38 -68 -70 -132q-1 -3 -8 -17t-11.5 -25t-4.5 -19q0 -11 9 -11q13 0 41 24q28 22 102 96q9 9 20 5.5t13 -14t-8 -21.5q-11 -10 -39.5 -37t-50.5 -47t-39 -34q-2 -1 -10.5 -8t-13.5 -10.5t-13 -8t-16 -7t-16 -2.5q-35 0 -35 37q0 14 3 28q4 18 16 44t32.5 65t27.5 55
q17 34 17 42q0 6 -4 6q-5 0 -15 -10q-9 -8 -56.5 -53t-65.5 -60z" />
    <glyph glyph-name="iacute" unicode="&#xed;" horiz-adv-x="278" 
d="M360 594q0 -12 -9 -24q-46 -60 -109 -118q-11 -10 -20 -10q-13 0 -13 16q0 6 2.5 11t8 11.5t7.5 8.5q48 55 81 113q9 17 27 17q11 0 18 -7t7 -18zM133 264q-19 -15 -63.5 -58.5t-58.5 -54.5q-17 -8 -26.5 6.5t4.5 25.5q28 23 63 58t37 36q6 6 24.5 23.5t30.5 28
t30.5 20.5t35.5 10q22 0 22 -23q0 -26 -26 -71q-38 -68 -70 -132q-1 -3 -8 -17t-11.5 -25t-4.5 -19q0 -11 9 -11q13 0 41 24q28 22 102 96q9 9 20 5.5t13 -14t-8 -21.5q-11 -10 -39.5 -37t-50.5 -47t-39 -34q-2 -1 -10.5 -8t-13.5 -10.5t-13 -8t-16 -7t-16 -2.5
q-35 0 -35 37q0 14 3 28q4 18 16 44t32.5 65t27.5 55q17 34 17 42q0 6 -4 6q-5 0 -15 -10z" />
    <glyph glyph-name="icircumflex" unicode="&#xee;" horiz-adv-x="278" 
d="M233 541q-59 -65 -103 -83q-6 -2 -8 -2q-8 0 -13.5 6.5t-5.5 14.5q0 10 9 16q53 31 97 78q2 3 8 10t10 12t10.5 9.5t12.5 4.5q18 0 20 -18q4 -34 13 -63q1 -3 8.5 -21.5t7.5 -29.5q0 -10 -7 -17t-16 -7q-13 0 -20 13q-5 8 -9 19t-6 19t-4.5 20.5t-3.5 18.5zM11 151
q-17 -8 -26.5 6.5t4.5 25.5q28 23 63 58t37 36q6 6 24.5 23.5t30.5 28t30.5 20.5t35.5 10q22 0 22 -23q0 -26 -26 -71q-38 -68 -70 -132q-1 -3 -8 -17t-11.5 -25t-4.5 -19q0 -11 9 -11q13 0 41 24q28 22 102 96q9 9 20 5.5t13 -14t-8 -21.5q-11 -10 -39.5 -37t-50.5 -47
t-39 -34q-2 -1 -10.5 -8t-13.5 -10.5t-13 -8t-16 -7t-16 -2.5q-35 0 -35 37q0 14 3 28q4 18 16 44t32.5 65t27.5 55q17 34 17 42q0 6 -4 6q-5 0 -15 -10q-9 -8 -56.5 -53t-65.5 -60z" />
    <glyph glyph-name="idieresis" unicode="&#xef;" horiz-adv-x="278" 
d="M307 550q31 0 31 -33q0 -15 -14.5 -30.5t-29.5 -15.5q-13 0 -20 12.5t-7 29.5q0 15 12.5 26t27.5 11zM188 541q31 0 31 -36q0 -16 -14.5 -29.5t-30.5 -13.5q-24 0 -24 44q0 15 11 25t27 10zM11 151q-17 -8 -26.5 6.5t4.5 25.5q28 23 63 58t37 36q6 6 24.5 23.5t30.5 28
t30.5 20.5t35.5 10q22 0 22 -23q0 -26 -26 -71q-38 -68 -70 -132q-1 -3 -8 -17t-11.5 -25t-4.5 -19q0 -11 9 -11q13 0 41 24q28 22 102 96q9 9 20 5.5t13 -14t-8 -21.5q-11 -10 -39.5 -37t-50.5 -47t-39 -34q-2 -1 -10.5 -8t-13.5 -10.5t-13 -8t-16 -7t-16 -2.5
q-35 0 -35 37q0 14 3 28q4 18 16 44t32.5 65t27.5 55q17 34 17 42q0 6 -4 6q-5 0 -15 -10q-9 -8 -56.5 -53t-65.5 -60z" />
    <glyph glyph-name="eth" unicode="&#xf0;" horiz-adv-x="391" 
d="M468 675q8 0 13 -5.5t5 -13.5q0 -6 -3 -10.5t-6 -7.5t-9.5 -7.5t-9.5 -7.5q-23 -18 -75 -50q-13 -11 -11 -21q6 -33 6 -69q0 -102 -43.5 -215.5t-120 -194.5t-157.5 -81q-55 0 -55 66q0 47 22 89q2 4 2 5q0 2 -2 2q-1 0 -9 -3t-14 -3q-7 0 -13.5 5t-6.5 13q0 13 17 25
q124 97 156 118q45 29 67 29q18 0 18 -22q0 -13 -12.5 -25.5t-25 -19.5t-33.5 -16t-23 -10q-23 -12 -57.5 -79t-34.5 -105q0 -24 18 -24q37 0 81 38.5t70.5 78t42.5 71.5q62 129 62 254q0 15 -2 45q-2 11 -9 11q-4 0 -10 -3q-56 -28 -100 -48q-10 -5 -21 -5q-24 0 -24 25
q0 17 31 28q23 8 111 49q6 1 6 10q0 5 -15 38q-19 37 -58 60.5t-86 23.5q-135 0 -224 -126q-24 -33 -42 -33q-8 0 -14 5.5t-6 14.5q0 18 18 44t31 39q105 101 233 101q151 0 206 -136q4 -10 12 -10q18 0 69 41q3 2 9.5 8.5t12.5 10t13 3.5z" />
    <glyph glyph-name="ntilde" unicode="&#xf1;" horiz-adv-x="618" 
d="M635 156q-118 -112 -164 -138q-45 -26 -82 -26q-22 0 -37 14.5t-15 37.5q0 27 16 66q4 9 26 50.5t39.5 80t17.5 54.5t-14 16q-31 0 -137 -81q-76 -58 -195 -182q-2 -2 -12 -14t-16.5 -18.5t-16.5 -13t-19 -6.5q-16 0 -16 16q0 7 5 16.5t11 17t13.5 17t9.5 11.5
q95 125 124 236q-7 -1 -14 -6.5t-11 -9t-12.5 -13t-10.5 -11.5q-70 -82 -113 -118q-9 -8 -19 -3t-11.5 15t6.5 19q45 37 143 157q46 59 77 59q14 0 22 -10.5t8 -26.5q0 -36 -29 -98q-2 -5 -10 -19t-12.5 -25.5t-2.5 -20.5q13 5 30.5 19.5t42 37.5t34.5 32q79 67 135 67
q30 0 51 -14.5t21 -44.5q0 -36 -25 -84t-50 -89t-25 -59q0 -21 18 -21q17 0 45 17q57 34 144 121q13 13 25.5 2t4.5 -27zM494 546q14 0 14 -20q0 -22 -32.5 -45t-56.5 -23q-20 0 -50 20t-48 20q-24 0 -44 -20q-10 -10 -19 -10q-15 0 -15 17q0 21 33.5 45t55.5 24t55 -22.5
t48 -22.5q13 0 40 27q10 10 19 10z" />
    <glyph glyph-name="ograve" unicode="&#xf2;" horiz-adv-x="379" 
d="M219 595q9 -60 38 -116q3 -6 3 -11q0 -8 -5.5 -14.5t-13.5 -6.5t-16 8q-18 18 -37.5 59.5t-19.5 67.5q0 13 9.5 21t21.5 8q17 0 20 -16zM256 364q31 0 47 -24t16 -58q0 -62 -36.5 -130.5t-98.5 -116.5t-126 -48q-39 0 -56 29.5t-17 69.5q0 10 3 27t3 23t-5 14t-5 16t6 15
t18 15.5t18 15.5q12 13 30 36t36.5 41.5t46.5 36.5q31 17 40 17q15 0 15 -20q0 -40 -79 -97q-76 -55 -76 -143q0 -20 11.5 -33.5t29.5 -13.5q63 0 129 83.5t66 152.5q0 26 -22 33q-26 9 -26 29q0 13 9 21.5t23 8.5z" />
    <glyph glyph-name="oacute" unicode="&#xf3;" horiz-adv-x="379" 
d="M351 594q0 -12 -9 -24q-46 -60 -109 -118q-11 -10 -20 -10q-13 0 -13 16q0 6 2.5 11t8 11.5t7.5 8.5q48 55 81 113q9 17 27 17q11 0 18 -7t7 -18zM256 364q31 0 47 -24t16 -58q0 -62 -36.5 -130.5t-98.5 -116.5t-126 -48q-39 0 -56 29.5t-17 69.5q0 10 3 27t3 23t-5 14
t-5 16t6 15t18 15.5t18 15.5q12 13 30 36t36.5 41.5t46.5 36.5q31 17 40 17q15 0 15 -20q0 -40 -79 -97q-76 -55 -76 -143q0 -20 11.5 -33.5t29.5 -13.5q63 0 129 83.5t66 152.5q0 26 -22 33q-26 9 -26 29q0 13 9 21.5t23 8.5z" />
    <glyph glyph-name="ocircumflex" unicode="&#xf4;" horiz-adv-x="379" 
d="M274 541q-59 -65 -103 -83q-6 -2 -8 -2q-8 0 -13.5 6.5t-5.5 14.5q0 10 9 16q53 31 97 78q2 3 8 10t10 12t10.5 9.5t12.5 4.5q18 0 20 -18q4 -34 13 -63q1 -3 8.5 -21.5t7.5 -29.5q0 -10 -7 -17t-16 -7q-13 0 -20 13q-5 8 -9 19t-6 19t-4.5 20.5t-3.5 18.5zM256 364
q31 0 47 -24t16 -58q0 -62 -36.5 -130.5t-98.5 -116.5t-126 -48q-39 0 -56 29.5t-17 69.5q0 10 3 27t3 23t-5 14t-5 16t6 15t18 15.5t18 15.5q12 13 30 36t36.5 41.5t46.5 36.5q31 17 40 17q15 0 15 -20q0 -40 -79 -97q-76 -55 -76 -143q0 -20 11.5 -33.5t29.5 -13.5
q63 0 129 83.5t66 152.5q0 26 -22 33q-26 9 -26 29q0 13 9 21.5t23 8.5z" />
    <glyph glyph-name="otilde" unicode="&#xf5;" horiz-adv-x="379" 
d="M256 364q31 0 47 -24t16 -58q0 -62 -36.5 -130.5t-98.5 -116.5t-126 -48q-39 0 -56 29.5t-17 69.5q0 10 3 27t3 23t-5 14t-5 16t6 15t18 15.5t18 15.5q12 13 30 36t36.5 41.5t46.5 36.5q31 17 40 17q15 0 15 -20q0 -40 -79 -97q-76 -55 -76 -143q0 -20 11.5 -33.5
t29.5 -13.5q63 0 129 83.5t66 152.5q0 26 -22 33q-26 9 -26 29q0 13 9 21.5t23 8.5zM365 546q14 0 14 -20q0 -22 -32.5 -45t-56.5 -23q-20 0 -50 20t-48 20q-24 0 -44 -20q-10 -10 -19 -10q-15 0 -15 17q0 21 33.5 45t55.5 24t55 -22.5t48 -22.5q13 0 40 27q10 10 19 10z
" />
    <glyph glyph-name="odieresis" unicode="&#xf6;" horiz-adv-x="379" 
d="M313 550q31 0 31 -33q0 -15 -14.5 -30.5t-29.5 -15.5q-13 0 -20 12.5t-7 29.5q0 15 12.5 26t27.5 11zM194 541q31 0 31 -36q0 -16 -14.5 -29.5t-30.5 -13.5q-24 0 -24 44q0 15 11 25t27 10zM256 364q31 0 47 -24t16 -58q0 -62 -36.5 -130.5t-98.5 -116.5t-126 -48
q-39 0 -56 29.5t-17 69.5q0 10 3 27t3 23t-5 14t-5 16t6 15t18 15.5t18 15.5q12 13 30 36t36.5 41.5t46.5 36.5q31 17 40 17q15 0 15 -20q0 -40 -79 -97q-76 -55 -76 -143q0 -20 11.5 -33.5t29.5 -13.5q63 0 129 83.5t66 152.5q0 26 -22 33q-26 9 -26 29q0 13 9 21.5t23 8.5
z" />
    <glyph glyph-name="divide" unicode="&#xf7;" horiz-adv-x="652" 
d="M605 281q0 -15 -17 -15q-72 0 -216 4.5t-215 4.5q-9 0 -38 -1t-45 0q-20 0 -20 19t21 21q5 0 31.5 2t38.5 2q75 0 220 -8.5t220 -8.5q10 0 15 -6.5t5 -13.5zM276 164q0 -26 -14 -40.5t-30 -14.5q-28 0 -28 49q0 14 8.5 25.5t20.5 11.5t27.5 -9.5t15.5 -21.5zM387 475
q15 -3 23.5 -13.5t5.5 -24.5q-5 -24 -17.5 -34t-27.5 -8q-29 6 -21 54q7 31 37 26z" />
    <glyph glyph-name="oslash" unicode="&#xf8;" horiz-adv-x="379" 
d="M262 363q86 123 118 158q9 9 21 9q10 0 17 -6t7 -15q0 -8 -6 -17q-16 -22 -49 -64t-46 -59q-3 -5 -3 -13q0 -10 9 -33.5t9 -40.5q0 -74 -52 -156.5t-114 -116.5q-49 -26 -115 -19q-8 -11 -30.5 -42.5t-39.5 -52t-35 -38.5q-7 -6 -16 -6q-18 0 -18 20q0 7 2 11
q16 24 49.5 64t46.5 57l-1 1q-31 27 -31 82q0 19 6 45q2 8 -3 16.5t-6 13.5q-1 8 2.5 15t9 11.5t14.5 11.5t15 13q13 13 31.5 37.5t36 42.5t40.5 31q31 18 46 18q13 0 13 -14q0 -18 -22 -48t-51 -49q-28 -18 -54.5 -63t-26.5 -82q0 -19 12 -38q29 40 60.5 86.5t68.5 103
t59 88.5q-12 29 26 38zM89 32q33 -3 64 12q43 21 83.5 76.5t51.5 111.5q4 8 4 39q0 27 -10 27q-8 0 -25 -24q-132 -192 -168 -242z" />
    <glyph glyph-name="ugrave" unicode="&#xf9;" horiz-adv-x="571" 
d="M319 595q9 -60 38 -116q3 -6 3 -11q0 -8 -5.5 -14.5t-13.5 -6.5t-16 8q-18 18 -37.5 59.5t-19.5 67.5q0 13 9.5 21t21.5 8q17 0 20 -16zM104 208l5 10q16 32 16 37q0 2 -2 2q-12 0 -93 -90q-3 -5 -13 -12.5t-18 -7.5q-7 0 -12 6.5t-5 14.5q0 12 26 34q70 65 141 149
q1 1 10.5 13t15.5 19t16 14t18 7q22 0 22 -29q0 -25 -18 -65q-9 -19 -37.5 -73t-42.5 -89q-23 -58 -23 -87q0 -11 10 -11q28 0 93 62q69 63 166 176q2 2 10.5 12.5t15 17.5t15.5 15.5t18.5 13t18.5 4.5q25 0 25 -28q0 -19 -13 -47q-33 -67 -56 -120q-33 -77 -33 -100
q0 -10 10 -10q21 0 51 24q19 15 63.5 59t49.5 49q10 10 18 10q7 0 12.5 -6t5.5 -13q0 -11 -9 -20q-11 -10 -42 -40t-54.5 -51.5t-43.5 -35.5q-43 -32 -66 -32q-50 0 -50 48q0 30 24 90q4 11 14 32t17 38.5t9 31.5q-11 -5 -23 -16t-27 -29t-20 -23q-46 -50 -120 -114
q-2 -2 -10.5 -9.5t-12 -10.5t-11 -9t-13 -9t-13.5 -6.5t-15.5 -5t-15.5 -1.5q-24 0 -37.5 18t-13.5 50q0 47 47 143z" />
    <glyph glyph-name="uacute" unicode="&#xfa;" horiz-adv-x="571" 
d="M467 594q0 -12 -9 -24q-46 -60 -109 -118q-11 -10 -20 -10q-13 0 -13 16q0 6 2.5 11t8 11.5t7.5 8.5q48 55 81 113q9 17 27 17q11 0 18 -7t7 -18zM104 208l5 10q16 32 16 37q0 2 -2 2q-12 0 -93 -90q-3 -5 -13 -12.5t-18 -7.5q-7 0 -12 6.5t-5 14.5q0 12 26 34
q70 65 141 149q1 1 10.5 13t15.5 19t16 14t18 7q22 0 22 -29q0 -25 -18 -65q-9 -19 -37.5 -73t-42.5 -89q-23 -58 -23 -87q0 -11 10 -11q28 0 93 62q69 63 166 176q2 2 10.5 12.5t15 17.5t15.5 15.5t18.5 13t18.5 4.5q25 0 25 -28q0 -19 -13 -47q-33 -67 -56 -120
q-33 -77 -33 -100q0 -10 10 -10q21 0 51 24q19 15 63.5 59t49.5 49q10 10 18 10q7 0 12.5 -6t5.5 -13q0 -11 -9 -20q-11 -10 -42 -40t-54.5 -51.5t-43.5 -35.5q-43 -32 -66 -32q-50 0 -50 48q0 30 24 90q4 11 14 32t17 38.5t9 31.5q-11 -5 -23 -16t-27 -29t-20 -23
q-46 -50 -120 -114q-2 -2 -10.5 -9.5t-12 -10.5t-11 -9t-13 -9t-13.5 -6.5t-15.5 -5t-15.5 -1.5q-24 0 -37.5 18t-13.5 50q0 47 47 143z" />
    <glyph glyph-name="ucircumflex" unicode="&#xfb;" horiz-adv-x="571" 
d="M389 541q-59 -65 -103 -83q-6 -2 -8 -2q-8 0 -13.5 6.5t-5.5 14.5q0 10 9 16q53 31 97 78q2 3 8 10t10 12t10.5 9.5t12.5 4.5q18 0 20 -18q4 -34 13 -63q1 -3 8.5 -21.5t7.5 -29.5q0 -10 -7 -17t-16 -7q-13 0 -20 13q-5 8 -9 19t-6 19t-4.5 20.5t-3.5 18.5zM104 208l5 10
q16 32 16 37q0 2 -2 2q-12 0 -93 -90q-3 -5 -13 -12.5t-18 -7.5q-7 0 -12 6.5t-5 14.5q0 12 26 34q70 65 141 149q1 1 10.5 13t15.5 19t16 14t18 7q22 0 22 -29q0 -25 -18 -65q-9 -19 -37.5 -73t-42.5 -89q-23 -58 -23 -87q0 -11 10 -11q28 0 93 62q69 63 166 176
q2 2 10.5 12.5t15 17.5t15.5 15.5t18.5 13t18.5 4.5q25 0 25 -28q0 -19 -13 -47q-33 -67 -56 -120q-33 -77 -33 -100q0 -10 10 -10q21 0 51 24q19 15 63.5 59t49.5 49q10 10 18 10q7 0 12.5 -6t5.5 -13q0 -11 -9 -20q-11 -10 -42 -40t-54.5 -51.5t-43.5 -35.5
q-43 -32 -66 -32q-50 0 -50 48q0 30 24 90q4 11 14 32t17 38.5t9 31.5q-11 -5 -23 -16t-27 -29t-20 -23q-46 -50 -120 -114q-2 -2 -10.5 -9.5t-12 -10.5t-11 -9t-13 -9t-13.5 -6.5t-15.5 -5t-15.5 -1.5q-24 0 -37.5 18t-13.5 50q0 47 47 143z" />
    <glyph glyph-name="udieresis" unicode="&#xfc;" horiz-adv-x="571" 
d="M429 550q31 0 31 -33q0 -15 -14.5 -30.5t-29.5 -15.5q-13 0 -20 12.5t-7 29.5q0 15 12.5 26t27.5 11zM310 541q31 0 31 -36q0 -16 -14.5 -29.5t-30.5 -13.5q-24 0 -24 44q0 15 11 25t27 10zM104 208l5 10q16 32 16 37q0 2 -2 2q-12 0 -93 -90q-3 -5 -13 -12.5t-18 -7.5
q-7 0 -12 6.5t-5 14.5q0 12 26 34q70 65 141 149q1 1 10.5 13t15.5 19t16 14t18 7q22 0 22 -29q0 -25 -18 -65q-9 -19 -37.5 -73t-42.5 -89q-23 -58 -23 -87q0 -11 10 -11q28 0 93 62q69 63 166 176q2 2 10.5 12.5t15 17.5t15.5 15.5t18.5 13t18.5 4.5q25 0 25 -28
q0 -19 -13 -47q-33 -67 -56 -120q-33 -77 -33 -100q0 -10 10 -10q21 0 51 24q19 15 63.5 59t49.5 49q10 10 18 10q7 0 12.5 -6t5.5 -13q0 -11 -9 -20q-11 -10 -42 -40t-54.5 -51.5t-43.5 -35.5q-43 -32 -66 -32q-50 0 -50 48q0 30 24 90q4 11 14 32t17 38.5t9 31.5
q-11 -5 -23 -16t-27 -29t-20 -23q-46 -50 -120 -114q-2 -2 -10.5 -9.5t-12 -10.5t-11 -9t-13 -9t-13.5 -6.5t-15.5 -5t-15.5 -1.5q-24 0 -37.5 18t-13.5 50q0 47 47 143z" />
    <glyph glyph-name="yacute" unicode="&#xfd;" horiz-adv-x="439" 
d="M376 292l-50 -74q-164 -243 -258 -355q-274 -327 -526 -335h-13q-65 0 -125.5 30.5t-61.5 76.5q0 6 5.5 9.5t10.5 -1.5q78 -72 206 -72q257 0 621 513q2 2 10 14.5t8 17.5q0 4 -3 4q-1 0 -58 -33q-66 -37 -102 -37q-33 0 -48 20t-15 69q0 28 27 83.5t62 101t56 45.5
q12 0 18.5 -6t6.5 -15q0 -12 -31.5 -56t-62.5 -93.5t-31 -74.5q0 -29 29 -29q39 0 128 66t127 117q3 4 19 34t33.5 51t33.5 21q9 0 16 -7t7 -15q0 -15 -39 -70zM387 594q0 -12 -9 -24q-46 -60 -109 -118q-11 -10 -20 -10q-13 0 -13 16q0 6 2.5 11t8 11.5t7.5 8.5
q48 55 81 113q9 17 27 17q11 0 18 -7t7 -18z" />
    <glyph glyph-name="thorn" unicode="&#xfe;" horiz-adv-x="569" 
d="M106 117q8 4 23 20t34.5 37.5t28.5 30.5q49 49 76 74.5t75 58t89 43.5q12 3 23 3q19 0 32 -10.5t13 -30.5q0 -25 -17 -64q-9 -20 -21 -40t-30.5 -47.5t-24.5 -36.5q-36 -53 -36 -73q0 -12 19 -12q20 0 40 9q41 19 126 102q8 8 19 4.5t14 -12.5t-4 -18q-89 -93 -170 -121
q-28 -10 -54 -10q-47 0 -47 44q0 31 25 78t54 92.5t34 65.5q3 12 -9 12q-22 0 -66 -29q-93 -65 -220 -204q-73 -79 -205 -269q-21 -32 -43 -32q-6 0 -10.5 6t-4.5 13q0 13 19 40q137 215 262 440q10 18 6 18q-5 0 -36 -32.5t-64 -69t-40 -41.5q-16 -14 -28 -1.5t1 29.5
q195 207 276 306l54 78q54 77 87 115q36 45 60 45q10 0 17 -7.5t7 -18.5q0 -19 -41 -64q-101 -116 -191.5 -256t-151.5 -265z" />
    <glyph glyph-name="ydieresis" unicode="&#xff;" horiz-adv-x="439" 
d="M356 550q31 0 31 -33q0 -15 -14.5 -30.5t-29.5 -15.5q-13 0 -20 12.5t-7 29.5q0 15 12.5 26t27.5 11zM237 541q31 0 31 -36q0 -16 -14.5 -29.5t-30.5 -13.5q-24 0 -24 44q0 15 11.5 25t26.5 10zM376 292l-50 -74q-164 -243 -258 -355q-274 -327 -526 -335h-13
q-65 0 -125.5 30.5t-61.5 76.5q0 6 5.5 9.5t10.5 -1.5q78 -72 206 -72q257 0 621 513q2 2 10 14.5t8 17.5q0 4 -3 4q-1 0 -58 -33q-66 -37 -102 -37q-33 0 -48 20t-15 69q0 28 27 83.5t62 101t56 45.5q12 0 18.5 -6t6.5 -15q0 -12 -31.5 -56t-62.5 -93.5t-31 -74.5
q0 -29 29 -29q39 0 128 66t127 117q3 4 19 34t33.5 51t33.5 21q9 0 16 -7t7 -15q0 -15 -39 -70z" />
    <glyph glyph-name="Amacron" unicode="&#x100;" horiz-adv-x="574" 
d="M600 531q7 0 14 -6t7 -16q0 -8 -4 -18t-10 -20t-11.5 -18t-12 -16.5t-7.5 -9.5q-34 -46 -64 -92q-37 -55 -59.5 -91t-46.5 -89t-24 -86q0 -31 18 -31q4 0 12 2.5t14 2.5q9 0 9 -12q0 -18 -17 -29q-15 -9 -30 -9q-22 0 -37 17.5t-15 45.5q0 31 7 56q4 13 4 21q0 9 -6 9
q-7 0 -14 -7q-167 -167 -267 -167q-40 0 -62 33.5t-22 84.5q0 75 44.5 176t125.5 196.5t172 140.5q48 24 92 24q80 0 80 -87q0 -48 -28.5 -98.5t-67.5 -89.5q-38 -38 -53 -38t-15 11q0 10 28 40.5t56.5 76t28.5 90.5q0 48 -28 48q-71 0 -138 -57t-119 -132
q-122 -176 -122 -306q0 -56 41 -56q35 0 86 29t91 65q182 163 287 354q13 24 30.5 41t32.5 17zM578 765q16 0 16 -18q0 -23 -17 -28q-46 -13 -158 -13q-7 0 -22.5 0.5t-23.5 0.5t-12.5 6.5t-4.5 14.5q0 22 18 22q57 0 142 9q57 6 62 6z" />
    <glyph glyph-name="amacron" unicode="&#x101;" horiz-adv-x="515" 
d="M450 542q16 0 16 -18q0 -23 -17 -28q-46 -13 -158 -13q-7 0 -22.5 0.5t-23.5 0.5t-12.5 6.5t-4.5 14.5q0 22 18 22q57 0 142 9q57 6 62 6zM11 147q-9 -4 -19.5 2t-10.5 16q0 9 10 18q33 31 84 71q7 6 27 22t28.5 22.5t26 19.5t29 19t27.5 13.5t30 10.5t29 3q9 0 15 -6.5
t6 -14.5q0 -17 -36 -43q-24 -18 -81.5 -47.5t-68.5 -39.5q-21 -19 -40.5 -60t-19.5 -72q0 -42 39 -42q46 0 109.5 62t83.5 110q19 46 54 97t65 51q21 0 21 -23q0 -20 -45 -73t-62 -88q-28 -59 -28 -95q0 -38 32 -38q20 0 49 16q17 10 52.5 42.5t64.5 60t34 27.5q7 0 13 -6
t6 -13q0 -15 -78 -85t-118 -84q-24 -8 -39 -8q-32 0 -45.5 19t-16.5 46t-4 30l-4 -3q-30 -35 -77 -66t-83 -31q-39 0 -58 23.5t-19 60.5q0 34 17 73z" />
    <glyph glyph-name="Abreve" unicode="&#x102;" horiz-adv-x="574" 
d="M600 531q7 0 14 -6t7 -16q0 -8 -4 -18t-10 -20t-11.5 -18t-12 -16.5t-7.5 -9.5q-34 -46 -64 -92q-37 -55 -59.5 -91t-46.5 -89t-24 -86q0 -31 18 -31q4 0 12 2.5t14 2.5q9 0 9 -12q0 -18 -17 -29q-15 -9 -30 -9q-22 0 -37 17.5t-15 45.5q0 31 7 56q4 13 4 21q0 9 -6 9
q-7 0 -14 -7q-167 -167 -267 -167q-40 0 -62 33.5t-22 84.5q0 75 44.5 176t125.5 196.5t172 140.5q48 24 92 24q80 0 80 -87q0 -48 -28.5 -98.5t-67.5 -89.5q-38 -38 -53 -38t-15 11q0 10 28 40.5t56.5 76t28.5 90.5q0 48 -28 48q-71 0 -138 -57t-119 -132
q-122 -176 -122 -306q0 -56 41 -56q35 0 86 29t91 65q182 163 287 354q13 24 30.5 41t32.5 17zM610 841q14 0 14 -16q0 -24 -18 -55t-47.5 -51.5t-56.5 -20.5q-28 0 -44.5 19.5t-16.5 46.5q0 25 9.5 50t32.5 25q18 0 18 -17q0 -8 -6 -23.5t-6 -31.5q0 -18 19 -18
q25 0 43 18.5t37 53.5q10 20 22 20z" />
    <glyph glyph-name="abreve" unicode="&#x103;" horiz-adv-x="515" 
d="M450 589q14 0 14 -16q0 -24 -18 -55t-47.5 -51.5t-56.5 -20.5q-28 0 -44.5 19.5t-16.5 46.5q0 25 9.5 50t32.5 25q18 0 18 -17q0 -8 -6 -23.5t-6 -31.5q0 -18 19 -18q25 0 43 18.5t37 53.5q10 20 22 20zM11 147q-9 -4 -19.5 2t-10.5 16q0 9 10 18q33 31 84 71q7 6 27 22
t28.5 22.5t26 19.5t29 19t27.5 13.5t30 10.5t29 3q9 0 15 -6.5t6 -14.5q0 -17 -36 -43q-24 -18 -81.5 -47.5t-68.5 -39.5q-21 -19 -40.5 -60t-19.5 -72q0 -42 39 -42q46 0 109.5 62t83.5 110q19 46 54 97t65 51q21 0 21 -23q0 -20 -45 -73t-62 -88q-28 -59 -28 -95
q0 -38 32 -38q20 0 49 16q17 10 52.5 42.5t64.5 60t34 27.5q7 0 13 -6t6 -13q0 -15 -78 -85t-118 -84q-24 -8 -39 -8q-32 0 -45.5 19t-16.5 46t-4 30l-4 -3q-30 -35 -77 -66t-83 -31q-39 0 -58 23.5t-19 60.5q0 34 17 73z" />
    <glyph glyph-name="Aogonek" unicode="&#x104;" horiz-adv-x="574" 
d="M363 165q-16 -14 -55 -51.5t-62 -57.5t-58 -45.5t-67.5 -37.5t-65.5 -12q-38 0 -60.5 31t-22.5 65q0 76 42.5 182.5t123.5 210t173 149.5q48 24 92 24q85 0 85 -85q0 -74 -54 -144t-99 -91q-5 -3 -10.5 4.5t-5.5 13.5q0 10 15 26t34 33.5t39 52t28 76.5q4 20 4 32
q0 40 -29 40q-118 0 -253 -194q-50 -72 -88 -162.5t-38 -159.5q0 -51 42 -51q11 0 22.5 2t23.5 7t20.5 8.5t21.5 12.5l19.5 13.5t20.5 16t18 15t18.5 16.5t15.5 14q182 163 287 354q13 24 30.5 41t32.5 17q7 0 14 -6t7 -16q0 -8 -4 -18t-10 -20t-11.5 -18t-12 -16.5
t-7.5 -9.5q-34 -46 -64 -92q-86 -128 -109 -182q-19 -44 -19 -75q0 -21 3 -29t14 -8q6 0 25 12t26 12q11 0 11 -15q0 -20 -26 -40q-86 -67 -86 -107q0 -16 10 -26.5t28 -10.5q12 0 31 7q15 5 15 -10q0 -16 -20.5 -26t-39.5 -10q-32 0 -52.5 18t-20.5 46q0 29 20.5 62
t50.5 55q-35 7 -35 66q0 34 22 91z" />
    <glyph glyph-name="aogonek" unicode="&#x105;" horiz-adv-x="515" 
d="M10 144l1 3q-13 -6 -25 7t5 29q33 31 84 71q7 6 27 22t28.5 22.5t26 19.5t29 19t27.5 13.5t30 10.5t29 3q9 0 15 -6.5t6 -14.5q0 -21 -40.5 -48t-89.5 -51.5t-56 -30.5q-21 -19 -40.5 -60t-19.5 -72q0 -42 39 -42q46 0 109.5 62t83.5 110t54.5 98t64.5 50q21 0 21 -23
q0 -20 -45 -73t-62 -88q-28 -59 -28 -95q0 -38 32 -38q20 0 49 16q17 10 52.5 42.5t64.5 60t34 27.5q7 0 13 -6t6 -13q0 -15 -78 -85t-118 -84q-2 0 -3 -1q-33 -16 -53.5 -42.5t-20.5 -48.5q0 -43 50 -43q2 0 9 1t11 1q13 0 13 -10q0 -9 -9 -15q-26 -15 -53 -15
q-31 0 -51.5 20t-20.5 49q0 59 62 101q-18 8 -25.5 26.5t-9.5 39.5t-4 24l-4 -3q-30 -35 -77 -66t-83 -31q-39 0 -58 23.5t-19 60.5q0 34 17 73z" />
    <glyph glyph-name="Cacute" unicode="&#x106;" horiz-adv-x="354" 
d="M278 485q-25 -16 -49.5 -61t-32.5 -94q-1 -3 -1.5 -9t-1.5 -9t-2 -7.5t-2.5 -6.5t-3.5 -4.5t-5 -3.5t-7 -1q-13 0 -13 22q0 23 12 61.5t19 52.5q26 50 48 80t58 55q26 18 43 18q14 0 14 -13q0 -9 -18 -45.5t-18 -59.5q0 -12 5 -12q31 0 63 62.5t32 115.5q0 48 -48 48
q-49 0 -121 -61q-94 -78 -156 -200.5t-62 -233.5q0 -56 19.5 -92t58.5 -36q76 0 205 104q3 2 11.5 11t16 15t14.5 6q6 0 12 -7.5t6 -13.5q0 -17 -75 -75t-122 -77q-36 -15 -80 -15q-58 0 -88.5 48t-30.5 122q0 71 23 152t54 129q34 54 64 93t72.5 81.5t91.5 65t102 22.5
q79 0 79 -90q0 -71 -46 -143t-100 -72q-26 0 -36 23.5t-4 54.5zM549 918q-46 -60 -109 -118q-20 -19 -29.5 -5t4.5 31q36 39 91 124q11 18 28 17t22 -15.5t-7 -33.5z" />
    <glyph glyph-name="cacute" unicode="&#x107;" horiz-adv-x="324" 
d="M379 594q0 -12 -9 -24q-46 -60 -109 -118q-11 -10 -20 -10q-13 0 -13 16q0 6 2.5 11t8 11.5t7.5 8.5q48 55 81 113q9 17 27 17q11 0 18 -7t7 -18zM283 315q0 -34 -22.5 -66.5t-49.5 -32.5q-8 0 -15.5 5.5t-7.5 12.5q0 20 20 42.5t20 32.5q0 15 -14 15q-67 0 -126 -68.5
t-59 -139.5q0 -64 65 -64q84 0 217 130q7 6 17 3t13 -11.5t-5 -20.5q-37 -45 -107 -91q-92 -62 -153 -62q-49 0 -76 34.5t-27 87.5q0 52 36 109.5t93.5 96.5t114.5 39q66 0 66 -52z" />
    <glyph glyph-name="Ccircumflex" unicode="&#x108;" horiz-adv-x="354" 
d="M278 485q-25 -16 -49.5 -61t-32.5 -94q-1 -3 -1.5 -9t-1.5 -9t-2 -7.5t-2.5 -6.5t-3.5 -4.5t-5 -3.5t-7 -1q-13 0 -13 22q0 23 12 61.5t19 52.5q26 50 48 80t58 55q26 18 43 18q14 0 14 -13q0 -9 -18 -45.5t-18 -59.5q0 -12 5 -12q31 0 63 62.5t32 115.5q0 48 -48 48
q-49 0 -121 -61q-94 -78 -156 -200.5t-62 -233.5q0 -56 19.5 -92t58.5 -36q76 0 205 104q3 2 11.5 11t16 15t14.5 6q6 0 12 -7.5t6 -13.5q0 -17 -75 -75t-122 -77q-36 -15 -80 -15q-58 0 -88.5 48t-30.5 122q0 71 23 152t54 129q34 54 64 93t72.5 81.5t91.5 65t102 22.5
q79 0 79 -90q0 -71 -46 -143t-100 -72q-26 0 -36 23.5t-4 54.5zM473 797q5 -21 -12.5 -29.5t-29.5 10.5q-5 8 -9 19t-6 19t-4.5 20.5t-3.5 18.5q-51 -54 -79 -71q-12 -7 -24 -12q-18 -7 -25.5 10t7.5 25q68 39 122 107q10 9 21 5.5t15 -16.5q6 -49 28 -106z" />
    <glyph glyph-name="ccircumflex" unicode="&#x109;" horiz-adv-x="324" 
d="M283 315q0 -34 -22.5 -66.5t-49.5 -32.5q-8 0 -15.5 5.5t-7.5 12.5q0 20 20 42.5t20 32.5q0 15 -14 15q-67 0 -126 -68.5t-59 -139.5q0 -64 65 -64q84 0 217 130q7 6 17 3t13 -11.5t-5 -20.5q-37 -45 -107 -91q-92 -62 -153 -62q-49 0 -76 34.5t-27 87.5q0 52 36 109.5
t93.5 96.5t114.5 39q66 0 66 -52zM272 541q-59 -65 -103 -83q-6 -2 -8 -2q-8 0 -13.5 6.5t-5.5 14.5q0 10 9 16q53 31 97 78q2 3 8 10t10 12t10.5 9.5t12.5 4.5q18 0 20 -18q4 -34 13 -63q1 -3 8.5 -21.5t7.5 -29.5q0 -10 -7 -17t-16 -7q-13 0 -20 13q-5 8 -9 19t-6 19
t-4.5 20.5t-3.5 18.5z" />
    <glyph glyph-name="Cdotaccent" unicode="&#x10a;" horiz-adv-x="354" 
d="M278 485q-25 -16 -49.5 -61t-32.5 -94q-1 -3 -1.5 -9t-1.5 -9t-2 -7.5t-2.5 -6.5t-3.5 -4.5t-5 -3.5t-7 -1q-13 0 -13 22q0 23 12 61.5t19 52.5q26 50 48 80t58 55q26 18 43 18q14 0 14 -13q0 -9 -18 -45.5t-18 -59.5q0 -12 5 -12q31 0 63 62.5t32 115.5q0 48 -48 48
q-49 0 -121 -61q-94 -78 -156 -200.5t-62 -233.5q0 -56 19.5 -92t58.5 -36q76 0 205 104q3 2 11.5 11t16 15t14.5 6q6 0 12 -7.5t6 -13.5q0 -17 -75 -75t-122 -77q-36 -15 -80 -15q-58 0 -88.5 48t-30.5 122q0 71 23 152t54 129q34 54 64 93t72.5 81.5t91.5 65t102 22.5
q79 0 79 -90q0 -71 -46 -143t-100 -72q-26 0 -36 23.5t-4 54.5zM451 870q23 0 23 -26q0 -17 -16 -36.5t-34 -19.5q-21 0 -21 31q0 21 13 36t35 15z" />
    <glyph glyph-name="cdotaccent" unicode="&#x10b;" horiz-adv-x="324" 
d="M283 315q0 -34 -22.5 -66.5t-49.5 -32.5q-8 0 -15.5 5.5t-7.5 12.5q0 20 20 42.5t20 32.5q0 15 -14 15q-67 0 -126 -68.5t-59 -139.5q0 -64 65 -64q84 0 217 130q7 6 17 3t13 -11.5t-5 -20.5q-37 -45 -107 -91q-92 -62 -153 -62q-49 0 -76 34.5t-27 87.5q0 52 36 109.5
t93.5 96.5t114.5 39q66 0 66 -52zM309 565q23 0 23 -26q0 -17 -16 -36.5t-34 -19.5q-21 0 -21 31q0 21 13 36t35 15z" />
    <glyph glyph-name="Ccaron" unicode="&#x10c;" horiz-adv-x="354" 
d="M278 485q-25 -16 -49.5 -61t-32.5 -94q-1 -3 -1.5 -9t-1.5 -9t-2 -7.5t-2.5 -6.5t-3.5 -4.5t-5 -3.5t-7 -1q-13 0 -13 22q0 23 12 61.5t19 52.5q26 50 48 80t58 55q26 18 43 18q14 0 14 -13q0 -9 -18 -45.5t-18 -59.5q0 -12 5 -12q31 0 63 62.5t32 115.5q0 48 -48 48
q-49 0 -121 -61q-94 -78 -156 -200.5t-62 -233.5q0 -56 19.5 -92t58.5 -36q76 0 205 104q3 2 11.5 11t16 15t14.5 6q6 0 12 -7.5t6 -13.5q0 -17 -75 -75t-122 -77q-36 -15 -80 -15q-58 0 -88.5 48t-30.5 122q0 71 23 152t54 129q34 54 64 93t72.5 81.5t91.5 65t102 22.5
q79 0 79 -90q0 -71 -46 -143t-100 -72q-26 0 -36 23.5t-4 54.5zM426 836q65 69 113 89q18 7 25.5 -9t-7.5 -24q-14 -8 -28 -18t-31 -26t-24 -22t-28 -28l-21 -21q-7 -7 -16 -7q-17 0 -20 18q-17 82 -32 107q-4 13 4 22t20 9q13 0 22 -13q5 -8 9 -19t6 -19t4.5 -20.5
t3.5 -18.5z" />
    <glyph glyph-name="ccaron" unicode="&#x10d;" horiz-adv-x="324" 
d="M283 315q0 -34 -22.5 -66.5t-49.5 -32.5q-8 0 -15.5 5.5t-7.5 12.5q0 20 20 42.5t20 32.5q0 15 -14 15q-67 0 -126 -68.5t-59 -139.5q0 -64 65 -64q84 0 217 130q7 6 17 3t13 -11.5t-5 -20.5q-37 -45 -107 -91q-92 -62 -153 -62q-49 0 -76 34.5t-27 87.5q0 52 36 109.5
t93.5 96.5t114.5 39q66 0 66 -52zM262 491q65 69 113 89q6 2 9 2q18 0 18 -19q0 -10 -9 -16q-64 -37 -118 -98q-19 -24 -30 -24q-17 0 -20 18q-3 14 -18 57t-15 57q0 10 7.5 17t17.5 7q13 0 22 -13q5 -8 9 -19t6 -19t4.5 -20.5t3.5 -18.5z" />
    <glyph glyph-name="Dcaron" unicode="&#x10e;" horiz-adv-x="687" 
d="M560 656q-10 5 -28 5q-12 0 -25.5 -2.5t-29.5 -6.5t-21 -5q-65 -13 -124.5 -37t-119 -62.5t-96 -65t-98.5 -76.5q-2 -2 -10 -9t-13 -11t-12 -8t-13 -4q-7 0 -16 9t-9 20q0 7 3 13.5t10 12.5t12 10.5t14 11t12 8.5q64 49 116 83.5t125 74t153 61t162 23.5q4 0 13 -0.5
t14 -0.5q20 0 36.5 12t25.5 26.5t23 26.5t31 12q20 0 20 -22q0 -34 -28 -72q-7 -10 -7 -22q0 -10 8 -25l8 -15q17 -48 17 -104q0 -116 -86 -290q-48 -100 -118 -164q-21 -19 -34 -30t-38.5 -22t-51.5 -11t-47.5 10t-33 21t-28.5 32q-22 26 -31 26q-6 -5 -24.5 -23.5
t-27.5 -24.5q-90 -69 -165 -69q-88 0 -88 76q0 41 23 93t49 87q20 28 35.5 46.5t42 37.5t50.5 19q34 0 59 -36.5t39.5 -74t22.5 -39.5q7 -1 15.5 5.5t20.5 22.5t13 18q168 198 298 409q-3 3 -7 3q-16 0 -50 -45.5t-68 -91.5t-50 -46q-8 0 -12.5 5t-4.5 11q0 14 10 29
t29 34.5t21 21.5q9 11 26 29.5t31 35t27 34.5zM647 599q-3 0 -42 -58q-17 -24 -57 -83.5t-63.5 -93t-63 -84.5t-78.5 -95q-16 -18 -31.5 -40t-14.5 -28q2 -18 27.5 -43t52.5 -25q54 0 112 63.5t99 140.5q82 158 82 276q0 70 -23 70zM218 141q-4 8 -14.5 31.5t-16.5 35
t-16.5 27t-21.5 22.5t-23 7q-18 0 -38 -17q-35 -29 -68.5 -82t-33.5 -96q0 -54 42 -54q25 0 50.5 10t39.5 19.5t38 28.5q41 31 62 68zM765 875q65 69 113 89q18 7 25.5 -9t-7.5 -24q-14 -8 -28 -18t-31 -26t-24 -22t-28 -27l-21 -22q-7 -7 -16 -7q-17 0 -20 18
q-17 82 -32 107q-5 21 14.5 29t31.5 -11q5 -8 9 -19t6 -19t4.5 -20.5t3.5 -18.5z" />
    <glyph glyph-name="dcaron" unicode="&#x10f;" horiz-adv-x="392" 
d="M294 629q-19 37 -58 60.5t-86 23.5q-126 0 -224 -126q-21 -33 -42 -33q-8 0 -14 5.5t-6 14.5q0 18 18 44t31 39q105 101 233 101q116 0 174 -78.5t58 -196.5q0 -102 -43.5 -215.5t-120 -194.5t-157.5 -81q-55 0 -55 66q0 47 22 89q2 4 2 5q0 2 -2 2q-1 0 -9 -3t-14 -3
q-7 0 -13.5 5t-6.5 13q0 13 17 25q121 95 156 118q1 1 12.5 7.5t18.5 10t18 7.5t18 4q18 0 18 -22q0 -13 -12.5 -25.5t-25 -19.5t-33.5 -16t-23 -10q-23 -12 -57.5 -79t-34.5 -105q0 -24 18 -24q37 0 81 38.5t70.5 78t42.5 71.5q62 129 62 254q0 88 -33 150zM532 564
q8 0 16 -10t8 -23q0 -38 -46 -84q-42 -42 -67 -42q-13 0 -13 12q0 9 12 19l12 9q12 9 16 13t12.5 12t11.5 15.5t3 15.5q0 6 -1 16t-1 13q0 34 37 34z" />
    <glyph glyph-name="Dcroat" unicode="&#x110;" horiz-adv-x="687" 
d="M560 656q-10 5 -28 5q-12 0 -25.5 -2.5t-29.5 -6.5t-21 -5q-65 -13 -124.5 -37t-119 -62.5t-96 -65t-98.5 -76.5q-2 -2 -10 -9t-13 -11t-12 -8t-13 -4q-7 0 -16 9t-9 20q0 7 3 13.5t10 12.5t12 10.5t14 11t12 8.5q64 49 116 83.5t125 74t153 61t162 23.5q4 0 13 -0.5
t14 -0.5q26 0 59 39t64 77.5t52 38.5q20 0 20 -22q0 -34 -28 -72q-3 -4 -21.5 -26.5t-31.5 -42t-13 -31.5q0 -10 8 -25l8 -15q17 -48 17 -104q0 -116 -86 -290q-48 -100 -118 -164q-21 -19 -34 -30t-38.5 -22t-51.5 -11t-47.5 10t-33 21t-28.5 32q-22 26 -31 26
q-6 -5 -24.5 -23.5t-27.5 -24.5q-90 -69 -165 -69q-88 0 -88 76q0 41 23 93t49 87q20 28 35.5 46.5t42 37.5t50.5 19q34 0 59 -36.5t39.5 -74t22.5 -39.5q7 -1 15.5 5.5t20.5 22.5t13 18q48 56 82 101q7 9 -3 9h-27h-53q-17 0 -17 19q0 20 18 24q37 0 111 6q13 0 24 11
q92 123 163 239q-3 3 -7 3q-16 0 -50 -45.5t-68 -91.5t-50 -46q-8 0 -12.5 5t-4.5 11q0 14 10 29t29 34.5t21 21.5q9 11 26 29.5t31 35t27 34.5zM647 599q-3 0 -42 -58q-38 -53 -96 -140q-4 -6 1 -6q20 0 29.5 -2.5t11 -5.5t1.5 -10q0 -31 -69 -34q-15 0 -19 -8
q-63 -85 -121 -150q-16 -18 -31.5 -40t-14.5 -28q2 -18 27.5 -43t52.5 -25q54 0 112 63.5t99 140.5q82 158 82 276q0 70 -23 70zM218 141q-4 8 -14.5 31.5t-16.5 35t-16.5 27t-21.5 22.5t-23 7q-18 0 -38 -17q-35 -29 -68.5 -82t-33.5 -96q0 -54 42 -54q25 0 50.5 10
t39.5 19.5t38 28.5q41 31 62 68z" />
    <glyph glyph-name="dcroat" unicode="&#x111;" horiz-adv-x="391" 
d="M468 675q8 0 13 -5.5t5 -13.5q0 -6 -3 -10.5t-6 -7.5t-9.5 -7.5t-9.5 -7.5q-23 -18 -75 -50q-13 -11 -11 -21q6 -33 6 -69q0 -102 -43.5 -215.5t-120 -194.5t-157.5 -81q-55 0 -55 66q0 47 22 89q2 4 2 5q0 2 -2 2q-1 0 -9 -3t-14 -3q-7 0 -13.5 5t-6.5 13q0 13 17 25
q124 97 156 118q45 29 67 29q18 0 18 -22q0 -13 -12.5 -25.5t-25 -19.5t-33.5 -16t-23 -10q-23 -12 -57.5 -79t-34.5 -105q0 -24 18 -24q37 0 81 38.5t70.5 78t42.5 71.5q62 129 62 254q0 15 -2 45q-2 11 -9 11q-4 0 -10 -3q-56 -28 -100 -48q-10 -5 -21 -5q-24 0 -24 25
q0 17 31 28q23 8 111 49q6 1 6 10q0 5 -15 38q-19 37 -58 60.5t-86 23.5q-135 0 -224 -126q-24 -33 -42 -33q-8 0 -14 5.5t-6 14.5q0 18 18 44t31 39q105 101 233 101q151 0 206 -136q4 -10 12 -10q18 0 69 41q3 2 9.5 8.5t12.5 10t13 3.5z" />
    <glyph glyph-name="Emacron" unicode="&#x112;" horiz-adv-x="423" 
d="M215 339q-9 -20 -9.5 -60t-4 -66t-21.5 -26q-14 2 -14 42q0 28 10 101q-53 -10 -103 -64t-50 -124q0 -48 32.5 -79.5t84.5 -31.5q60 0 132.5 42t137.5 107q7 7 15 7q7 0 12.5 -6.5t5.5 -14.5t-5 -13q-173 -173 -304 -173q-80 0 -121 43t-41 109q0 64 36.5 124.5
t96.5 89.5q7 3 31.5 12.5t39.5 17.5t15 13q0 6 -14.5 25.5t-19.5 30.5q-16 36 -16 74q0 83 70 142t162 59q58 0 96 -33t38 -88q0 -61 -39 -106.5t-90 -45.5q-88 0 -88 98l-1 2q-7 0 -30.5 -48t-23.5 -71q0 -15 30.5 -31t30.5 -30q0 -13 -17 -17.5t-38 -5.5t-26 -5zM203 458
q25 61 57 110q1 1 5.5 8t8 12t10 13.5t12 14.5t12 12t12.5 9t12 3q17 0 17 -16q0 -12 -10.5 -40t-10.5 -43q0 -24 15 -38t36 -14q35 0 57.5 35.5t22.5 74.5q0 38 -24 59t-65 21q-73 0 -128 -51t-55 -124q0 -31 16 -46zM524 872q16 0 16 -18q0 -23 -17 -28q-46 -13 -158 -13
q-7 0 -22.5 0.5t-23.5 0.5t-12.5 6.5t-4.5 14.5q0 22 18 22q57 0 142 9q57 6 62 6z" />
    <glyph glyph-name="emacron" unicode="&#x113;" horiz-adv-x="330" 
d="M264 327q0 -23 -9.5 -42t-32 -36.5t-37.5 -27t-49.5 -27.5t-45.5 -24q-8 -4 -24 -10.5t-26 -11.5t-11 -9q-2 -16 -2 -22q0 -40 23 -58.5t54 -18.5q72 0 212 140q9 9 19.5 5.5t13 -13.5t-6.5 -21q-51 -52 -82.5 -80t-79 -52t-95.5 -24q-54 0 -83 37t-29 88q0 77 76 171
t154 94q25 0 43 -15.5t18 -42.5zM192 340q-31 0 -76 -46t-57 -77q-2 -6 -2 -7q0 -7 9 -7q27 0 83.5 43t56.5 73q0 21 -14 21zM315 542q16 0 16 -18q0 -23 -17 -28q-46 -13 -158 -13q-7 0 -22.5 0.5t-23.5 0.5t-12.5 6.5t-4.5 14.5q0 22 18 22q57 0 142 9q57 6 62 6z" />
    <glyph glyph-name="Ebreve" unicode="&#x114;" horiz-adv-x="423" 
d="M215 339q-9 -20 -9.5 -60t-4 -66t-21.5 -26q-14 2 -14 42q0 28 10 101q-53 -10 -103 -64t-50 -124q0 -48 32.5 -79.5t84.5 -31.5q60 0 132.5 42t137.5 107q7 7 15 7q7 0 12.5 -6.5t5.5 -14.5t-5 -13q-173 -173 -304 -173q-80 0 -121 43t-41 109q0 64 36.5 124.5
t96.5 89.5q7 3 31.5 12.5t39.5 17.5t15 13q0 6 -14.5 25.5t-19.5 30.5q-16 36 -16 74q0 83 70 142t162 59q58 0 96 -33t38 -88q0 -61 -39 -106.5t-90 -45.5q-88 0 -88 98l-1 2q-7 0 -30.5 -48t-23.5 -71q0 -15 30.5 -31t30.5 -30q0 -13 -17 -17.5t-38 -5.5t-26 -5zM203 458
q25 61 57 110q1 1 5.5 8t8 12t10 13.5t12 14.5t12 12t12.5 9t12 3q17 0 17 -16q0 -12 -10.5 -40t-10.5 -43q0 -24 15 -38t36 -14q35 0 57.5 35.5t22.5 74.5q0 38 -24 59t-65 21q-73 0 -128 -51t-55 -124q0 -31 16 -46zM508 939q14 0 14 -16q0 -24 -18 -55t-47.5 -51.5
t-56.5 -20.5q-28 0 -44.5 19.5t-16.5 46.5q0 25 9.5 50t32.5 25q18 0 18 -17q0 -8 -6 -23.5t-6 -31.5q0 -18 19 -18q25 0 43 18.5t37 53.5q10 20 22 20z" />
    <glyph glyph-name="ebreve" unicode="&#x115;" horiz-adv-x="330" 
d="M264 327q0 -23 -9.5 -42t-32 -36.5t-37.5 -27t-49.5 -27.5t-45.5 -24q-8 -4 -24 -10.5t-26 -11.5t-11 -9q-2 -16 -2 -22q0 -40 23 -58.5t54 -18.5q72 0 212 140q9 9 19.5 5.5t13 -13.5t-6.5 -21q-51 -52 -82.5 -80t-79 -52t-95.5 -24q-54 0 -83 37t-29 88q0 77 76 171
t154 94q25 0 43 -15.5t18 -42.5zM192 340q-31 0 -76 -46t-57 -77q-2 -6 -2 -7q0 -7 9 -7q27 0 83.5 43t56.5 73q0 21 -14 21zM309 589q14 0 14 -16q0 -24 -18 -55t-47.5 -51.5t-56.5 -20.5q-28 0 -44.5 19.5t-16.5 46.5q0 25 9.5 50t32.5 25q18 0 18 -17q0 -8 -6 -23.5
t-6 -31.5q0 -18 19 -18q25 0 43 18.5t37 53.5q10 20 22 20z" />
    <glyph glyph-name="Edotaccent" unicode="&#x116;" horiz-adv-x="423" 
d="M215 339q-9 -20 -9.5 -60t-4 -66t-21.5 -26q-14 2 -14 42q0 28 10 101q-53 -10 -103 -64t-50 -124q0 -48 32.5 -79.5t84.5 -31.5q60 0 132.5 42t137.5 107q7 7 15 7q7 0 12.5 -6.5t5.5 -14.5t-5 -13q-173 -173 -304 -173q-80 0 -121 43t-41 109q0 64 36.5 124.5
t96.5 89.5q7 3 31.5 12.5t39.5 17.5t15 13q0 6 -14.5 25.5t-19.5 30.5q-16 36 -16 74q0 83 70 142t162 59q58 0 96 -33t38 -88q0 -61 -39 -106.5t-90 -45.5q-88 0 -88 98l-1 2q-7 0 -30.5 -48t-23.5 -71q0 -15 30.5 -31t30.5 -30q0 -13 -17 -17.5t-38 -5.5t-26 -5zM203 458
q25 61 57 110q1 1 5.5 8t8 12t10 13.5t12 14.5t12 12t12.5 9t12 3q17 0 17 -16q0 -12 -10.5 -40t-10.5 -43q0 -24 15 -38t36 -14q35 0 57.5 35.5t22.5 74.5q0 38 -24 59t-65 21q-73 0 -128 -51t-55 -124q0 -31 16 -46zM434 895q23 0 23 -26q0 -17 -16 -36.5t-34 -19.5
q-21 0 -21 31q0 21 13 36t35 15z" />
    <glyph glyph-name="edotaccent" unicode="&#x117;" horiz-adv-x="330" 
d="M249 565q23 0 23 -26q0 -17 -16 -36.5t-34 -19.5q-21 0 -21 31q0 21 13 36t35 15zM264 327q0 -23 -9.5 -42t-32 -36.5t-37.5 -27t-49.5 -27.5t-45.5 -24q-8 -4 -24 -10.5t-26 -11.5t-11 -9q-2 -16 -2 -22q0 -40 23 -58.5t54 -18.5q72 0 212 140q9 9 19.5 5.5t13 -13.5
t-6.5 -21q-51 -52 -82.5 -80t-79 -52t-95.5 -24q-54 0 -83 37t-29 88q0 77 76 171t154 94q25 0 43 -15.5t18 -42.5zM192 340q-31 0 -76 -46t-57 -77q-2 -6 -2 -7q0 -7 9 -7q27 0 83.5 43t56.5 73q0 21 -14 21z" />
    <glyph glyph-name="Eogonek" unicode="&#x118;" horiz-adv-x="423" 
d="M215 339q-9 -20 -9.5 -60t-4 -66t-21.5 -26q-14 0 -14 42q0 28 10 101q-53 -10 -103 -64t-50 -124q0 -48 32.5 -79.5t84.5 -31.5q40 0 71.5 12t72.5 45q5 5 13 5q15 0 15 -16q0 -9 -7 -15q-60 -54 -85 -84.5t-25 -60.5q0 -24 18.5 -35t51.5 -6q12 1 13.5 -9.5t-9.5 -15.5
q-28 -14 -54 -14q-30 0 -48 19t-18 48q0 45 40 85q-21 -9 -55 -9q-80 0 -121 43t-41 109q0 64 36.5 124.5t96.5 89.5q7 3 31.5 12.5t39.5 17.5t15 13q0 6 -14.5 25.5t-19.5 30.5q-16 36 -16 74q0 83 70 142t162 59q58 0 96 -33t38 -88q0 -61 -39 -106.5t-90 -45.5
q-88 0 -88 98l-1 2q-7 0 -30.5 -48t-23.5 -71q0 -15 30.5 -31t30.5 -30q0 -13 -17 -17.5t-38 -5.5t-26 -5zM203 458q25 61 57 110q1 1 5.5 8t8 12t10 13.5t12 14.5t12 12t12.5 9t12 3q17 0 17 -16q0 -12 -10.5 -40t-10.5 -43q0 -24 15 -38t36 -14q35 0 57.5 35.5t22.5 74.5
q0 38 -24 59t-65 21q-73 0 -128 -51t-55 -124q0 -31 16 -46z" />
    <glyph glyph-name="eogonek" unicode="&#x119;" horiz-adv-x="330" 
d="M71 -4q-47 5 -72.5 41t-25.5 84t34 110t89 108t107 46q7 0 11 -1q50 -7 50 -57q0 -23 -9.5 -42t-32 -36.5t-37.5 -27t-49.5 -27.5t-45.5 -24q-8 -4 -24 -10.5t-26 -11.5t-11 -9q-2 -16 -2 -22q0 -40 23 -58.5t54 -18.5q72 0 212 140q9 9 19.5 5.5t13 -13.5t-6.5 -21
q-101 -103 -161 -133q-2 -1 -22 -9.5t-36.5 -18t-28.5 -19.5q-33 -30 -33 -63q0 -43 50 -43q3 0 9.5 1t10.5 1q13 0 13 -10q0 -15 -21.5 -22.5t-40.5 -7.5q-31 0 -51.5 20t-20.5 49q0 57 61 100zM192 340q-35 0 -88 -59q-46 -50 -46 -69q0 -7 8 -7q28 0 86 46q54 42 54 68
q0 21 -14 21z" />
    <glyph glyph-name="Ecaron" unicode="&#x11a;" horiz-adv-x="423" 
d="M215 339q-9 -20 -9.5 -60t-4 -66t-21.5 -26q-14 2 -14 42q0 28 10 101q-53 -10 -103 -64t-50 -124q0 -48 32.5 -79.5t84.5 -31.5q60 0 132.5 42t137.5 107q7 7 15 7q7 0 12.5 -6.5t5.5 -14.5t-5 -13q-173 -173 -304 -173q-80 0 -121 43t-41 109q0 64 36.5 124.5
t96.5 89.5q7 3 31.5 12.5t39.5 17.5t15 13q0 6 -14.5 25.5t-19.5 30.5q-16 36 -16 74q0 83 70 142t162 59q58 0 96 -33t38 -88q0 -61 -39 -106.5t-90 -45.5q-88 0 -88 98l-1 2q-7 0 -30.5 -48t-23.5 -71q0 -15 30.5 -31t30.5 -30q0 -13 -17 -17.5t-38 -5.5t-26 -5zM203 458
q25 61 57 110q1 1 5.5 8t8 12t10 13.5t12 14.5t12 12t12.5 9t12 3q17 0 17 -16q0 -12 -10.5 -40t-10.5 -43q0 -24 15 -38t36 -14q35 0 57.5 35.5t22.5 74.5q0 38 -24 59t-65 21q-73 0 -128 -51t-55 -124q0 -31 16 -46zM425 841q65 69 113 89q6 2 9 2q18 0 18 -19
q0 -10 -9 -16q-64 -37 -118 -98q-19 -24 -30 -24q-17 0 -20 18q-3 14 -18 57t-15 57q0 10 7.5 17t17.5 7q13 0 22 -13q5 -8 9 -19t6 -19t4.5 -20.5t3.5 -18.5z" />
    <glyph glyph-name="ecaron" unicode="&#x11b;" horiz-adv-x="330" 
d="M218 491q65 69 113 89q6 2 9 2q18 0 18 -19q0 -10 -9 -16q-64 -37 -118 -98q-19 -24 -30 -24q-17 0 -20 18q-3 14 -18 57t-15 57q0 10 7.5 17t17.5 7q13 0 22 -13q5 -8 9 -19t6 -19t4.5 -20.5t3.5 -18.5zM264 327q0 -23 -9.5 -42t-32 -36.5t-37.5 -27t-49.5 -27.5
t-45.5 -24q-8 -4 -24 -10.5t-26 -11.5t-11 -9q-2 -16 -2 -22q0 -40 23 -58.5t54 -18.5q72 0 212 140q9 9 19.5 5.5t13 -13.5t-6.5 -21q-51 -52 -82.5 -80t-79 -52t-95.5 -24q-54 0 -83 37t-29 88q0 77 76 171t154 94q25 0 43 -15.5t18 -42.5zM192 340q-31 0 -76 -46t-57 -77
q-2 -6 -2 -7q0 -7 9 -7q27 0 83.5 43t56.5 73q0 21 -14 21z" />
    <glyph glyph-name="Gcircumflex" unicode="&#x11c;" horiz-adv-x="417" 
d="M337 655q32 0 53 -23t21 -53q0 -66 -50 -122.5t-88 -56.5q-30 0 -30 14q0 10 11 19t29 19.5t26 18.5q20 20 37.5 52t17.5 56q0 31 -34 31q-57 0 -111.5 -47t-100.5 -123q-42 -72 -67 -151t-25 -137q0 -55 38 -55q39 0 97 54q122 111 194 232q22 36 48 36q16 0 16 -22
q0 -12 -5 -23.5t-15.5 -27.5t-13.5 -21q-15 -28 -53.5 -102t-60 -113t-58.5 -94t-74 -95q-102 -110 -184 -110q-33 0 -53.5 18t-20.5 50q0 6 2 20q5 30 31 30q7 0 11 -2t5.5 -8t2 -9.5t0 -13.5t-0.5 -12q0 -33 28 -33q50 0 117.5 68t115.5 143.5t63 120.5q2 6 0 6
q-4 0 -40 -37t-85 -74.5t-84 -37.5q-36 0 -55.5 30t-19.5 75q0 104 62 235.5t143 206.5q30 27 74 47.5t86 20.5zM396 802q-59 -65 -103 -83q-6 -2 -8 -2q-8 0 -13.5 6.5t-5.5 14.5q0 10 9 16q53 31 97 78q2 3 8 10t10 12t10.5 9.5t12.5 4.5q18 0 20 -18q4 -34 13 -63
q1 -3 8.5 -21.5t7.5 -29.5q0 -10 -7 -17t-16 -7q-13 0 -20 13q-5 8 -9 19t-6 19t-4.5 20.5t-3.5 18.5z" />
    <glyph glyph-name="gcircumflex" unicode="&#x11d;" horiz-adv-x="446" 
d="M386 387q17 0 17 -19q0 -22 -26 -64q-11 -18 -50 -84.5t-62 -103.5q-5 -5 -16.5 -22.5t-11.5 -26.5q0 -6 7 -6q22 0 88 42t98 75q11 11 22 8t12 -14t-7 -21q-31 -31 -86.5 -65.5t-112 -63.5t-69.5 -38t-25 -22.5t-25 -34.5t-18 -28q-40 -55 -62.5 -83t-63 -70t-89 -72.5
t-111.5 -57.5q-36 -17 -68 -17q-26 0 -26 22q0 24 23 67q81 150 355 294q6 3 24 11.5t23.5 12t18 13t22 22t22.5 31.5q36 54 36 67q0 2 -2 2q-13 0 -72 -52q-76 -66 -124 -66q-23 0 -40 16.5t-17 49.5q0 92 89 191q100 111 183 111q28 0 28 -19q0 -17 -34 -57
q-52 -59 -141 -121q-4 -3 -19.5 -12.5t-20.5 -14.5t-14.5 -15.5t-13 -23.5t-3.5 -30q0 -25 14 -25q11 0 33.5 11.5t34.5 19.5q75 52 129 109t114 141q2 2 6.5 9t6.5 9.5t6.5 7t8.5 6t9 1.5zM194 324q0 4 -5 4q-16 0 -47.5 -30t-33.5 -44q0 -3 3 -3q12 0 47.5 31t35.5 42z
M94 -56q-37 0 -159.5 -89t-151.5 -143q-2 -3 -8.5 -13.5t-11 -19t-4.5 -13.5q0 -9 10 -9q17 0 52 19q124 59 245 214q6 6 19 24t13 26q0 4 -4 4zM324 551q-59 -65 -103 -83q-6 -2 -8 -2q-8 0 -13.5 6.5t-5.5 14.5q0 10 9 16q53 31 97 78q2 3 8 10t10 12t10.5 9.5t12.5 4.5
q18 0 20 -18q4 -34 13 -63q1 -3 8.5 -21.5t7.5 -29.5q0 -10 -7 -17t-16 -7q-13 0 -20 13q-5 8 -9 19t-6 19t-4.5 20.5t-3.5 18.5z" />
    <glyph glyph-name="Gbreve" unicode="&#x11e;" horiz-adv-x="417" 
d="M337 655q32 0 53 -23t21 -53q0 -66 -50 -122.5t-88 -56.5q-30 0 -30 14q0 10 11 19t29 19.5t26 18.5q20 20 37.5 52t17.5 56q0 31 -34 31q-57 0 -111.5 -47t-100.5 -123q-42 -72 -67 -151t-25 -137q0 -55 38 -55q39 0 97 54q122 111 194 232q22 36 48 36q16 0 16 -22
q0 -12 -5 -23.5t-15.5 -27.5t-13.5 -21q-15 -28 -53.5 -102t-60 -113t-58.5 -94t-74 -95q-102 -110 -184 -110q-33 0 -53.5 18t-20.5 50q0 6 2 20q5 30 31 30q7 0 11 -2t5.5 -8t2 -9.5t0 -13.5t-0.5 -12q0 -33 28 -33q50 0 117.5 68t115.5 143.5t63 120.5q2 6 0 6
q-4 0 -40 -37t-85 -74.5t-84 -37.5q-36 0 -55.5 30t-19.5 75q0 104 62 235.5t143 206.5q30 27 74 47.5t86 20.5zM481 874q14 0 14 -16q0 -24 -18 -55t-47.5 -51.5t-56.5 -20.5q-28 0 -44.5 19.5t-16.5 46.5q0 25 9.5 50t32.5 25q18 0 18 -17q0 -8 -6 -23.5t-6 -31.5
q0 -18 19 -18q25 0 43 18.5t37 53.5q10 20 22 20z" />
    <glyph glyph-name="gbreve" unicode="&#x11f;" horiz-adv-x="446" 
d="M386 387q17 0 17 -19q0 -22 -26 -64q-11 -18 -50 -84.5t-62 -103.5q-5 -5 -16.5 -22.5t-11.5 -26.5q0 -6 7 -6q22 0 88 42t98 75q11 11 22 8t12 -14t-7 -21q-31 -31 -86.5 -65.5t-112 -63.5t-69.5 -38t-25 -22.5t-25 -34.5t-18 -28q-40 -55 -62.5 -83t-63 -70t-89 -72.5
t-111.5 -57.5q-36 -17 -68 -17q-26 0 -26 22q0 24 23 67q81 150 355 294q6 3 24 11.5t23.5 12t18 13t22 22t22.5 31.5q36 54 36 67q0 2 -2 2q-13 0 -72 -52q-76 -66 -124 -66q-23 0 -40 16.5t-17 49.5q0 92 89 191q100 111 183 111q28 0 28 -19q0 -17 -34 -57
q-52 -59 -141 -121q-4 -3 -19.5 -12.5t-20.5 -14.5t-14.5 -15.5t-13 -23.5t-3.5 -30q0 -25 14 -25q11 0 33.5 11.5t34.5 19.5q75 52 129 109t114 141q2 2 6.5 9t6.5 9.5t6.5 7t8.5 6t9 1.5zM194 324q0 4 -5 4q-16 0 -47.5 -30t-33.5 -44q0 -3 3 -3q12 0 47.5 31t35.5 42z
M94 -56q-37 0 -159.5 -89t-151.5 -143q-2 -3 -8.5 -13.5t-11 -19t-4.5 -13.5q0 -9 10 -9q17 0 52 19q124 59 245 214q6 6 19 24t13 26q0 4 -4 4zM397 609q14 0 14 -16q0 -24 -18 -55t-47.5 -51.5t-56.5 -20.5q-28 0 -44.5 19.5t-16.5 46.5q0 25 9.5 50t32.5 25q18 0 18 -17
q0 -8 -6 -23.5t-6 -31.5q0 -18 19 -18q25 0 43 18.5t37 53.5q10 20 22 20z" />
    <glyph glyph-name="Gdotaccent" unicode="&#x120;" horiz-adv-x="417" 
d="M337 655q32 0 53 -23t21 -53q0 -66 -50 -122.5t-88 -56.5q-30 0 -30 14q0 10 11 19t29 19.5t26 18.5q20 20 37.5 52t17.5 56q0 31 -34 31q-57 0 -111.5 -47t-100.5 -123q-42 -72 -67 -151t-25 -137q0 -55 38 -55q39 0 97 54q122 111 194 232q22 36 48 36q16 0 16 -22
q0 -12 -5 -23.5t-15.5 -27.5t-13.5 -21q-15 -28 -53.5 -102t-60 -113t-58.5 -94t-74 -95q-102 -110 -184 -110q-33 0 -53.5 18t-20.5 50q0 6 2 20q5 30 31 30q7 0 11 -2t5.5 -8t2 -9.5t0 -13.5t-0.5 -12q0 -33 28 -33q50 0 117.5 68t115.5 143.5t63 120.5q2 6 0 6
q-4 0 -40 -37t-85 -74.5t-84 -37.5q-36 0 -55.5 30t-19.5 75q0 104 62 235.5t143 206.5q30 27 74 47.5t86 20.5zM429 810q23 0 23 -26q0 -17 -16 -36.5t-34 -19.5q-21 0 -21 31q0 21 13 36t35 15z" />
    <glyph glyph-name="gdotaccent" unicode="&#x121;" horiz-adv-x="446" 
d="M386 387q17 0 17 -19q0 -22 -26 -64q-11 -18 -50 -84.5t-62 -103.5q-5 -5 -16.5 -22.5t-11.5 -26.5q0 -6 7 -6q22 0 88 42t98 75q11 11 22 8t12 -14t-7 -21q-31 -31 -86.5 -65.5t-112 -63.5t-69.5 -38t-25 -22.5t-25 -34.5t-18 -28q-40 -55 -62.5 -83t-63 -70t-89 -72.5
t-111.5 -57.5q-36 -17 -68 -17q-26 0 -26 22q0 24 23 67q81 150 355 294q6 3 24 11.5t23.5 12t18 13t22 22t22.5 31.5q36 54 36 67q0 2 -2 2q-13 0 -72 -52q-76 -66 -124 -66q-23 0 -40 16.5t-17 49.5q0 92 89 191q100 111 183 111q28 0 28 -19q0 -17 -34 -57
q-52 -59 -141 -121q-4 -3 -19.5 -12.5t-20.5 -14.5t-14.5 -15.5t-13 -23.5t-3.5 -30q0 -25 14 -25q11 0 33.5 11.5t34.5 19.5q75 52 129 109t114 141q2 2 6.5 9t6.5 9.5t6.5 7t8.5 6t9 1.5zM194 324q0 4 -5 4q-16 0 -47.5 -30t-33.5 -44q0 -3 3 -3q12 0 47.5 31t35.5 42z
M94 -56q-37 0 -159.5 -89t-151.5 -143q-2 -3 -8.5 -13.5t-11 -19t-4.5 -13.5q0 -9 10 -9q17 0 52 19q124 59 245 214q6 6 19 24t13 26q0 4 -4 4zM343 565q23 0 23 -26q0 -17 -16 -36.5t-34 -19.5q-21 0 -21 31q0 21 13 36t35 15z" />
    <glyph glyph-name="Gcommaaccent" unicode="&#x122;" horiz-adv-x="417" 
d="M337 655q32 0 53 -23t21 -53q0 -72 -56.5 -125.5t-91.5 -53.5q-20 0 -20 14q0 10 11 19t29 19.5t26 18.5q19 19 37 52t18 56q0 31 -34 31q-66 0 -135 -68.5t-112 -162.5t-43 -171q0 -55 38 -55q63 0 139 72q9 9 28.5 27.5t27 25.5t21.5 22t21.5 25t18.5 25.5t21 32.5
q20 35 43 35q21 0 21 -21q0 -12 -5 -23.5t-15.5 -27.5t-13.5 -21q-10 -18 -29 -53.5t-26.5 -49t-22.5 -40t-25.5 -41t-26.5 -37t-33.5 -43t-39.5 -44.5q-102 -110 -183 -110q-30 0 -50.5 14.5t-20.5 41.5q0 16 10.5 35.5t28.5 26.5q11 4 17 -6t3 -18q-11 -31 -11 -34
q0 -18 27 -18q50 0 108 49t97.5 107t53.5 101q1 2 1 5q0 1 -1 1q-4 0 -38.5 -32t-81.5 -64t-81 -32q-36 0 -55.5 35t-19.5 82q0 58 29 135.5t75.5 148.5t113.5 120.5t133 49.5zM17 -130q8 0 16 -10t8 -23q0 -38 -46 -84q-42 -42 -67 -42q-13 0 -13 12q0 9 12 19l12 9
q12 9 16 13t12.5 12t11.5 15.5t3 15.5q0 6 -1 16t-1 13q0 34 37 34z" />
    </font>
</defs>
</svg>
